<?xml version="1.0" encoding="utf-8"?>
<!-- Generator: Adobe Illustrator 16.0.0, SVG Export Plug-In . SVG Version: 6.00 Build 0)  -->
<!DOCTYPE svg PUBLIC "-//W3C//DTD SVG 1.1//EN" "http://www.w3.org/Graphics/SVG/1.1/DTD/svg11.dtd">
<svg version="1.1" id="Layer_1" xmlns="http://www.w3.org/2000/svg" xmlns:xlink="http://www.w3.org/1999/xlink" x="0px" y="0px"
	 width="517px" height="478.404px" viewBox="0 0 517 478.404" enable-background="new 0 0 517 478.404" xml:space="preserve">
<g>
	<path fill="none" stroke="#FFFFFF" stroke-width="2" stroke-miterlimit="10" d="M245.919,184.874
		c-17.187-13.909-22.745-41.157-18.449-56.546c3.231-11.581,2.701-15.748,2.701-15.748c-34.356-55.113-14.989-99.649-3.58-103.071
		c3.58-1.073,50.104,61.558,75.877,49.389c25.766-12.168,10.376-2.505,19.326-5.011c8.944-2.506,33.639-5.01,51.891-2.148
		c18.251,2.863,26.126-9.662,33.644-13.958c7.513-4.294,33.281-22.547,36.146-24.695c2.862-2.147,9.664-11.094,13.956-11.094
		c4.296,0,26.129,60.842-2.503,91.441c0,0,3.219,36.684-28.99,93.588c0,0,0.359,21.475-0.714,42.947
		c-1.14,22.828-13.866,43.889-27.201,58.338c-25.77,27.913-61.931,52.584-68.715,71.574c-1.789,5.012-15.746,26.487-6.802,49.748
		c8.95,23.259,6.802,17.18,13.96,24.34c7.159,7.159,12.168,6.437,18.252,13.236c6.082,6.802,2.148,8.95,0,11.455
		c0,0,4.653,5.727-2.506,7.875c0,0-10.02,12.521-15.746,8.947c0,0-19.684,9.307-31.134-8.591c0,0-4.653-4.294-8.59-6.442
		c-3.938-2.147-10.739-9.307-11.455-12.885c0,0-37.219,29.351-62.275,25.771c-25.048-3.579-37.219,0.716-41.511,1.432
		c-4.299,0.716-128.484,3.131-152.462-99.136c-2.652-11.317-25.407-54.758-23.621-81.245c2.913-43.155,7.048-77.256,26.484-106.649
		c29.347-44.378,72.528-67.539,135.285-57.978c25.694,3.916,35.787,10.378,59.17,4.581"/>
	<path fill="none" stroke="#FFFFFF" stroke-width="2" stroke-miterlimit="10" d="M126.384,427.525
		c6.443,18.354,80.169,31.012,143.156-1.913"/>
	<path fill="none" stroke="#FFFFFF" stroke-width="2" stroke-miterlimit="10" d="M249.427,434.523
		c-11.193-12.685-18.605-18.887-24.268-28.298c-6.082-10.106-42.227-14.669-36.321-61.553c0,0,25.727,45.856,50.639,48.316
		c4.296,0.423,9.004,15.059,14.936,21.814c6.319,7.191,9.76,1.81,13.855,7.972c4.23,6.366,6.892,9.222,10.4,11.728
		c4.644,3.32,4.472,8.949,6.618,13.062"/>
	<path fill="none" stroke="#FFFFFF" stroke-width="2" stroke-miterlimit="10" d="M348.534,334.976
		c-8.368,16.914-4.555,73.696,10.715,76.561c15.271,2.862,16.704-2.382,19.566,0c2.861,2.388,5.249,9.071,2.148,10.262
		c0,0,10.972,10.265-3.101,15.75c0,0-7.397,13.094-15.988,8.454c0,0-3.762,3.013-6.056,2.525"/>
	<path fill="none" stroke="#FFFFFF" stroke-width="2" stroke-miterlimit="10" d="M356.723,410.515
		c1.097,4.366,6.699,22.966-10.658,30.248"/>
	<path fill="none" stroke="#FFFFFF" stroke-width="2" stroke-miterlimit="10" d="M321.029,405.046
		c-2.577,6.255-28.704,38.581-42.361,29.456"/>
	<path fill="none" stroke="#FFFFFF" stroke-width="2" stroke-miterlimit="10" d="M331.149,429.133
		c5.437,6.982-17.71,36.568-39.473,27.34"/>
	<path fill="none" stroke="#FFFFFF" stroke-width="2" stroke-miterlimit="10" d="M231.683,165.566
		c-6.814,30.114-27.773,163.97,100.27,188.837"/>
	<path fill="none" stroke="#FFFFFF" stroke-width="2" stroke-linecap="round" stroke-linejoin="round" stroke-miterlimit="10" d="
		M398.737,199.547c-11.809,10.735-22.6,22.547-49.321,11.811c0,0-26.911,11.81-39.435-1.074"/>
	<path fill="none" stroke="#FFFFFF" stroke-width="2" stroke-linecap="round" stroke-linejoin="round" stroke-miterlimit="10" d="
		M331.953,220.305c4.512,3.58,25.985,8.949,34.935-1.788"/>
	<path fill="none" stroke="#FFFFFF" stroke-width="2" stroke-linecap="round" stroke-linejoin="round" stroke-miterlimit="10" d="
		M330.022,185.589c5.727,3.221,15.528,9.307,19.394,10.736l17.472-12.882"/>
	
		<line fill="none" stroke="#FFFFFF" stroke-width="2" stroke-linecap="round" stroke-linejoin="round" stroke-miterlimit="10" x1="349.416" y1="196.326" x2="349.416" y2="211.358"/>
	<path fill="none" stroke="#FFFFFF" stroke-width="2" stroke-linecap="round" stroke-linejoin="round" stroke-miterlimit="10" d="
		M321.078,203.843c-7.159,2.506-67.576,45.972-74.443,64.417"/>
	<path fill="none" stroke="#FFFFFF" stroke-width="2" stroke-linecap="round" stroke-linejoin="round" stroke-miterlimit="10" d="
		M321.078,196.326c-14.674,3.938-83.749,51.537-99.498,78.378"/>
	<path fill="none" stroke="#FFFFFF" stroke-width="2" stroke-linecap="round" stroke-linejoin="round" stroke-miterlimit="10" d="
		M312.844,192.39c-7.871,1.074-60.48,5.726-103.785,41.515"/>
	<path fill="none" stroke="#FFFFFF" stroke-width="2" stroke-linecap="round" stroke-linejoin="round" stroke-miterlimit="10" d="
		M308.55,196.326c-11.093,1.79-90.185,42.232-108.441,75.514"/>
	<path fill="none" stroke="#FFFFFF" stroke-width="2" stroke-linecap="round" stroke-linejoin="round" stroke-miterlimit="10" d="
		M382.634,202.053c11.45-5.369,26.123-7.603,89.112,37.893"/>
	<path fill="none" stroke="#FFFFFF" stroke-width="2" stroke-linecap="round" stroke-linejoin="round" stroke-miterlimit="10" d="
		M390.865,192.39c16.816-1.073,43.662,2.862,95.2,41.515"/>
	<path fill="none" stroke="#FFFFFF" stroke-width="2" stroke-linecap="round" stroke-linejoin="round" stroke-miterlimit="10" d="
		M390.865,183.444c18.965,0.358,72.292,12.524,118.816,52.609"/>
	<path fill="none" stroke="#FFFFFF" stroke-width="2" stroke-linecap="round" stroke-linejoin="round" stroke-miterlimit="10" d="
		M395.559,183.719c18.209-1.349,72.251,13.681,88.716,20.124"/>
	<path fill="none" stroke="#FFFFFF" stroke-width="2" stroke-linecap="round" stroke-linejoin="round" stroke-miterlimit="10" d="
		M412.336,111.507c-38.651-3.221-39.009,20.042-41.87,32.568c0,0-1.073,4.293,2.861,3.936c3.938-0.358,3.222-8.589,12.885-5.368
		c9.664,3.22,30.995-6.012,21.116-25.767c-3.58-7.161-13.957-5.673-20.702-2.04"/>
	<path fill="none" stroke="#FFFFFF" stroke-width="2" stroke-linecap="round" stroke-linejoin="round" stroke-miterlimit="10" d="
		M378.905,120.742c-0.567,7.585-1.777,16.306,5.628,21.431"/>
	
		<polyline fill="none" stroke="#FFFFFF" stroke-width="2" stroke-linecap="round" stroke-linejoin="round" stroke-miterlimit="10" points="
		436.011,167.553 436.011,158.033 427.19,160.537 427.19,149.442 417.705,152.306 417.705,144.075 406.255,148.032 410.546,139.421 
		402.69,139.421 	"/>
	<path fill="none" stroke="#FFFFFF" stroke-width="2" stroke-linecap="round" stroke-linejoin="round" stroke-miterlimit="10" d="
		M396.407,111.871l-14.906-41.162L374.4,82.161c0,0-8.232-10.382-7.513-12.885c0.713-2.505-8.236,8.948-8.236,11.096
		c0,2.147-9.235-11.452-9.235-11.452l-3.647,17.177l-9.304-13.956l-6.442,16.461l-8.944-13.6c0,0-14.674,4.653-16.105,2.505
		c-1.431-2.147-10.021-2.505-13.244,3.581c-3.222,6.081-13.601-11.095-20.401,10.735l-6.798-1.429c0,0-1.073,13.599-3.579,14.312
		c-2.507,0.718-3.58-8.949-14.316,0.718l-2.862-4.295l-14.444,10.075"/>
	<path fill="none" stroke="#FFFFFF" stroke-width="2" stroke-linecap="round" stroke-linejoin="round" stroke-miterlimit="10" d="
		M269.54,123.674c4.65-0.716,43.329-20.399,51.539,25.589c1.212,6.808-4.832,5.728-6.265,0.798
		c-1.009-3.474-11.799-6.158-13.888-4.722"/>
	<path fill="none" stroke="#FFFFFF" stroke-width="2" stroke-linecap="round" stroke-linejoin="round" stroke-miterlimit="10" d="
		M286.539,119.144c-10.02,0.693-10.917,20.502-2.685,26.361c10.847,7.722,37.022-7.005,23.436-21.528"/>
	<path fill="none" stroke="#FFFFFF" stroke-width="2" stroke-linecap="round" stroke-linejoin="round" stroke-miterlimit="10" d="
		M453.138,18.098l-40.802,32.925l14.854,3.222l-14.854,7.157l20.402,1.79l-5.548,8.587l15.209,13.602
		C442.399,85.381,474.254,61.402,453.138,18.098z"/>
	<path fill="none" stroke="#FFFFFF" stroke-width="2" stroke-linecap="round" stroke-linejoin="round" stroke-miterlimit="10" d="
		M269.183,59.972l-15.03,2.862l15.03,3.221l-18.968,15.746l16.462-4.294c0,0-12.884,11.453-10.02,15.747
		c0,0-17.37,0.165-23.265,7.515c0,0-12.171-14.672-10.382-26.839c1.794-12.17-9.302-25.052-1.789-33.285
		c7.517-8.231-3.576-22.547,5.369-18.251C235.539,26.687,269.183,59.972,269.183,59.972z"/>
</g>
</svg>
