<?xml version="1.0" encoding="utf-8"?>
<!-- Generator: Adobe Illustrator 16.0.0, SVG Export Plug-In . SVG Version: 6.00 Build 0)  -->
<!DOCTYPE svg PUBLIC "-//W3C//DTD SVG 1.1//EN" "http://www.w3.org/Graphics/SVG/1.1/DTD/svg11.dtd">
<svg version="1.1" id="Layer_1" xmlns="http://www.w3.org/2000/svg" xmlns:xlink="http://www.w3.org/1999/xlink" x="0px" y="0px"
	 width="588.5px" height="478.404px" viewBox="-71.5 0 588.5 478.404" enable-background="new -71.5 0 588.5 478.404"
	 xml:space="preserve">
<g>
	<path fill="none" stroke="#FFFFFF" stroke-width="2" stroke-miterlimit="10" d="M245.919,184.874
		c-17.187-13.909-22.745-41.157-18.449-56.546c3.231-11.581,2.701-15.748,2.701-15.748c-34.356-55.113-14.989-99.649-3.58-103.071
		c3.58-1.073,50.104,61.558,75.877,49.389c25.767-12.168,10.376-2.505,19.326-5.011c8.944-2.506,33.64-5.01,51.892-2.147
		c18.25,2.863,26.125-9.662,33.644-13.958c7.513-4.294,33.281-22.547,36.146-24.695c2.862-2.147,9.664-11.094,13.956-11.094
		c4.296,0,26.129,60.842-2.503,91.441c0,0,3.219,36.684-28.989,93.588c0,0,0.358,21.475-0.715,42.947
		c-1.14,22.828-13.865,43.889-27.2,58.338c-25.771,27.913-61.932,52.584-68.715,71.574c-1.789,5.012-15.746,26.487-6.803,49.748
		c8.95,23.259,6.803,17.18,13.96,24.34c7.159,7.159,12.168,6.438,18.253,13.236c6.081,6.802,2.147,8.95,0,11.455
		c0,0,4.652,5.727-2.507,7.875c0,0-10.021,12.521-15.746,8.946c0,0-19.684,9.308-31.134-8.591c0,0-4.652-4.294-8.59-6.441
		s-10.739-9.308-11.455-12.886c0,0-37.219,29.352-62.275,25.771c-25.048-3.579-37.219,0.716-41.511,1.432
		c-4.299,0.717-128.484,3.131-152.462-99.136c-2.652-11.317-25.407-54.758-23.621-81.245c2.913-43.155,7.048-77.256,26.484-106.649
		c29.347-44.378,72.528-67.539,135.285-57.978c25.694,3.916,35.787,10.378,59.17,4.581"/>
	<path fill="none" stroke="#FFFFFF" stroke-width="2" stroke-miterlimit="10" d="M126.384,427.525
		c6.443,18.354,80.169,31.012,143.156-1.913"/>
	<path fill="none" stroke="#FFFFFF" stroke-width="2" stroke-miterlimit="10" d="M249.427,434.523
		c-11.193-12.686-18.604-18.888-24.268-28.299c-6.082-10.105-42.227-14.669-36.321-61.553c0,0,25.727,45.856,50.639,48.316
		c4.296,0.423,9.004,15.059,14.936,21.813c6.319,7.191,9.76,1.811,13.854,7.973c4.23,6.365,6.893,9.222,10.4,11.728
		c4.645,3.32,4.473,8.949,6.618,13.062"/>
	<path fill="none" stroke="#FFFFFF" stroke-width="2" stroke-miterlimit="10" d="M348.534,334.976
		c-8.368,16.914-4.556,73.696,10.715,76.562c15.271,2.862,16.704-2.382,19.565,0c2.861,2.388,5.25,9.071,2.148,10.262
		c0,0,10.973,10.266-3.102,15.75c0,0-7.396,13.094-15.987,8.454c0,0-3.763,3.013-6.056,2.525"/>
	<path fill="none" stroke="#FFFFFF" stroke-width="2" stroke-miterlimit="10" d="M356.723,410.515
		c1.098,4.366,6.699,22.967-10.658,30.248"/>
	<path fill="none" stroke="#FFFFFF" stroke-width="2" stroke-miterlimit="10" d="M321.029,405.046
		c-2.577,6.255-28.704,38.581-42.361,29.456"/>
	<path fill="none" stroke="#FFFFFF" stroke-width="2" stroke-miterlimit="10" d="M331.148,429.133
		c5.438,6.982-17.709,36.568-39.473,27.34"/>
	<path fill="none" stroke="#FFFFFF" stroke-width="2" stroke-miterlimit="10" d="M231.683,165.566
		c-6.814,30.114-27.773,163.97,100.27,188.837"/>
	<path fill="none" stroke="#FFFFFF" stroke-width="2" stroke-linecap="round" stroke-linejoin="round" stroke-miterlimit="10" d="
		M398.737,199.547c-11.81,10.735-22.601,22.547-49.321,11.811c0,0-26.911,11.81-39.436-1.074"/>
	<path fill="none" stroke="#FFFFFF" stroke-width="2" stroke-linecap="round" stroke-linejoin="round" stroke-miterlimit="10" d="
		M331.953,220.305c4.512,3.58,25.984,8.949,34.936-1.788"/>
	<path fill="none" stroke="#FFFFFF" stroke-width="2" stroke-linecap="round" stroke-linejoin="round" stroke-miterlimit="10" d="
		M330.021,185.589c5.728,3.221,15.528,9.307,19.395,10.736l17.473-12.882"/>
	
		<line fill="none" stroke="#FFFFFF" stroke-width="2" stroke-linecap="round" stroke-linejoin="round" stroke-miterlimit="10" x1="349.416" y1="196.326" x2="349.416" y2="211.358"/>
	<path fill="none" stroke="#FFFFFF" stroke-width="2" stroke-linecap="round" stroke-linejoin="round" stroke-miterlimit="10" d="
		M321.078,203.843c-7.159,2.506-67.576,45.973-74.443,64.417"/>
	<path fill="none" stroke="#FFFFFF" stroke-width="2" stroke-linecap="round" stroke-linejoin="round" stroke-miterlimit="10" d="
		M321.078,196.326c-14.674,3.938-83.749,51.536-99.498,78.378"/>
	<path fill="none" stroke="#FFFFFF" stroke-width="2" stroke-linecap="round" stroke-linejoin="round" stroke-miterlimit="10" d="
		M312.844,192.39c-7.871,1.074-60.479,5.726-103.785,41.515"/>
	<path fill="none" stroke="#FFFFFF" stroke-width="2" stroke-linecap="round" stroke-linejoin="round" stroke-miterlimit="10" d="
		M308.55,196.326c-11.093,1.79-90.185,42.232-108.441,75.514"/>
	<path fill="none" stroke="#FFFFFF" stroke-width="2" stroke-linecap="round" stroke-linejoin="round" stroke-miterlimit="10" d="
		M382.634,202.053c11.45-5.369,26.123-7.603,89.112,37.894"/>
	<path fill="none" stroke="#FFFFFF" stroke-width="2" stroke-linecap="round" stroke-linejoin="round" stroke-miterlimit="10" d="
		M390.865,192.39c16.815-1.073,43.662,2.862,95.2,41.515"/>
	<path fill="none" stroke="#FFFFFF" stroke-width="2" stroke-linecap="round" stroke-linejoin="round" stroke-miterlimit="10" d="
		M390.865,183.444c18.965,0.358,72.292,12.524,118.815,52.609"/>
	<path fill="none" stroke="#FFFFFF" stroke-width="2" stroke-linecap="round" stroke-linejoin="round" stroke-miterlimit="10" d="
		M395.559,183.719c18.209-1.349,72.251,13.681,88.717,20.124"/>
	<path fill="none" stroke="#FFFFFF" stroke-width="2" stroke-linecap="round" stroke-linejoin="round" stroke-miterlimit="10" d="
		M412.336,111.507c-38.65-3.221-39.009,20.042-41.87,32.568c0,0-1.073,4.293,2.861,3.936c3.938-0.358,3.222-8.589,12.885-5.368
		c9.664,3.22,30.995-6.012,21.116-25.767c-3.58-7.161-13.957-5.673-20.702-2.04"/>
	<path fill="none" stroke="#FFFFFF" stroke-width="2" stroke-linecap="round" stroke-linejoin="round" stroke-miterlimit="10" d="
		M378.904,120.742c-0.566,7.585-1.776,16.306,5.629,21.431"/>
	
		<polyline fill="none" stroke="#FFFFFF" stroke-width="2" stroke-linecap="round" stroke-linejoin="round" stroke-miterlimit="10" points="
		436.011,167.553 436.011,158.033 427.19,160.537 427.19,149.442 417.705,152.306 417.705,144.075 406.255,148.032 410.546,139.421 
		402.69,139.421 	"/>
	<path fill="none" stroke="#FFFFFF" stroke-width="2" stroke-linecap="round" stroke-linejoin="round" stroke-miterlimit="10" d="
		M396.407,111.871l-14.906-41.162L374.4,82.161c0,0-8.232-10.382-7.514-12.885c0.713-2.505-8.236,8.948-8.236,11.096
		c0,2.147-9.234-11.452-9.234-11.452l-3.646,17.177l-9.305-13.956l-6.441,16.461l-8.944-13.6c0,0-14.674,4.653-16.104,2.505
		c-1.432-2.147-10.021-2.505-13.244,3.581c-3.223,6.081-13.602-11.095-20.401,10.735l-6.798-1.429c0,0-1.073,13.599-3.579,14.312
		c-2.507,0.718-3.58-8.949-14.316,0.718l-2.862-4.295l-14.444,10.075"/>
	<path fill="none" stroke="#FFFFFF" stroke-width="2" stroke-linecap="round" stroke-linejoin="round" stroke-miterlimit="10" d="
		M269.54,123.674c4.649-0.716,43.329-20.399,51.539,25.589c1.212,6.808-4.832,5.728-6.265,0.798
		c-1.01-3.474-11.799-6.158-13.889-4.722"/>
	<path fill="none" stroke="#FFFFFF" stroke-width="2" stroke-linecap="round" stroke-linejoin="round" stroke-miterlimit="10" d="
		M286.539,119.144c-10.02,0.693-10.917,20.502-2.686,26.361c10.848,7.722,37.022-7.005,23.437-21.528"/>
	<path fill="none" stroke="#FFFFFF" stroke-width="2" stroke-linecap="round" stroke-linejoin="round" stroke-miterlimit="10" d="
		M453.138,18.098l-40.802,32.925l14.854,3.222l-14.854,7.157l20.402,1.79l-5.548,8.587l15.209,13.602
		C442.399,85.381,474.254,61.402,453.138,18.098z"/>
	<path fill="none" stroke="#FFFFFF" stroke-width="2" stroke-linecap="round" stroke-linejoin="round" stroke-miterlimit="10" d="
		M269.184,59.972l-15.031,2.862l15.031,3.221l-18.969,15.746l16.462-4.294c0,0-12.884,11.453-10.02,15.747
		c0,0-17.37,0.165-23.265,7.515c0,0-12.171-14.672-10.382-26.839c1.794-12.17-9.302-25.052-1.789-33.285
		c7.517-8.231-3.576-22.547,5.369-18.251C235.539,26.687,269.184,59.972,269.184,59.972z"/>
</g>
<g>
	<path fill="#FFFFFF" d="M-54.75,209.171c-1.912-0.271-3.754,1.592-4.853,2.887c-2.776,3.272-3.609,6.547-1.903,10.552
		c1.066,2.505,3.954,5.416,3.954,5.416c1.751-1.759,2.757-2.08,4.083-3.074c-1.815-1.597-3.18-3.411-3.546-5.124
		c-0.461-2.156,0.766-3.938,2.481-5.968C-53.581,212.731-52.62,209.849-54.75,209.171z"/>
	<path fill="#FFFFFF" d="M-10.805,216.885c-6.385-1.143-6.19-4.576-5.002-6.19c1.873-2.549,7.841,0.285,12.182,10.641
		c3.603,8.595,3.489,18.452-4.71,23.033c-8.199,4.582-14.225-2.31-16.915-5.916c-4.003-5.361-12.167-14.083-19.751-13.583
		c-6.57,0.433-11.073,4.229-12.928,7c-1.796,2.68-3.737,8.076-0.483,13.833c3.188,5.642,10.368,5.329,13.067,3.98
		c4.1-2.051,5.094-5.149,5.011-8.732c-0.114-4.93-4.85-8.81-4.85-8.81c-2.317,0.143-4.483,2.893-4.483,2.893s3.833,1.167,4,7
		c0.084,2.962-4.501,5.085-7.112,2.766c-2.941-2.612-2.563-5.931-1.245-8.864c0.472-1.05,5.501-11.468,16.758-2.65
		c3.02,2.365,3.47,3.255,9.829,11.782c7.577,10.165,27.35,7.832,30.445-6.356c2.914-13.363-2.094-20.395-5.909-25.803
		c-2.509-3.56-10.973-12.542-16.82-4.522c-1.683,2.308-1.379,6.521,2.231,9.707c4.1,3.617,10.366,2.566,10.366,2.566
		c-0.64-2.138-1.876-3.893-1.876-3.893S-9.868,217.054-10.805,216.885z"/>
	<path fill="#FFFFFF" d="M0.831,214.361c0,0,5.271,0.277,6.999-6.758c2.087-8.495-8.102-14.471-9.285-15.073
		c-1.096-0.557-6.26-3.158-9.766-5.908c-5.125-4.021-9.647-13.867-3.498-20.738c6.149-6.874,14.769-4.1,22.638-1.448
		c7.869,2.652,13.294-1.326,13.656-5.909c0.363-4.581-3.45-9.576-7.597-6.631c-4.077,2.895-0.59,8.615-0.206,9.356
		c0,0-2.272,1.325-5.522,0.825c0,0-5.808-12.51,6.089-15.556c7.094-1.813,12.272,5.741,11.911,10.806
		c-0.42,5.867-3.312,15.671-22.14,10.606c-18.829-5.064-17.123,5.967-17.141,7.235c-0.042,3.187,4.688,7.861,8.2,9.766
		c3.365,1.826,6.96,3.414,12.146,7.755c5.185,4.34,13.046,20.171-3.992,26.09C3.323,218.779,1.837,216.127,0.831,214.361z"/>
	<path fill="#FFFFFF" d="M14.25,173.077c0,0,3.857,0.125,8-2.625c0,0,3.5,3.375,9.726-5.112c2.221-3.028,4.396-5.887,5.95-13.342
		l5.624,1.227c-1.49,5.593-4.801,12.783-8.177,17.101C30.171,176.98,20.283,180.844,14.25,173.077z"/>
	<path fill="#FFFFFF" d="M57.25,125.765c0,0,2.755,16.268-10.188,19.312c-3.137,0.738-9.594-1.183-11.562-4.25
		c-1.663-2.59-2.188-6.5-0.375-7.875c2.271-1.723,5.956-0.735,6.081,7.265c0,0,2.789,1.137,5.419,0.173
		c-0.237-3.131-0.859-14.749-11.304-13.695c-6.884,0.695-8.802,7.839-6.029,14.711c2.774,6.873,13.692,11.121,21.403,8.923
		c14.088-4.019,12.252-24.267,12.252-24.267C60.121,126.082,57.25,125.765,57.25,125.765z"/>
	<path fill="#FFFFFF" d="M59.296,115.332c0,0,0.329-1.636-1.185-3.045c-1.115-1.038-2.986-0.647-3.424,0.853
		c-0.341,1.169,0.677,3.946,4.562,4.75c3.889,0.805,7.454,0.622,10.25-0.688c2.083-0.976,5.042-2.189,6.489-5.889
		c0.386-0.986,0.233-2.988-1.364-3.111c-3.25-0.25-1.75,4.062-1.75,4.062c-1.365,1.646-3.438,2.062-3.438,2.062
		s-2.312-4.355-0.062-7.25c2.252-2.894,6.119-2.582,7.438-2.125c1.625,0.562,4.5,3.375,3.068,7.5
		c-1.338,3.855-3.624,5.375-5.943,6.938c-2.875,1.938-9.131,4.146-14.188,3.312c-2.567-0.423-6.21-1.464-8.462-5
		c-2.25-3.538-0.955-8.438,2.962-9.625c2.189-0.664,6.182-0.252,7.9,3.335c1.112,2.323,0.876,4.415,0.876,4.415
		C60.272,116.19,59.296,115.332,59.296,115.332z"/>
	<path fill="#FFFFFF" d="M73.25,122.921c3.299,9.077,11.833,12.285,20.087,5.432c4.696-3.896,4.299-9.61,5.367-15.379
		c0.733-3.959,3.613-6.58,6.045-7.459c2.938-1.062,5.437-0.094,6.083-1.857c1.04-2.834-3.771-3.893-6.583-3.268
		c-9.078,2.017-9.694,10.45-10.688,15.333c-1.026,5.042-1.358,10.022-6.815,11.517c-5.87,1.608-8.097-3.922-9.222-6.984
		C75.992,121.59,73.25,122.921,73.25,122.921z"/>
	<path fill="#FFFFFF" d="M101.514,114.33c0,0,2,4.93,6.655,5.373c3.89,0.37,10.181-2.414,12.962-12.22
		c1.644-5.799,3.949-14.308,3.778-26.126c-0.069-4.811-0.308-15.47-4.186-15.04c-3.474,0.386-3.434,9.571-3.347,13.607
		c0.146,6.759,0.28,13.75,2.771,18.813c0,0-1.887,8.33-2.972,9.686c0,0-5.928-17.725-5.01-33.721
		c0.919-15.996,8.138-16.416,11.202-15.334c4.133,1.459,7.273,9.52,6.632,23.667c-0.791,17.435-2.494,28.513-8.585,35.823
		c-4.824,5.788-11.04,8.407-17.564,5.749c-2.644-1.077-3.343-2.914-3.343-2.914L101.514,114.33z"/>
	<path fill="#FFFFFF" d="M127.501,116.516c0,0,1.292-1.848,2.437-5.041c0,0,3.312,2.227,7.812,1.164l3,5.812
		C140.75,118.452,134.328,122.921,127.501,116.516z"/>
	<path fill="#FFFFFF" d="M148.604,92.361c0,0-7.854,1.091-9.167,10.653c-0.714,5.201,2.222,17.701,15.391,17.701
		c10.297,0,12.672-11.346,12.672-11.346s-4.154,0.246-5.823-0.551c0,0-1.365,4.479-4.573,5.478c-5.619,1.75-8.582-1.201-10.099-3.42
		c-2.339-3.423-3.737-9.258,0.534-12.238C147.54,98.637,147.621,95.004,148.604,92.361z"/>
	<path fill="#FFFFFF" d="M150.407,103.658c0,0-0.906,1.335-1.803,2.165c0,0,1.471,4.138,3.724,5.247
		c0.269-0.232,1.566-1.45,2.663-3.322C154.991,107.747,152.564,106.947,150.407,103.658z"/>
	<path fill="#FFFFFF" d="M167.5,99.209c0,0-0.438-2.319-2.125-4.569c-1.892-2.522-5.438-3.25-8.876-2.898
		c-3.076,0.315-4.388,2.023-4.937,3.263c-1.791,4.045,0.021,8.543,5.75,10.448c5.945,1.977,10.938,2.188,17.77,0.648
		c6.732-1.517,11.389-6.449,11.389-6.449l-2.847-3.742c0,0-2.312,2.23-5.187,3.73c-6.442,3.361-15.125,2.625-19.605,1.39
		c-3.52-0.97-4.52-4.328-1.145-5.328c3.834-1.136,4.775,3.256,4.775,3.256S165.571,99.812,167.5,99.209z"/>
	<path fill="#FFFFFF" d="M148.604,91.742"/>
	<path fill="#FFFFFF" d="M190.938,90.89c-0.211,0.995,2.208,3.463,4.563,6.229c2.08,2.441,2.624,4.146,2.624,4.146
		c-2.312,2.312-5.684,1.938-5.684,1.938s-0.51-1.938-1.878-3.816c-2.029-2.786-6.338-5.342-4.218-10.492
		c1.906-4.63,9.33-3.221,9.052,1.475c-0.189,3.204-2.557,3.789-2.557,3.789C190.031,91.296,190.938,90.89,190.938,90.89z"/>
	<path fill="#FFFFFF" d="M196.8,65.612c0.994,1.416,1.568,2.933,2.326,4.051c4.129,6.097,9.571,11.681,9.062,24.976
		c-0.509,13.306-7.476,15.127-11.189,15.902c-4.324,0.901-9.79,0.773-11.686,1.331c-1.865,0.548-2.562,2.331-1.125,3.644
		c1.692,1.545,6.188,1.812,7.631-1.893c0,0,3.682,0.081,6.25-0.644c0,0-1.255,10.742-14.4,8.427
		c-4.383-0.772-7.106-4.632-5.839-9.016c0.451-1.561,2.358-4.436,5.857-5.314c3.44-0.863,7.562-0.798,10.375-1.247
		c8.786-1.402,9.488-6.973,9.312-13.25c-0.25-8.938-1.909-9.75-10.188-23.657c-0.19-0.319-0.381-0.631-0.551-0.95
		C191.5,65.827,194.625,62.515,196.8,65.612z"/>
</g>
<g>
	<path fill="#999999" d="M-61.304,209.912c-1.944-0.274-3.816,1.621-4.933,2.935c-2.822,3.328-3.67,6.655-1.935,10.727
		c1.084,2.548,2.756,4.886,4.643,6.903c0.573,0.613,3.406-2.664,4.064-3.28c-1.846-1.625-3.848-3.919-4.142-6.448
		c-0.26-2.229,1.593-4.188,2.522-6.067C-60.42,213.333-59.138,210.602-61.304,209.912z"/>
	<path fill="#999999" d="M-16.627,217.758c-6.491-1.165-6.293-4.654-5.085-6.297c1.904-2.591,7.971,0.29,12.385,10.82
		c3.662,8.739,3.678,19.382-4.659,24.039c-8.334,4.657-14.669-1.973-17.407-5.64c-4.069-5.451-12.152-15.201-20.504-13.963
		c-6.622,0.979-9.604,3.668-11.49,6.485c-1.825,2.729-4.641,7.137-1.641,13.853c2.575,5.762,10.542,5.417,13.286,4.045
		c4.168-2.084,5.409-5.92,5.518-8.458c0.241-5.673-5.315-10.565-5.315-10.565c-3.36,0.245-4.891,2.873-4.891,2.873
		s5.182,1.602,4.934,7.736c-0.121,3.008-4.33,5.962-7.804,3.451c-3.242-2.342-2.606-6.03-1.266-9.012
		c0.48-1.067,5.593-11.658,17.038-2.696c3.071,2.406,3.529,3.31,9.992,11.98c7.704,10.333,27.806,7.963,30.952-6.464
		c2.964-13.585-2.128-20.735-6.006-26.233c-2.552-3.617-11.156-12.749-17.102-4.597c-1.71,2.346-1.401,6.631,2.269,9.868
		c4.167,3.678,11.338,2.697,11.338,2.697l1.233-0.088c-0.651-2.172-1.907-3.958-1.907-3.958S-15.674,217.927-16.627,217.758z"/>
	<path fill="#999999" d="M-5.814,216.206c0,0,6.375-0.735,8.132-7.888c2.123-8.637-8.236-14.71-9.439-15.323
		c-1.114-0.567-6.364-3.21-9.93-6.007c-5.209-4.087-9.806-14.098-3.555-21.084c6.252-6.987,15.016-4.168,23.016-1.471
		c8,2.697,13.515-1.348,13.883-6.007c0.368-4.658-3.432-10.296-7.723-6.742c-3.915,3.244,0.359,11.17,0.751,11.925
		c0,0-2.37,0.975-4.394,0.379c0,0-8.087-14.673,4.009-17.768c7.211-1.845,11.893,7.058,11.525,12.206
		c-0.426,5.965-2.784,14.71-21.925,9.561c-19.143-5.147-17.408,6.067-17.426,7.355c-0.042,3.24,4.767,7.993,8.336,9.929
		c3.421,1.858,7.076,3.47,12.348,7.884c5.271,4.413,12.249,21.526-5.075,27.544C-3.28,220.7-4.791,218.002-5.814,216.206z"/>
	<path fill="#999999" d="M10.228,171.542c0,0,3.639-0.259,6.397-2.435c0.739,0.471,3.856,4.029,10.242-3.755
		c2.421-2.95,4.763-7.682,6.343-15.261l4.413,1.47c0,0-0.794,9.694-7.6,18.142C26.468,174.117,16.361,179.443,10.228,171.542z"/>
	<path fill="#999999" d="M53.481,121.357c0,0,3.388,21.685-11.383,23.83c-3.245,0.472-10.639,1.307-14.526-7.233
		c-0.449-0.982-1.837-6.257,2.206-6.78c3.382-0.437,5.764,6.897,5.394,12.297c0,0,2.452,1.47,5.125,0.49
		c0,0-1.475-18.673-10.029-17.898c-8.048,0.73-8.949,7.969-6.129,14.957c2.819,6.987,13.92,11.308,21.759,9.071
		c14.322-4.087,12.312-27.787,12.312-27.787C55.336,122.325,53.481,121.357,53.481,121.357z"/>
	<path fill="#999999" d="M54.295,115.89c0,0,1.246-2.56-0.858-4.474c-1.144-1.042-2.697-0.338-3.024,0.668
		c-0.386,1.177,0.189,3.927,4.14,4.745c3.952,0.818,7.566,0.107,10.408-1.225c2.118-0.992,4.657-2.465,6.506-6.055
		c0.045-0.09,0.846-1.711-0.462-2.202c-1.307-0.49-1.813,1.178-1.977,1.723c-0.283,0.946,0.084,2.499,0.084,2.499
		c-0.536,1.409-2.742,2.513-2.742,2.513s-1.738-5.593,0.55-8.535c2.29-2.941,5.549-1.803,6.7-0.977
		c1.358,0.972,3.105,3.105,0.899,6.62c-2.207,3.513-4.414,5.557-6.702,7.273c-2.287,1.716-7.845,3.674-11.849,2.575
		c0,0-6.213-1.431-8.5-5.027c-2.289-3.596-0.168-7.801,2.721-8.763c2.206-0.736,5.607-0.368,7.354,3.279
		c1.131,2.361,0.746,5.852,0.746,5.852C55.49,116.747,54.295,115.89,54.295,115.89z"/>
	<path fill="#999999" d="M67.82,119.771c3.353,9.228,13.038,14.945,21.432,7.979c4.771-3.962,6.422-9.768,7.488-15.637
		c0.657-3.62,0.805-7.535,5.195-8.069c1.436-0.176,3.699,0.248,4.334-1.552c0.817-2.312-3.922-2.683-5.167-2.53
		c-7.834,0.957-7.508,9.035-9.123,14.876c-1.394,5.043-3.88,10.259-9.426,11.778c-5.971,1.635-9.138-5.525-11.585-9.685
		C69.933,118.45,67.82,119.771,67.82,119.771z"/>
	<path fill="#999999" d="M97.565,113.493c0,0,0.325,4.596,4.743,6.357c5.435,2.168,12.374-3.35,15.2-13.32
		c1.671-5.894,3.012-14.573,3.842-26.562c0.238-3.427,0.306-15.381-3.31-15.32c-3.568,0.06-5.046,5.824-4.72,12.689
		c0.327,6.863,1.911,19.52,4.444,24.67c0,0-1.257,5.681-2.359,7.06c0,0-6.826-18.835-5.891-35.098
		c0.933-16.263,9.322-14.162,11.284-13.304c1.989,0.871,5.801,6.456,5.148,20.839c-0.653,14.385-3.248,30.708-8.151,36.593
		c-4.905,5.883-10.79,9.52-17.857,5.843c-1.392-0.725-3.599-2.285-3.923-4.372L97.565,113.493z"/>
	<path fill="#999999" d="M121.381,113.957c0,0,1.348-2.572,1.868-5.637c0,0,3.559,4.308,8.143,4.759
		c3.319,0.328,8.11-1.868,8.11-1.868c1.288,2.728,2.87,4.095,2.87,4.095S132.332,122.535,121.381,113.957z"/>
	<path fill="#999999" d="M143.813,108.964c-1.59-2.723-4.383-12.535,0.583-13.363c1.506-0.25,3.292,1.22,2.727,5.73
		c-0.184,1.48-0.513,3.763-2.815,5.889c0,0,0.609,2.385,2.9,3.513c0,0,5.309-4.896,4.819-11.301
		c-0.354-4.601-1.912-8.769-7.479-8.734c-3.861,0.025-6.443,2.921-6.773,8.581c-0.269,4.62,1.218,17.551,14.588,18.265
		c11.404,0.609,13.301-11.789,13.301-11.789s-2.145,0.032-4.323-0.496c0,0-0.335,5.42-5.975,7.32
		C149.729,114.479,145.192,111.323,143.813,108.964z"/>
	<path fill="#999999" d="M166.94,99.594c0,0-0.219-5.747-2.617-8.215c-2.86-2.942-6.405-2.469-8.447-0.852
		c-2.625,2.078-2.873,4.774-1.386,7.615c3.324,6.354,10.282,7.211,17.811,6.169c7.982-1.105,12.956-6.196,12.956-6.196l-1.961-5.172
		c0,0-2.452,2.72-6.374,5.335c-3.923,2.616-11.932,3.759-16.02,1.754c-4.087-2.003-4.219-6.537-1.109-6.651
		c4.24-0.158,3.225,5.924,3.225,5.924S164.979,100.205,166.94,99.594z"/>
	<path fill="#999999" d="M145.438,90.527"/>
	<path fill="#999999" d="M189.857,92.352c0,0,2.224-0.704,2.532-3.953c0.375-3.972-7.448-6.16-8.581-0.766
		c-1.166,5.542,2.558,8.309,5.7,12.198c2.573,3.188,1.582,5.28,1.582,5.28s4.478-1.499,4.869-3.458c0,0-0.352-2.741-2.467-5.223
		c-2.395-2.811-5.669-5.945-5.454-6.957C188.037,89.472,188.404,91.065,189.857,92.352z"/>
	<path fill="#999999" d="M199.008,20.456c1.378,0.538,1.459,2.722,1.168,4.977c-0.604,4.695-3.623,11.179-5.759,14.506
		c-2.289,3.57-3.619,6.986-3.628,10.123c-0.014,6.704,3.297,14.011,6.011,18.019c4.198,6.2,8.853,11.492,8.336,25.008
		c-0.518,13.527-6.722,15.763-10.499,16.551c-4.396,0.917-12.437-1.268-14.632,1.591c-0.851,1.109-0.92,3.518,0.858,4.903
		c1.839,1.431,9.378,0.612,9.021-4.659c0,0,3.398,0.323,6.073-0.998c0,0-1.508,12.56-14.872,10.207
		c-4.458-0.785-7.225-4.709-5.935-9.166c0.456-1.588,2.361-4.151,5.284-4.946c3.153-0.857,7.478,0.185,10.339-0.273
		c8.933-1.425,10.439-8.615,10.07-14.988c-0.474-8.232-1.329-9.767-9.745-23.905c-8.417-14.139-4.294-24.062-2.022-28.194
		c2.54-4.618,5.317-6.758,5.578-12.075C194.775,24.699,195.391,19.046,199.008,20.456z"/>
</g>
<path fill="#999999" d="M23.879,113.858c0,0-1.181,1.667-3.691,1.5c-3.058-0.203-4.478-0.948-5.091-3.315
	c-0.253-0.978,0.001-2.536,0.655-3.47c0,0,0.917-2.827,1.751-5.205c0,0-2.179-0.215-3.784,0.958
	c-3.144,2.299-3.394,6.977-2.56,10.061c1.154,4.27,5.75,5.604,10.593,5.354c2.19-0.113,6.123-2.29,7.811-4.821
	C29.562,114.921,25.312,114.796,23.879,113.858z"/>
<path fill="none" stroke="#FFFFFF" stroke-width="0.5" stroke-miterlimit="10" d="M30.501,108.202"/>
<path fill="none" stroke="#FFFFFF" stroke-width="0.5" stroke-miterlimit="10" d="M21.492,108.573"/>
<path fill="#999999" d="M24.292,107.745c0,0-1.507,2.375-1.458,4.756c0,0,7.668,2.701,10.804-0.243
	c0.755-0.709,0.745-2.314-0.281-3.149c-0.823-0.67-2.084-0.657-3.405-0.535c-1.357,0.125-1.876,0.103-3.096,0
	C25.579,108.466,24.292,107.745,24.292,107.745z"/>
<path fill="#999999" d="M20.885,113.533c0,0,0.771-6.143,2.367-7.248c1.198-0.829,2.579-0.584,3.373,1.042
	c0,0,2.938,0.875,4.714-0.375c0,0-1.183-5.438-6.003-6.138c-3.259-0.473-5.662,1.603-6.833,3.843
	c-0.614,1.174-1.402,3.806-2.083,6.749C16.419,111.406,17.295,113.61,20.885,113.533z"/>
<path fill="#999999" d="M12.931,118.76l-0.797,0.987c-0.695,1.352-0.232,2.752,1.075,3.372c1.98,0.938,4.534-1.241,4.534-1.241
	s0.77-0.779,1.146-1.186C18.888,120.693,16.668,120.933,12.931,118.76z"/>
</svg>
