<?xml version="1.0" encoding="utf-8"?>
<!-- Generator: Adobe Illustrator 16.0.0, SVG Export Plug-In . SVG Version: 6.00 Build 0)  -->
<!DOCTYPE svg PUBLIC "-//W3C//DTD SVG 1.1//EN" "http://www.w3.org/Graphics/SVG/1.1/DTD/svg11.dtd">
<svg version="1.1" id="Layer_1" xmlns="http://www.w3.org/2000/svg" xmlns:xlink="http://www.w3.org/1999/xlink" x="0px" y="0px"
	 width="492px" height="478.404px" viewBox="0 0 492 478.404" enable-background="new 0 0 492 478.404" xml:space="preserve">
<g>
	<path fill="none" stroke="#FFFFFF" stroke-width="2" stroke-linecap="round" stroke-linejoin="round" stroke-miterlimit="10" d="
		M143.941,413.376l-19.693,27.744C57.905,427.301-8.165,304.907,7.674,255.493c0,0,43.714,37.693,64.624,73.176
		c20.903,35.476,51.633,96.934,51.95,112.452"/>
	<path fill="none" stroke="#FFFFFF" stroke-width="2" stroke-linecap="round" stroke-linejoin="round" stroke-miterlimit="10" d="
		M7.674,255.493C22.244,236.166,150.54,58.138,195.521,46.734c44.982-11.403,27.246-14.254,116.891-9.502
		c35.316,1.872,83.301-13.948,105.488,0.317c16.884,10.855,26.291,29.776,27.875,49.417c1.535,19.051,10.18,33.97,14.256,39.596
		c13.302,18.373,5.702,70.007-5.067,83.313c0,0-29.146-19.006-45.935,2.533c-16.789,21.541-21.859,49.104,9.503,61.455
		c31.362,12.355,57.021-42.766,36.432-63.988"/>
	<path fill="none" stroke="#FFFFFF" stroke-width="2" stroke-miterlimit="10" d="M447.505,206.046
		c-11.233,2.877-43.903,21.014-32.455,50.394c5.534,14.214,32.758,9.434,42.12-3.881c6.713-9.539-1.699-26.735-6.326-29.38
		c-11.088-6.337-24.214-7.06-29.144-0.706"/>
	<path fill="none" stroke="#FFFFFF" stroke-width="2" stroke-miterlimit="10" d="M421.7,275.65
		c-2.691,3.757-18.743,36.517-26.925,43.512c-6.49,5.549-9.837,11.434-16.646,21.421c-10.895,15.989-27.869,33.613-47.759,40.826"/>
	<path fill="none" stroke="#FFFFFF" stroke-width="2" stroke-miterlimit="10" d="M290.229,358.783
		c3.488-13.626,28.838-71.616,55.129-88.876c0,0-5.546-34.529,14.252-50.688"/>
	<path fill="none" stroke="#FFFFFF" stroke-width="2" stroke-miterlimit="10" d="M396.063,239.999
		c-5.883-3.833-42.516-16.915-36.454-28.065c0.924-1.692,1.775-2.637,3.959-4.432c2.695-2.219,31.643,6.081,43.786,7.13"/>
	<path fill="none" stroke="#FFFFFF" stroke-width="2" stroke-linecap="round" stroke-linejoin="round" stroke-miterlimit="10" d="
		M366.9,207.124c0.473-2.951,12.668-41.124,27.875-52.051"/>
	<path fill="none" stroke="#FFFFFF" stroke-width="2" stroke-linecap="round" stroke-linejoin="round" stroke-miterlimit="10" d="
		M381.449,171.781c-3.145-4.83-9.958-16.866-9.322-26.846c0.633-9.979-6.021-29.618-4.439-33.261"/>
	<path fill="none" stroke="#FFFFFF" stroke-width="2" stroke-miterlimit="10" d="M286.225,362.562
		c-18.794,17.524-21.658,9.541-28.299,15.626c-5.067,4.65-11.404,45.621,29.779,35.693c9.312-2.245,80.246-60.823,83.839-80.252
		c1.252-6.777-5.915-18.37-20.063-16.683C329.78,319.539,298.463,351.146,286.225,362.562z"/>
	<path fill="none" stroke="#FFFFFF" stroke-width="2" stroke-miterlimit="10" d="M275.209,371.298c0,0-12.903,33.547,13.84,42.078"
		/>
	<path fill="none" stroke="#FFFFFF" stroke-width="2" stroke-miterlimit="10" d="M269.785,414.798
		c-8.902,3.727-34.668,9.852-32.555,24.635c2.115,14.785,3.169,34.001,56.81,13.517c53.64-20.487,59.551-42.236,59.975-47.729
		c0.423-5.49-5.491-17.953-13.303-17.529c-7.813,0.424-15.055-2.015-19.447,1.67"/>
	<path fill="none" stroke="#FFFFFF" stroke-width="2" stroke-miterlimit="10" d="M255.063,420.312
		c-1.058,3.803-2.111,40.131,18.358,39.285"/>
	<path fill="none" stroke="#FFFFFF" stroke-width="2" stroke-miterlimit="10" d="M333.434,432.616
		c26.176-10.817,77.812-30.141,93.651-59.285c15.839-29.145,30.412-60.505,43.717-69.687c13.302-9.189,23.758-45.882,12.67-68.085
		c-11.087-22.2-22.521-37.842-22.521-37.842"/>
	<path fill="none" stroke="#FFFFFF" stroke-width="2" stroke-miterlimit="10" d="M473.545,301.321
		c1.061,14.038,7.708,44.452-12.879,62.188c-20.592,17.746-29.779,24.394-36.749,25.977c-6.969,1.587-13.13,2.78-13.13,2.78"/>
	<path fill="none" stroke="#FFFFFF" stroke-width="2" stroke-miterlimit="10" d="M310.75,312.996
		c-14.175-11.886-47.281-45.786-41.097-58.378"/>
	<path fill="none" stroke="#FFFFFF" stroke-width="2" stroke-miterlimit="10" d="M342.298,272.1
		c-7.712-10.275-38.28-57.715-49.681-50.498"/>
	<path fill="none" stroke="#FFFFFF" stroke-width="2" stroke-miterlimit="10" d="M309.271,279.249
		c9.508-7.213-6.351-35.642-17.769-60.029c-8.076-17.262-1.705-31.778-8.688-31.446c-12.287,0.579-28.06,14.631-27.263,22.894
		c0.795,8.264,11.891,57.853,40.391,76.665C298.476,289,309.271,279.249,309.271,279.249z"/>
	<path fill="none" stroke="#FFFFFF" stroke-width="2" stroke-miterlimit="10" d="M258.755,225.588
		c1.231-2.568,14.326-22.044,28.451-22.361"/>
	<path fill="none" stroke="#FFFFFF" stroke-width="2" stroke-linecap="round" stroke-linejoin="round" stroke-miterlimit="10" d="
		M367.446,203.227c-5.618-19.01-26.399-55.604-26.399-55.604s-12.478-11.875-2.025-32.148c0,0-18.513,22.093-26.839,26.252
		c-8.323,4.159-70.41,36.285-71.998,46.039c-1.581,9.753-13.303,105.419-12.033,121.579c1.264,16.154-22.32,79.265-62.552,76.73"/>
	<path fill="none" stroke="#FFFFFF" stroke-width="2" stroke-linecap="round" stroke-linejoin="round" stroke-miterlimit="10" d="
		M308.295,106.605c-4.119,4.118-69.315,66.439-67.285,79.31"/>
	<path fill="none" stroke="#FFFFFF" stroke-width="2" stroke-linecap="round" stroke-linejoin="round" stroke-miterlimit="10" d="
		M252.859,130.998c-1.582,6.651-7.319,46.564-11.897,53.219"/>
	<path fill="none" stroke="#FFFFFF" stroke-width="2" stroke-linecap="round" stroke-linejoin="round" stroke-miterlimit="10" d="
		M228.199,310.608c7.766-8.022,15.557-30.79,51.199-30.619c2.063,0.007-45.938-7.042-49.752,0.594"/>
	<path fill="none" stroke="#FFFFFF" stroke-width="2" stroke-linecap="round" stroke-linejoin="round" stroke-miterlimit="10" d="
		M195.521,46.734c-22.747,27.309-69.796,90.989-52.353,139.182c4.691,12.955,1.49,3.977,7.688,17.312
		c4.865,10.463-5.701,83.521,5.703,98.094"/>
	<path fill="none" stroke="#FFFFFF" stroke-width="2" stroke-linecap="round" stroke-linejoin="round" stroke-miterlimit="10" d="
		M116.645,155.073c0,7.287,24.731,53.172,35.488,55.415"/>
	<path fill="none" stroke="#FFFFFF" stroke-width="2" stroke-linecap="round" stroke-linejoin="round" stroke-miterlimit="10" d="
		M102.707,181.098c1.268,9.772,27.265,55.755,49.426,54.461"/>
	<path fill="none" stroke="#FFFFFF" stroke-width="2" stroke-linecap="round" stroke-linejoin="round" stroke-miterlimit="10" d="
		M156.559,301.321c-8.438,3.28-34.933,97.171,0,134.417c7.606,8.111,14.255-26.296,17.106-31.363
		c2.351-4.18-21.991-14.065-4.436-87.593C171.857,305.777,160.362,299.839,156.559,301.321z"/>
	<path fill="none" stroke="#FFFFFF" stroke-width="2" stroke-linecap="round" stroke-linejoin="round" stroke-miterlimit="10" d="
		M167.131,390.667c-4.553,3.893-19.478,22.016-17.739,35.26"/>
</g>
</svg>
