<?xml version="1.0" encoding="utf-8"?>
<!-- Generator: Adobe Illustrator 16.0.0, SVG Export Plug-In . SVG Version: 6.00 Build 0)  -->
<!DOCTYPE svg PUBLIC "-//W3C//DTD SVG 1.1//EN" "http://www.w3.org/Graphics/SVG/1.1/DTD/svg11.dtd">
<svg version="1.1" id="Layer_1" xmlns="http://www.w3.org/2000/svg" xmlns:xlink="http://www.w3.org/1999/xlink" x="0px" y="0px"
	 width="432px" height="478.404px" viewBox="0 0 432 478.404" enable-background="new 0 0 432 478.404" xml:space="preserve">
<g>
	<path fill="none" stroke="#FFFFFF" stroke-width="2" stroke-miterlimit="10" d="M305.104,203.523
		c15.549-5.326,27.846-11.17,32.229-15.343c17.899-17.024,25.34-34.752,8.912-59.407c-16.425-24.656-60.038-1.385-70.667,6.668
		l-3.585-7.243c14.878-15.386,61.995-27.623,81.106-8.517c23.474,23.474,8.06,54.084,1.196,65.883
		c-2.688,4.616-5.665,8.072-10.735,11.208c0,0-4.615,2.464-8.053,4.292c-3.438,1.824-24.566,10.857-26.713,11.713L305.104,203.523z"
		/>
	<path fill="none" stroke="#FFFFFF" stroke-width="2" stroke-miterlimit="10" d="M81.557,241.333c0,0-2.323-1.937-5.543-8.702
		c-3.223-6.766-4.511-7.09-11.275-7.732l-27.7-3.497c-5.796-0.346-7.891,0.125-8.613,1.45c-0.69,1.257-0.139,3.293-0.363,6.124
		c-0.012,0.141-0.026,0.289-0.041,0.434"/>
	<path fill="none" stroke="#FFFFFF" stroke-width="2" stroke-miterlimit="10" d="M25.963,248.958
		c0.666,3.732,2.514,6.991,6.567,8.794c0,0,5.724,2.479,7.01,2.485"/>
	<path fill="none" stroke="#FFFFFF" stroke-width="2" stroke-miterlimit="10" d="M131.882,242.3
		c-11.598,4.514-13.81,8.364-34.675,8.689c-20.873,0.318-17.328,0.318-22.16,6.115c-4.832,5.802-11.273,5.478-23.834,4.511
		c-12.561-0.968-17.521,1.231-15.142-19.005c1.936-16.423,2.601-12.011,25.445-10.948c5.764,0.266,9.181,0.983,11.469,2
		c1.174,0.526,5.966,5.431,6.248,5.732c3.544,3.862,9.616,5.263,20.698,3.619c9.134-1.354,23.484-2.466,28.049-10.437L131.882,242.3
		z"/>
	<path fill="none" stroke="#FFFFFF" stroke-width="2" stroke-miterlimit="10" d="M188.341,415.554
		c-10.924,2.962-33.138,8.3-40.181,6.248c-23.621-6.87-39.51-13.902-46.381-30.224c-5.169-12.274-11.227-30.009,8.242-49.359
		l-2.385-8.305c-40.628,32.619-16.528,66.303,6.381,86.489c15.494,13.654,44.343,11.818,72.266,4.239"/>
	<path fill="none" stroke="#FFFFFF" stroke-width="2" stroke-miterlimit="10" d="M333.342,287.153
		c5.608-0.648,6.529-0.848,9.36-1.488c30.92-6.977,38.221-6.436,53.68-23.613c15.461-17.181,24.051-41.662,15.035-55.401
		c-9.021-13.746-27.173-28.958-70.004-12.029c-1.384,0.545-2.735,1.103-4.058,1.665c-9.562,4.065-21.578,11.75-28.562,16.493
		L313.68,225c10.979-7.639,22.576-14.313,31.276-19.104c22.228-12.239,48.959-6.767,57.654,9.662
		c8.695,16.424-9.984,44.451-35.108,53.789c-9.836,3.657-21.744,5.414-37.034,7.858"/>
	<path fill="none" stroke="#FFFFFF" stroke-width="2" stroke-miterlimit="10" d="M117.114,336.206
		c5.712-4.418,12.943-8.959,22.028-13.61c15.963-8.165,39.211-15.861,63.041-20.542l-5.748-7.117
		c-1.351,0.367-1.362,0.274-2.682,0.642c-36.543,10.218-61.854,21.289-78.768,32.596"/>
	<path fill="none" stroke="#FFFFFF" stroke-width="2" stroke-miterlimit="10" d="M212.111,316.095
		c-17.059,17.564-33.255,32.271-38.613,34.413c-12.882,5.16-29.203,16.324-51.534-7.727c-22.333-24.046,12.781-66.505,31.677-73.154
		l-10.895-6.183c-31.122,27.386-45.797,56.148-29.051,86.745c16.751,30.602,64.097,12.881,75.049,4.833
		c4.242-3.114,16.796-15.129,29.803-29.039L212.111,316.095z"/>
	<path fill="none" stroke="#FFFFFF" stroke-width="2" stroke-miterlimit="10" d="M196.949,421.466
		c27.176-8.64,50.611-21.396,59.111-29.724c1.604-1.575,4.938-5.346,7.334-7.449l-7.045-7.608c-4.14,3.673-8.847,8.213-9.951,9.311
		c-6.138,6.111-25.732,16.866-46.525,25.292"/>
	<path fill="none" stroke="#FFFFFF" stroke-width="2" stroke-miterlimit="10" d="M250.604,370.15
		c-7.771,2.133-17.547,4.899-23.53,6.775c-43.037,13.484-50.568,65.062-31.391,81.162c53.638,45.046,100.962-6.761,118.356-22.211
		c6.45-5.725,14.583-9.687,22.772-12.223l-4.783-6.646c-6.135,2.229-13.112,5.812-19.812,11.23
		c-20.187,16.322-51.539,39.941-67.854,37.791c-16.321-2.146-31.422-1.91-44.487-23.188c-6.193-10.089-4.237-21.521,0.951-31.58
		c5.756-11.149,15.49-20.607,22.489-24.682c3.552-2.057,18.513-6.229,33.035-9.899L250.604,370.15z"/>
	<path fill="none" stroke="#FFFFFF" stroke-width="2" stroke-miterlimit="10" d="M352.611,354.061
		c10.646-2.62,17.638-4.533,21.869-6.125c20.613-7.729,61.84-41.656,51.531-57.116c-10.304-15.463-23.62-15.463-52.392-2.146
		c-10.845,5.021-21.312,11.553-33.521,20.188l4.125,13.155c17.846-13.107,30.978-22.213,35.838-24.646
		c13.528-6.767,27.696-14.496,35.753-3.541c8.049,10.946-22.548,33.176-34.466,40.581c-3.759,2.336-13.988,4.892-30.627,9.352
		L352.611,354.061z"/>
	<path fill="none" stroke="#FFFFFF" stroke-width="2" stroke-miterlimit="10" d="M9.662,231.439c0.197-3.97,4.509-2.03,9.983-1.708
		c5.477,0.325,14.789-0.322,14.162,3.541c-0.635,3.869-4.16,4.189-12.059,2.9C13.85,234.88,9.342,237.979,9.662,231.439z"/>
	<path fill="none" stroke="#FFFFFF" stroke-width="2" stroke-miterlimit="10" d="M29.623,243.258
		c0.102,4.187,1.288,6.442-9.179,5.479c-10.465-0.971-12.433-0.326-12.095-5.479c0.339-5.154-1.273-2.692,8.713-2.313
		C27.047,241.319,29.585,241.64,29.623,243.258z"/>
	<path fill="none" stroke="#FFFFFF" stroke-width="2" stroke-miterlimit="10" d="M26.595,236.851
		c-0.279,1.476-0.541,3.039-0.716,4.616"/>
	<path fill="none" stroke="#FFFFFF" stroke-width="2" stroke-miterlimit="10" d="M301.721,404.133
		c-12.576,0-24.099-5.253-34.248-15.613c-31.845-32.502-46.603-58.939-45.981-57.816c5.118,8.403-20.681-35.084-31.664-41.95
		c-3.565-2.229-6.213-4.729-8.777-7.146c-4.917-4.638-9.565-9.021-20.25-10.666c-17.884-2.752-19.415-4.541-32.816-38.358
		c-1.173-2.956-2.245-5.72-3.246-8.291c-10.451-26.858-12.937-33.236-39.811-40.676c-27.592-7.626-36.627-59.35-40.487-81.433
		c-0.509-2.917-0.91-5.213-1.243-6.737c-1.498-6.904-3.866-18.134-4.158-19.519c-0.447-1.126-1.822-5.159,0.72-6.682
		c1.775-1.069,1.622-1.586,1.54-1.862c-0.691-2.306,1.466-3.847,2.757-4.77c0.261-0.191,0.594-0.427,0.705-0.538
		c0.562-0.563,7.203-8.066,11.526-12.97l0.395-0.452l0.597-0.08c0.591-0.097,2.002-0.534,1.833-2.451
		c-0.125-1.432,0.137-2.478,0.799-3.2c0.861-0.94,2.069-0.94,2.467-0.94c0.205,0,0.418,0.009,0.632,0.02
		c0.203,0.011,0.449,0.016,0.564,0.011c0.147-0.142,0.372-0.409,0.543-0.614c0.764-0.916,1.811-2.166,3.399-2.166
		c0.416,0,0.819,0.088,1.208,0.261c-0.015-0.028-0.032-0.062-0.048-0.091c-1.388-2.308,0.906-3.687,1.66-4.139
		c0.185-0.108,0.439-0.268,0.585-0.375c0.199-0.87,0.838-1.76,1.564-2.774c0.287-0.398,0.719-1.001,0.948-1.404
		c-0.215-0.415-0.235-0.843-0.076-1.28c0.11-0.296,0.474-0.995,1.515-1.074c0.358-0.029,1.691-0.392,3.985-3.871
		c2.399-3.656,3.892-4.724,5.208-5.668c0.915-0.659,1.641-1.177,2.695-2.728c0.943-1.388,1.751-2.24,2.871-2.24
		c0.247,0,0.466,0.04,0.657,0.111c0.039-0.066,0.082-0.137,0.127-0.211c0.577-0.958,1.328-2.027,2.32-2.481
		c0.051-0.769,0.26-1.643,0.903-2.372c0.859-0.978,2.249-1.471,4.37-1.565c0.319-0.014,0.537-0.038,0.674-0.06
		c0.416-1.239,1.254-2.217,3.785-2.938c1.667-0.475,1.921-0.888,2.221-1.365c0.747-1.2,1.589-1.882,3.886-2.076
		c0.294-0.022,0.576-0.033,0.84-0.033c3.726,0,4.995,2.256,6.111,4.252c0.165,0.296,0.335,0.6,0.521,0.909
		c0.06,0.1,0.14,0.233,0.237,0.404c4.487,7.731,18.099,26.77,47.527,36.58l0.276,0.122c3.751,2.091,14.364,7.523,18.378,7.523
		c2.405,0,3.414,0.532,4.69,1.203c1.825,0.955,4.878,2.564,16.619,4.127c11.248,1.5,15.566,6.515,21.032,12.87
		c4.319,5.017,9.698,11.262,20.344,17.791l0.25,0.15l0.179,0.23c0.478,0.614,11.769,15.105,16.553,23.376l4.177,7.072l3.274,5.893
		c0.785,1.563,19.25,38.363,23.099,48.633c3.812,10.17,26.81,67.51,27.043,68.087l0.051,0.154l14.813,51.213
		c0.613,1.919,15.302,48.034,16.14,52.312c0.123,0.629,0.271,1.312,0.42,2.039c2.257,10.844,6.955,33.385-16.553,46.635
		C333.105,393.627,319.523,404.133,301.721,404.133z"/>
	<path fill="none" stroke="#FFFFFF" stroke-width="2" stroke-miterlimit="10" d="M131.469,142.945c0,0-55.478-6.714-65.333-23.046
		c-3.198-5.299-3.198-5.299-3.198-5.299"/>
	<path fill="#EA0606" stroke="#FFFFFF" stroke-width="2" stroke-miterlimit="10" d="M327.141,385.994"/>
	<path fill="none" stroke="#FFFFFF" stroke-width="2" stroke-miterlimit="10" d="M194.544,54.397c0,0-5.8-6.003-35.431,12.678
		c-29.632,18.68-36.722,41.874-32.211,61.198c4.51,19.328,30.278,78.586,39.297,97.915c9.015,19.325,18.035,34.786,36.715,39.293
		c18.682,4.509,32.855,41.229,40.585,55.396c7.728,14.172,40.942,83.104,80.278,64.8c11.192-5.211,20.293-9.248,25.045-28.724
		c0,0,1.938-12,1.013-16.514"/>
	<path fill="none" stroke="#FFFFFF" stroke-width="2" stroke-miterlimit="10" d="M82.589,182.95
		c-25.978-9.574-34.658-59.248-38.421-80.771c-0.51-2.917-0.911-5.213-1.243-6.737c-1.497-6.904-3.868-18.134-4.158-19.519
		c-0.446-1.126-1.824-5.159,0.716-6.682c1.78-1.069,1.625-1.586,1.541-1.862c-0.688-2.303,1.47-3.847,2.757-4.77
		c0.268-0.191,0.598-0.424,0.711-0.538c0.562-0.563,7.201-8.066,11.524-12.97l0.398-0.452l0.594-0.08
		c0.594-0.097,1.998-0.534,1.833-2.451c-0.125-1.432,0.136-2.478,0.798-3.2c0.861-0.94,2.07-0.94,2.464-0.94
		c0.21,0,0.422,0.009,0.632,0.02c0.207,0.011,0.452,0.016,0.568,0.016c0.148-0.146,0.373-0.414,0.543-0.619
		c0.765-0.916,1.811-2.166,3.397-2.166c0.42,0,0.821,0.088,1.21,0.261c-0.018-0.028-0.035-0.062-0.052-0.091
		c-1.382-2.308,0.91-3.687,1.664-4.139c0.184-0.108,0.44-0.268,0.583-0.375c0.201-0.87,0.841-1.76,1.57-2.774
		c0.283-0.398,0.715-1.001,0.942-1.404c-0.209-0.415-0.233-0.843-0.073-1.28c0.11-0.296,0.476-0.995,1.517-1.074
		c0.353-0.029,1.689-0.392,3.979-3.871c2.403-3.656,3.895-4.724,5.208-5.668c0.918-0.659,1.643-1.177,2.698-2.728
		c0.941-1.388,1.751-2.24,2.871-2.24c0.247,0,0.466,0.04,0.656,0.111c0.04-0.066,0.085-0.134,0.13-0.211
		c0.574-0.958,1.325-2.027,2.314-2.481c0.054-0.769,0.265-1.643,0.909-2.372c0.859-0.978,2.246-1.471,4.367-1.565
		c0.317-0.014,0.535-0.038,0.673-0.06c0.418-1.239,1.258-2.217,3.785-2.938c1.666-0.475,1.922-0.888,2.221-1.365
		c0.747-1.2,1.589-1.882,3.883-2.076c0.296-0.022,0.578-0.033,0.845-0.033c3.724,0,4.992,2.256,6.107,4.252
		c0.167,0.296,0.338,0.6,0.522,0.909c0.059,0.1,0.14,0.233,0.239,0.404c1.915,3.303,5.497,8.669,11.264,14.496v0.341
		c0,0-47.83,45.815-61.14,59.987c-13.314,14.173-1.289,30.062-2.149,42.943c-0.858,12.888,18.638,58.668,18.638,58.668
		L82.589,182.95z"/>
	<path fill="none" stroke="#FFFFFF" stroke-width="2" stroke-miterlimit="10" d="M28.425,222.851
		c5.716,4.623,10.762,8.588,10.762,8.588"/>
	<path fill="none" stroke="#FFFFFF" stroke-width="2" stroke-miterlimit="10" d="M348.499,420.943
		c9.558-1.52,18.046-1.165,22.548,0.435c9.982,3.539,9.982,13.522-4.189,14.49c-10.19,0.693-26.678-26.208-35.125-41.358
		c-0.721-1.29-4.405-6.834-7.066-5.765c-2.889,1.166-4.717,9.033-4.207,9.913c0.257,0.444,0.532,0.911,0.821,1.398
		c7.454,12.667,25.122,40.862,39.028,44.507c18.039,4.727,34.356-11.599,29.203-19.327c-5.152-7.73-9.447-15.027-24.479-13.309
		c-6.766,0.769-14.053,0.848-21.864,2.188"/>
	<path fill="none" stroke="#FFFFFF" stroke-width="2" stroke-linecap="round" stroke-linejoin="round" stroke-miterlimit="10" d="
		M68.413,38.889l17.429,16.523L68.413,38.889z"/>
	
		<line fill="none" stroke="#FFFFFF" stroke-width="2" stroke-linecap="round" stroke-linejoin="round" stroke-miterlimit="10" x1="42.51" y1="63.839" x2="59.826" y2="81.679"/>
	<path fill="none" stroke="#FFFFFF" stroke-width="2" stroke-linecap="round" stroke-linejoin="round" stroke-miterlimit="10" d="
		M46.736,59.883l17.68,15.784L46.736,59.883z"/>
	<path fill="none" stroke="#FFFFFF" stroke-width="2" stroke-linecap="round" stroke-linejoin="round" stroke-miterlimit="10" d="
		M50.255,55.92l18.027,15.239L50.255,55.92z"/>
	<path fill="none" stroke="#FFFFFF" stroke-width="2" stroke-linecap="round" stroke-linejoin="round" stroke-miterlimit="10" d="
		M53.766,51.958l17.736,15.819L53.766,51.958z"/>
	<path fill="none" stroke="#FFFFFF" stroke-width="2" stroke-linecap="round" stroke-linejoin="round" stroke-miterlimit="10" d="
		M58.208,48.226l17.373,15.315L58.208,48.226z"/>
	<path fill="none" stroke="#FFFFFF" stroke-width="2" stroke-linecap="round" stroke-linejoin="round" stroke-miterlimit="10" d="
		M61.125,42.38l17.509,16.685L61.125,42.38z"/>
	<path fill="none" stroke="#FFFFFF" stroke-width="2" stroke-linecap="round" stroke-linejoin="round" stroke-miterlimit="10" d="
		M70.543,34.148L87.506,50.2L70.543,34.148z"/>
	<path fill="none" stroke="#FFFFFF" stroke-width="2" stroke-linecap="round" stroke-linejoin="round" stroke-miterlimit="10" d="
		M75.582,29.844l17.871,17.304L75.582,29.844z"/>
	<path fill="none" stroke="#FFFFFF" stroke-width="2" stroke-linecap="round" stroke-linejoin="round" stroke-miterlimit="10" d="
		M78.856,24.484l16.804,16.02L78.856,24.484z"/>
	<path fill="none" stroke="#FFFFFF" stroke-width="2" stroke-linecap="round" stroke-linejoin="round" stroke-miterlimit="10" d="
		M87.792,16.809l16.311,16.208L87.792,16.809z"/>
	<path fill="none" stroke="#FFFFFF" stroke-width="2" stroke-linecap="round" stroke-linejoin="round" stroke-miterlimit="10" d="
		M90.812,13.614l17.683,17.604L90.812,13.614z"/>
	<path fill="none" stroke="#FFFFFF" stroke-width="2" stroke-linecap="round" stroke-linejoin="round" stroke-miterlimit="10" d="
		M94.358,10.164l16.012,16.862L94.358,10.164z"/>
	<path fill="none" stroke="#FFFFFF" stroke-width="2" stroke-linecap="round" stroke-linejoin="round" stroke-miterlimit="10" d="
		M100.007,6.974l14.493,16.81L100.007,6.974z"/>
	<path fill="none" stroke="#FFFFFF" stroke-width="2" stroke-linecap="round" stroke-linejoin="round" stroke-miterlimit="10" d="
		M83.421,20.916l16.381,15.295L83.421,20.916z"/>
	<path fill="none" stroke="#FFFFFF" stroke-width="2" stroke-linecap="round" stroke-linejoin="round" stroke-miterlimit="10" d="
		M104.103,3.64l13.621,14.954L104.103,3.64z"/>
</g>
<g>
	<path fill="#F947FF" d="M54.266,2.464h24.937v99.862h12.526c3.474,0,6.43-1.229,8.869-3.687c2.438-2.459,3.658-5.366,3.658-8.723
		V2.464h24.937v99.862h12.526c3.396,0,6.312-1.229,8.751-3.687c2.439-2.459,3.658-5.366,3.658-8.723V2.464h25.054V72.18
		c0,11.629-4.186,21.649-12.557,30.059c-8.371,8.41-18.409,12.614-30.117,12.614h-32.253v-3.98c-4.8,2.654-10.712,3.98-17.736,3.98
		H54.266V2.464z"/>
	<path fill="#F947FF" d="M204.119,114.854V2.464h24.936v37.463c0.508-4.215,1.807-7.354,3.895-9.424
		c2.088-2.068,4.965-3.103,8.634-3.103h12.526c6.828,0,12.691,2.469,17.59,7.405c4.896,4.937,7.347,10.82,7.347,17.648v62.399
		h-24.937V52.454c0-3.433-1.239-6.38-3.717-8.839c-2.479-2.459-5.416-3.688-8.811-3.688c-3.436,0-6.381,1.229-8.84,3.688
		c-2.457,2.458-3.688,5.406-3.688,8.839v62.399L204.119,114.854L204.119,114.854z"/>
	<path fill="#F947FF" d="M328.917,27.4h25.054c6.828,0,12.691,2.469,17.59,7.405c4.896,4.937,7.347,10.82,7.347,17.648v37.463
		c0,6.752-2.449,12.595-7.347,17.532c-4.897,4.937-10.762,7.404-17.59,7.404h-25.054c-6.83,0-12.692-2.448-17.592-7.346
		c-4.896-4.897-7.347-10.76-7.347-17.59V52.454c0-6.907,2.459-12.81,7.377-17.708C316.271,29.851,322.127,27.4,328.917,27.4z
		 M328.917,52.454v37.463c0,3.357,1.218,6.264,3.658,8.723c2.438,2.458,5.396,3.687,8.868,3.687c3.472,0,6.429-1.229,8.867-3.687
		c2.439-2.459,3.658-5.366,3.658-8.723V52.454c0-3.433-1.238-6.38-3.717-8.839c-2.479-2.458-5.414-3.688-8.811-3.688
		c-3.436,0-6.379,1.229-8.838,3.688S328.917,49.021,328.917,52.454z"/>
	<path fill="#F947FF" d="M154.187,244.687v-12.41c0-3.433-1.239-6.38-3.717-8.838c-2.479-2.458-5.414-3.688-8.81-3.688h-12.527
		c-7.375,0-11.512,4.176-12.409,12.526h-12.527c1.912-16.702,10.224-25.053,24.936-25.053h25.054c6.829,0,12.692,2.468,17.59,7.405
		c4.897,4.937,7.346,10.819,7.346,17.648v62.4h-24.936v-12.527c-0.976,8.353-5.151,12.527-12.527,12.527h-12.527
		c-6.829,0-12.693-2.447-17.59-7.348c-4.898-4.896-7.346-10.762-7.346-17.589v-0.117c0-6.829,2.458-12.692,7.375-17.59
		s10.77-7.347,17.561-7.347H154.187L154.187,244.687z M154.187,257.213H141.66c-3.434,0-6.38,1.222-8.839,3.659
		s-3.688,5.355-3.688,8.751v0.117c0,3.354,1.22,6.263,3.658,8.722s5.395,3.688,8.869,3.688c3.473,0,6.429-1.229,8.868-3.688
		c2.438-2.459,3.659-5.365,3.659-8.722V257.213z"/>
	<path fill="#F947FF" d="M278.984,294.677h-24.937v-62.4c0-3.433-1.239-6.38-3.716-8.838c-2.48-2.458-5.416-3.688-8.812-3.688
		c-3.434,0-6.379,1.229-8.838,3.688s-3.688,5.405-3.688,8.838v62.4h-24.937v-87.453h24.937v12.527
		c0.508-4.215,1.805-7.356,3.894-9.424c2.088-2.069,4.967-3.103,8.633-3.103h12.527c8.469,0,14.712,2.946,18.73,8.839
		c1.951-2.965,4.488-5.181,7.609-6.644c3.122-1.464,6.83-2.195,11.122-2.195h12.41c6.828,0,12.712,2.449,17.647,7.347
		c4.937,4.896,7.406,10.799,7.406,17.706v62.4h-25.055v-62.4c0-3.395-1.229-6.33-3.688-8.81c-2.459-2.477-5.365-3.716-8.723-3.716
		c-3.434,0-6.381,1.229-8.838,3.688c-2.459,2.458-3.689,5.405-3.689,8.838v62.4H278.984z"/>
	<path fill="#F947FF" d="M154.07,474.499v-112.39h24.995v112.39H154.07L154.07,474.499z"/>
	<path fill="#F947FF" d="M241.521,437.036V424.51c0-10.303,5.424-18.731,16.272-25.288l1.933-1.171
		c4.487-2.691,6.73-6.36,6.73-11.004c0-3.356-1.221-6.265-3.658-8.722c-2.439-2.459-5.355-3.689-8.751-3.689h-12.526
		c-7.688,0-11.863,4.139-12.526,12.411h-12.409c1.912-16.625,10.225-24.938,24.936-24.938h24.938c6.83,0,12.712,2.448,17.648,7.347
		s7.404,10.761,7.404,17.591c0,10.849-4.761,18.36-14.283,22.536l-2.049,0.878c-4.486,1.99-7.062,3.94-7.727,5.854
		c-0.663,1.911-0.995,4.644-0.995,8.194v12.526H241.521L241.521,437.036z M241.521,474.499v-24.938h24.937v24.938H241.521z"/>
</g>
</svg>
