<?xml version="1.0" encoding="utf-8"?>
<!-- Generator: Adobe Illustrator 16.0.0, SVG Export Plug-In . SVG Version: 6.00 Build 0)  -->
<!DOCTYPE svg PUBLIC "-//W3C//DTD SVG 1.1//EN" "http://www.w3.org/Graphics/SVG/1.1/DTD/svg11.dtd">
<svg version="1.1" xmlns="http://www.w3.org/2000/svg" xmlns:xlink="http://www.w3.org/1999/xlink" x="0px" y="0px"
	 width="360.125px" height="288px" viewBox="0 0 360.125 288" enable-background="new 0 0 360.125 288" xml:space="preserve">
<g id="Layer_5" display="none">
	<rect display="inline" width="360.125" height="288"/>
</g>
<g id="Layer_1" display="none" opacity="0.5">
	
		<image display="inline" overflow="visible" width="391" height="249" xlink:href="5BEAE10B281025FB.png"  transform="matrix(1 0 0 1 10.501 38.333)">
	</image>
	<path display="inline" fill="none" d="M352.5,221.5c7.384-2.364,11.869-15.137,18.002-19.973
		c6.146-4.846,14.485-12.596,22.356-13.46c-5.733,6.298-12.643,10.345-16.773,17.796c-3.263,5.886-6.138,14.269-10.464,19.635
		c-4.741,5.881-21.914,10.386-29.546,9.427c-1.625-9.871,8.678-11.745,15.425-13.925"/>
	<path display="inline" fill="none" stroke="#000000" stroke-width="3" stroke-miterlimit="10" d="M60.902,223.149"/>
	<path display="inline" fill="none" stroke="#000000" stroke-width="3" stroke-miterlimit="10" d="M75.012,223.988"/>
	<path display="inline" fill="none" stroke="#000000" stroke-width="3" stroke-miterlimit="10" d="M104.427,242.612"/>
	<path display="inline" fill="none" stroke="#000000" stroke-width="3" stroke-miterlimit="10" d="M145.5,242"/>
</g>
<g id="Top_Lid">
	<g id="Layer_4">
	</g>
	<path fill="none" stroke="#FFFFFF" stroke-width="3.5" stroke-miterlimit="10" d="M3.758,156.654
		c8.404,1.419,17.034,1.314,26.292,0.967c5.431-0.204,11.409-0.451,16.803,0.934c4.661,1.197,10.074,2.75,14.949,4.043
		c9.673,2.57,15.886,5.462,24.568,10.271c17.838,9.88,43.894,10.983,63.785,12.136c9.705,0.565,19.666,2.499,29.874,2.488
		c21.113-0.021,41.719,0.134,62.229-1.869c11.876-1.16,26.208-3.345,37.933-6.875c6.569-1.979,12.548-5.249,18.84-7.333
		c12.368-4.1,47.231-11.277,53.319-10.524"/>
	<path fill="none" stroke="#FFFFFF" stroke-width="1.5" stroke-miterlimit="10" d="M2.622,157.055
		c6.56-1.86,9.372-4.982,13.561-6.212c6.232-1.831,12.914-2.976,19.227-4.736c6.093-1.698,12.63-2.532,18.9-3.227
		c8.138-0.902,13.264,0.501,20.918,3.148c3.134,1.084,6.116,1.71,9.127,2.956c4.737,1.96,9.23,4.414,13.768,5.904
		c4.984,1.635,9.863,2.317,15.004,3.683c5.451,1.447,11.124,0.569,16.802,0.917c7.476,0.457,14.614,5.41,20.595,9.548
		c7.699,5.329,14.843,11.421,22.657,16.588"/>
	<path fill="none" stroke="#FFFFFF" stroke-width="1.5" stroke-miterlimit="10" d="M165.716,179.703c0,0,9.336,7.823,11.202,7.789
		c7.438-0.134,25.05,0.357,33.125-1.257c7.037-1.405,13.206-7.158,19.151-10.841c7.687-4.761,13.505-6.102,23.599-6.905
		c-0.188,0.012-0.374,0.019-0.563,0.023c7.104-0.008,12.888-0.428,18.959,2.812c5.717,3.05,9.671,5.865,15.378,3.126
		c5.547-2.66,10.154-3.543,16.101-4.878c2.85-0.639,16.554-2.765,17.013-4.689c-7.039-3.861-16.48,0.441-23.848-2.324
		c-6.856-2.576-13.936-6.933-20.893-9.623c-7.174-2.774-12.468-3.246-20.708-2.581c-8.133,0.655-15.155,3.62-22.444,6.875
		c-9.599,4.287-18.354,6.422-30.087,9.277c-5.868,1.427-12.446,3.724-17.896,6.102c-3.381,1.475-10.919,4.389-14.665,5.553
		L165.716,179.703z"/>
	<path fill="none" stroke="#FFFFFF" stroke-width="1.5" stroke-miterlimit="10" d="M306.051,154.509
		c6.379-1.4,17.146-4.926,23.957-3.734c12.452,2.178,20.263,9.601,22.931,8.518c-4.928-0.686-8.683-4.309-12.539-5.669
		c-4.114-1.449-8.878-3.958-13.199-4.711c-3.42-0.598-4.28-3.229-7.521-4.671c-6.757-4.954-22.014-1.867-26.542-1.867
		c-1.895,0-6.508-0.362-8.342-0.867c-2.265-0.622-4.971-2.852-7.061-3.58c-3.518-1.226-11.779-0.488-15.558-0.488
		c-8.559,0-9.867,1.867-18.025,3.068c-8.083,1.19-17.225,0.928-25.125,2.902c-11.273,2.819-22.803,8.17-33.706,12.344
		c-8.945,3.425-15.659,5.182-20.071,6.692c-6.604,2.261-13.588,1.255-20.49,1.958c6.693,5.283,20.185,15.358,20.185,15.358
		c0.771-0.059,10.414-3.789,18.168-6.48c15.513-5.381,31.47-8.019,46.673-15.13c12.557-5.874,25.162-10.288,39.533-6.885
		c5.99,1.419,11.415,3.995,17.167,6.059c5.929,2.126,9.962-1.554,15.83-2.504L306.051,154.509z"/>
	<path fill="none" stroke="#FFFFFF" stroke-width="1.5" stroke-miterlimit="10" d="M45.919,129.305c0,0,3.122-3.118,5.448-4.28
		c3.019-1.508,4.629-1.786,8.398-1.787c5.284-0.001,9.76-0.399,14.781-0.156c6.585,0.318,11.675-0.248,17.643-2.749
		c3.164-1.326,6.21-2.988,9.116-4.188c2.307-0.953,4.042-1.401,6.58-2.709c-13.078-8.658-36.152-10.349-50.441-1.87
		c-8.347,4.955-15.364,6.536-21.378,14.005c-5.304,6.586-9.75,9.556-17.218,14.186c-0.365,0.227-1.9,1.861-2.223,2.15
		c-14.171,12.686-5.796,9.392-13.489,14.681c4.546,0,13.744-6.682,16.801-9.236c4.979-3.11,5.59-9.428,8.697-11.409
		c3.928-2.504,8.573-3.274,12.307-4.46L45.919,129.305z"/>
	<path fill="none" stroke="#FFFFFF" stroke-width="1.5" stroke-miterlimit="10" d="M64.589,80.298
		c11.772-9.159,7.927-19.081,23.029-25.565c4.827-2.073,9.413-3.742,14.023-6.161c4.24-2.224,8.113-3.938,13.046-3.747
		c9.162,0.355,14.679,5.309,22.254,8.851c-7.062,2.289-14.761,3.216-20.376,7.954c-5.006,4.225-9.506,6.257-16.452,8.399
		c-7.432,2.293-14.901,6.477-21.833,9.242c-3.738,1.491-6.186,2.971-9.56,4.494c-2.29,1.033-10.322,6.479-12.697,7.406
		L64.589,80.298z"/>
	<path fill="none" stroke="#FFFFFF" stroke-width="1.5" stroke-miterlimit="10" d="M138.731,29.241
		c5.671-2.152,8.219-2.151,12.505-2.152c4.67,0,8.482-0.021,12.848,1.529c7.187,2.549,14.543,7.354,22.193,9.218
		c3.844,0.938,7.844,0.325,11.53,1.946c3.399,1.496,5.572,4.031,8.514,5.973c6.826,4.503,11.612,4.048,16.79,13.526
		c0.532,0.973,0.886,2.199,1.354,3.176c-2.202,2.377-8.188,9.625-8.042,10.06c-0.561-0.738-3.521-2.143-6.835-4.527
		c-6.843-4.341-12.057-5.527-19.03-7.76c-9.172-2.939-17.02-3.14-26.553-2.181c-3.673,0.369-7.348-0.449-11.357-1.089
		c-3.185-0.508-6.301-1.271-8.401-2.023c-4.855-1.735-6.861-0.64-11.513-3.422c-5.958-3.564-11.358-6.704-20.226-6.942
		c2.5-2.553,5.654-5.981,8.867-7.216c3.35-1.287,6.24-3.972,9.802-4.668L138.731,29.241z"/>
	<path fill="none" stroke="#FFFFFF" stroke-width="1.5" stroke-miterlimit="10" d="M225.603,31.53
		c5.044,3.565,29.706,15.308,31.422,30.494c-9.507,0.822-23.216-2.117-32.56,0.433c-2.072-5.646-5.126-8.853-9.587-11.683
		c-2.097-1.33-4.575-2.156-6.698-3.5c-2.022-1.277-3.398-3.644-5.136-4.806c-3.083-2.063-7.522-3.979-11.481-3.959
		c-5.098,0.027-9.849-1.95-12.715-3.272c4.449-8.147,33.746-13.307,39.501-5.684L225.603,31.53z"/>
	<path fill="none" stroke="#FFFFFF" stroke-width="1.5" stroke-miterlimit="10" d="M278.2,52.76c4.437,1.754,8.703,5.612,12.11,7.82
		c4.369,2.832,9.112,4.865,13.22,7.981c7.115,5.396,8.46,13.655,10.146,22.787c-8.041-4.276-21.471-2.743-21.471-2.743
		c-3.112-3.173-3.586-7.459-6.538-9.708c-13.688-10.436-28.643-16.873-28.643-16.873c-2.783-9.265-4.521-10.142-8.512-14.573
		c-2.974-3.303-13.466-11.282-16.646-12.109c5.992,1.388,32.47,11.79,35.47,12.308c5.083,0.876,2.536,1.74,7.129,3.553L278.2,52.76z
		"/>
	<path fill="none" stroke="#FFFFFF" stroke-width="1.5" stroke-miterlimit="10" d="M292.792,89.655
		c2.991,4.644,15.504,11.856,18.183,17.329c3.262,6.653,5.357,12.523,6.913,19.964c1.118,5.355,1.388,9.991,3.683,14.846
		c2.946,6.233,7.039,6.484,13.516,7.055c0.778-7.148-3.225-14.083-3.209-21.384c0.01-4.227-0.228-5.38-2.449-8.79
		c-2.063-3.166-3.028-4.759-4.1-9.003c-4.029-15.994-10.701-20.015-22.692-21.067L292.792,89.655z"/>
	<path fill="none" stroke="#FFFFFF" stroke-width="1.5" stroke-miterlimit="10" d="M331.877,124.17
		c10.554,1.876,7.857,13.291,14.471,20.382c4.443,4.767,3.376,5.537,10.73,13.938c-4.728,1.767-20.903-6.795-21.002-7.81
		c-0.89-9.085-3.226-14.85-4.199-23.217V124.17z"/>
	<path fill="none" stroke="#FFFFFF" stroke-width="1.5" stroke-miterlimit="10" d="M34.188,115.614
		c6.499-3.422,8.555-5.609,15.307-10.578c7.797-5.738,16.047-13.041,24.938-16.198c8.228-2.922,22.804-6.659,31.384-7.296
		c-2.305-6.013-19.554-5.727-24.504-3.705c-9.079,3.709-17.223,8.264-25.291,13.333c-10.091,6.341-17.111,14.145-26.194,26.646
		L34.188,115.614z"/>
	<path fill="none" stroke="#FFFFFF" stroke-width="5" stroke-miterlimit="10" d="M346.924,160.891"/>
	<path fill="none" stroke="#FFFFFF" stroke-width="5" stroke-miterlimit="10" d="M352.351,160.257"/>
</g>
<g id="Bottom_Lid">
	<path fill="none" stroke="#FFFFFF" stroke-width="1.5" stroke-miterlimit="10" d="M97.866,223.715
		c1.991,3.208,9.911,8.138,12.774,10.116c2.909,2.012,5.593,4.844,8.073,7.389c5.356,5.492,12.222,9.901,20.294,10.942
		c16.733,2.159,34.55-0.494,50.979,1.764c13.575,1.863,26.677,1.783,38.692-5.958c7.178-4.624,20.335-12.029,22.963-20.927
		c-4.403,0.751-8.057,2.404-12.181,2.613c-5.123,0.261-7.085-0.382-11.19,1.753c-8.355,4.341-15.781,5.82-25.225,7.117
		c-8.39,1.153-17.361,0.793-25.635,2.436c-4.453,0.885-8.95,1.377-13.198-0.433c-3.431-1.459-5.852-3.532-9.7-3.896
		c-4.657-0.439-7.154,0.925-11.828,0.595c-5.341-0.38-12.485-3.298-17.236-5.587c-6.689-3.222-10.982-5.717-18.23-6.494
		L97.866,223.715z"/>
	<path fill="none" stroke="#FFFFFF" stroke-width="1.5" stroke-miterlimit="10" d="M275.885,231.889
		c2.639-1.156,4.081-2.427,5.893-4.563c3.201-3.776,3.14-4.484,7.623-5.912c7.585-2.414,10.103-8.88,15.241-15.139
		c-6.64,1.548-11.57,7.301-18.044,9.273c-3.248,0.989-6.78,0-10.057,0.675c-2.777,0.574-5.287,2.136-8.142,3.035
		c-2.874,0.907-5.28,2.124-7.833,3.386c-2.436,1.204-8.925,4.397-8.925,4.397c-1.374,4.517-5.844,9.316-10.057,12.283
		c8.748,0.969,24.322,1.284,29.147-5.002L275.885,231.889z"/>
	<path fill="none" stroke="#FFFFFF" stroke-width="1.5" stroke-miterlimit="10" d="M92.854,221.744
		c-3.596-0.375-14.177-4.324-17.557-6.561c-5.126-3.393-7.82-8.71-9.989-14.174c8.306,2.974,8.806,10.05,18.416,13.867
		c8.467,3.364,18.612,4.435,26.87,1.712c4.057-1.515,4.057-1.515,8.113-0.972c8.355,0.252,9.077,4.83,15.855,9.263
		c5.214,3.412,13.169,6.438,19.404,6.257c0.394,1.884,0.325,4.155,1.913,5.424c-11.118,1.079-19.719,1.804-29.562-4.505
		c-4.42-2.831-11.593-4.881-16.506-6.605c-3.627-1.272-9.962-0.263-13.171-2.329L92.854,221.744z"/>
	<path fill="none" stroke="#FFFFFF" stroke-width="1.5" stroke-miterlimit="10" d="M91.417,206.439"/>
	<path fill="none" stroke="#FFFFFF" stroke-width="1.5" stroke-miterlimit="10" d="M111.585,214.241"/>
	<path fill="none" stroke="#FFFFFF" stroke-width="1.5" stroke-miterlimit="10" d="M31.481,183c1.105,1.728,2.936,3.331,4.312,4.874
		c1.494,1.675,2.397,3.988,4.136,5.38c3.356,2.684,8.985,3.328,13.148,4.185c4.812,0.988,7.099,1.818,12.232,3.571
		c3.132,1.07,4.074,2.908,6.125,4.036c2.201,1.211,4.339,4.521,6.195,5.97c2.734,2.131,4.594,2.789,6.743,4.106
		c3.335,2.049,6.938,2.348,10.888,2.697c5.746,0.509,12.05-0.109,16.707-1.74c3.447-1.202,7.255,0,10.325,0
		c1.313,0-1.732-5.034-0.52-5.603c-2.105-0.582-2.743-0.297-4.85-1.096c-2.303-0.873-4.227-0.393-6.709-0.735
		c-4.498-0.622-9.238-0.227-13.795-0.227c-3.006,0-5.801-0.379-8.654-1.213c-2.765-0.812-3.438-1.688-5.317-3.833
		c-0.168,0.041,0.655,0.33,0,0c-0.878-0.729-3.392-3.279-4.251-4.052c-1.003-0.903-2.299-1.412-3.668-2.164
		c-3.182-1.741-6.72-2.809-9.838-4.667c-2.813-1.68-4.045-4.494-6.376-6.697c-2.013-1.902-4.093-3.711-6.247-5.366
		c-1.366-1.051-2.762-2.029-4.185-3.036c-1.29-0.912-3.944-3.085-3.944-3.085c-2.464-2.841-5.425-7.785-8.665-9.547
		c-4.131-2.244-8.809-3.367-13.359-4.41c-4.95-1.131-12.184-2.608-18.777-2.492c5.626,3.466,10.138,5.419,12.733,6.687
		C23.882,168.457,26.818,175.705,31.481,183z"/>
	<path fill="none" stroke="#FFFFFF" stroke-width="1.5" stroke-miterlimit="10" d="M335.917,180.119
		c-0.382,1.457-1.097,0.095-3.859,3.51c-1.263,1.56-2.071,3.436-3.288,5.024c-2.963,3.871-7.564,8.659-11.818,10.429
		c-4.086,1.701-8.467,3.88-12.608,5.349c-3.384,1.204-6.162,4.987-9.104,6.528c-0.607-2.799,2.016-7.669,3.718-9.725
		c2.252-2.719,4.23-2.756,7.445-3.732c4.59-1.393,11.046-4.551,14.031-8.508c3.602-4.767,6.025-10.165,11.453-12.85
		c1.058-0.524,2.543-0.624,3.437-1.094c1.591-0.838,3.223-2.63,4.952-3.739c2.398-1.538,2.934-3.052,5.349-5.654
		c0.296-0.319,4.368-4.622,8.883-5.4c-4.501,2.697-10.32,9.453-11.65,10.857c-1.128,1.191-2.463,3.293-4.914,6.031L335.917,180.119z
		"/>
	<path fill="none" stroke="#FFFFFF" stroke-width="1.5" stroke-miterlimit="10" d="M165.426,211.635
		c7.767,1.893,15.604,4.971,23.724,4.591c7.803-0.362,14.343,0.198,21.442-4.131c2.578-1.572,5.272-3.239,7.855-4.715
		c1.357-0.778,3.794-1.99,5.204-2.646c2.879-1.342,6.007-3.388,9.124-4.104c5.432-1.245,6.782-2.049,9.183-2.543
		c2.077-0.427,4.098,0.054,6.32,0.291c4.443,0.472,9.247,3.183,13.587,4.545c0.661,0.206,1.46,0.709,2.093,0.759
		c-3.005,1.945-7.563,2.104-10.95,3.513c-2.778,1.154-5.13,2.417-7.671,3.737c-2.601,1.35-5.233,2.308-7.68,4.009
		c-2.557,1.779-5.306,4.174-8.026,5.561c-5.508,2.811-11.819,3.906-17.426,6.604c-1.84,0.883-2.498,1.723-4.461,1.849
		c-1.96,0.125-3.916-0.384-5.855-0.477c-7.539-0.369-14.711,1.615-22.153,1.644c-4.267,0.018-8.533,0.237-12.813,0.233
		c-4.044-0.004-8.043,0.509-12.083,0.465c-2.337-0.024-3.573,0.209-8.785-0.796c-2.172-0.058-4.196-1.297-5.973-2.161
		c-2.491-1.211-5.111-2.518-7.166-4.147c-3.101-2.452-6.535-5.127-9.59-7.642c-0.725-0.593-2.828-5.811-1.555-5.597
		c3.027,0.508,8.232,1.75,9.716,1.908c5.421,0.579,8.876-1.308,14.337-1.178C152.618,211.368,158.649,209.98,165.426,211.635z"/>
	<path fill="none" stroke="#FFFFFF" stroke-width="1.5" stroke-miterlimit="10" d="M263.111,191.094
		c10.108-0.415,16.903,0.902,25.816-2.098c11.934-4.017,25.238-9.977,38.237-9.234c-1.655,1.982-3.862,5.42-5.228,7.13
		c-2.141,2.687-4.712,4.377-7.746,6.356c-6.416,4.187-14.223,3.474-20.956,6.262c-1.153,0.479-2.374,1.426-3.612,1.911
		c-1.721,0.677-3.828,0.542-5.769,1.105c-4.43,1.285-9.158,1.847-13.823,1.69c-6.798-0.227-12.001-2.952-18.39-5.129
		c-1.938-0.661-5.12-1.414-6.116-1.656c-0.68-2.71,11.871-5.568,14.006-5.584L263.111,191.094z"/>
	<path fill="none" stroke="#FFFFFF" stroke-width="1.5" stroke-miterlimit="10" d="M107.528,195.584c0,0,6.535,3.827,10.584,4.06
		c4.638,0.267,9.472,0.18,13.999,0.927c6.163,1.016,11.764,3.925,17.813,5.281c6.952,1.558,13.29,5.062,20.189,6.542
		c7.368,1.579,10.691,2.988,18.005,3.857c0.055,0.053,0.977-0.079,1.031-0.025c0,0,0.716,0.441,3.515,0.038
		c2.803-0.046,5.564,0.167,8.29-0.448c3.12-0.705,6.878-2.101,9.638-3.721c5.412-3.176,10.248-6.042,15.899-8.787
		c3.433-1.665,7.128-3.051,10.745-4.263c1.533-0.514,3.333-0.461,4.722-0.958c2.481-0.891,4.534-2.928,6.829-4.069
		c4.656-2.312,6.401-4.66,9.243-8.96c-13.445-0.749-25.798,0.979-39.102,2.04c-10.546,0.841-21.456,0.483-31.899,0.366
		c-9.247-0.101-17.678-0.002-26.791-1.528c-4.945-0.829-13.63-1.616-18.009-1.392c-11.515,0.595-21.27-1.138-32.356-3.651
		c-5.489-1.244-10.386-2.601-15.54-4.356c1.522,3.197,4.137,7.142,5.96,10.005c1.703,2.677,2.937,4.884,5.056,7.174L107.528,195.584
		z"/>
	<path fill="none" stroke="#FFFFFF" stroke-width="1.5" stroke-miterlimit="10" d="M72.726,196.25
		c6.657,0,13.449,0.236,20.145-0.049c2.592-0.11,5.064-0.974,7.663-1.236c1.561-0.158,4.586-0.36,6.06-0.475"/>
	<path fill="none" stroke="#FFFFFF" stroke-width="1.5" stroke-miterlimit="10" d="M126.51,83.564
		c3.624,0.475,8.726,2.978,12.125,4.19c4.737,1.69,9.141,3.73,13.818,5.273c9.514,3.138,18.509,4.469,28.629,5.087
		c-5.229,3.394-12.108,5.448-17.333,7.737c-4.56,1.996-11.605,3.651-15.905,5.547c-4.674,2.06-7.812,2.136-12.488,3.345
		c-4.75,1.229-8.824-0.375-12.114-1.321c-7.354-2.116-15.356,0.013-15.356,0.013c-5.793-3.117-22.097-8.893-30.849-7.43
		c-3.695,0.617-9.504,1.026-12.334,2.323c-3.991,1.83-4.333,1.805-8.679,4.057c-5.772,2.991-11.028,5.062-16.213,9.324
		c-4.317,3.55-12.324,13.376-16.801,15.95c-3.783,2.174-2.606,0.857-6.058,3.426c-1.877,1.397-3.138,4.371-5.136,5.021
		c0.848-3.587,3.658-7.951,6.07-10.748c3.849-4.463,4.409-9.9,8.43-14.673c3.639-4.319,10.816-5.499,15.156-9.097
		c3.63-3.01,9.366-7.629,14.551-11.513c4.301-3.224,7.856-6.309,12.865-8.731c4.693-2.271,10.354-3.839,15.536-5.584
		c7.89-2.658,16.097-3.259,24.246-4.065c3.042-0.3,7.357-1.094,9.906,0L126.51,83.564z"/>
	<path fill="none" stroke="#FFFFFF" stroke-width="1.5" stroke-miterlimit="10" d="M312.586,141.285
		c-2.623-0.126-10.714-0.229-13.069,0.455c-2.833,0.823-5.128,0.054-8.092,0.187c-4.652,0.208-7.467-1.575-12.567-3.508
		c-1.367-0.519-5.297-0.618-7.824-1.198c0,0,0.091-1.845-0.379-3.349c-1.673-5.324-7.724-12.314-12.624-15.145
		c-19.346-11.164-39.079-0.942-57.307,6.038c-4.97,1.903-9.801,3.967-14.938,5.473c-3.144,0.922-6.626,0.954-9.824,1.985
		c-4.45,1.434-4.342,1.532-9.346-0.686c-5.659-2.507-11.618-3.679-17.259-5.967c-4.17-1.691-15.684-8.339-21.002-10.716
		c0,0,11.209-1.043,17.69-2.947c6.782-1.993,13.126-3.741,19.647-6.392c6.672-2.711,12.456-7.057,19.535-8.782
		c5.865-1.429,12.035-1.927,18.037-2.438c10.845-0.92,23.003-2.217,33.424-5.119c8.666-2.413,15.051-3.333,27.271-0.572
		c9.924,2.243,14.955,12.476,21.583,19.811c5.992,6.637,12.951,14.012,17.848,22.316c1.249,2.114,7.021,4.635,7.952,7.132
		L312.586,141.285z"/>
	<path fill="none" stroke="#FFFFFF" stroke-width="1.5" stroke-miterlimit="10" d="M216.123,71.43
		c0.718,3.887,4.915,7.045,6.549,10.62c1.285,2.818,1.168,6.488,2.787,8.983"/>
	<path fill="none" stroke="#FFFFFF" stroke-width="1.5" stroke-miterlimit="10" d="M171.212,133.217
		c1.532,0.649,3.436,0.696,7.186,2.555c5.555,3.305,12.023,12.354,14.758,16.869"/>
	<path fill="none" stroke="#FFFFFF" stroke-width="0.7" stroke-miterlimit="10" d="M115.596,62.795
		c7.31,0.319,13.444-4.77,21.345-4.77c9.23,0,21.407,4.44,30.409,4.432c8.766-0.009,17.248-0.589,25.334,2.905
		c6.614,2.857,13.029,5.516,18.774,9.685c1.453,1.055,3.676,3.926,4.665,5.217c2.724,1.772,3.501,4.221,4.347,6.646
		c1.001,1.714,0.555,3.327,1.956,4.763"/>
	<path fill="none" stroke="#FFFFFF" stroke-width="0.7" stroke-miterlimit="10" d="M111.108,65.828
		c5.056,0,10.845,0.858,17.246-2.484c9.591-5.006,22.159,3.996,45.703,2.89c13.596-0.638,24.333,3.296,34.131,10.963
		c1.768,1.382,5.495,5.738,6.557,7.303c1.022,1.504,3.479,6.189,4.666,8.077"/>
	<path fill="none" stroke="#FFFFFF" stroke-width="0.7" stroke-miterlimit="10" d="M94.771,71.959
		c3.952-0.096,15.495-0.573,19.604-0.529c4.976,0.051,10.13,0.429,14.935-0.689c8.891-2.069,4.265,0,13.536,0
		c8.374,0,26.776,0.64,32.438,4.108c3.238,1.983,15.407,6.787,18.669,11.17c0.723,0.972,8.985,7.141,9.309,8.276
		c6.794-1.718,8.903-0.842,12.86-1.718"/>
	<path fill="none" stroke="#FFFFFF" stroke-width="0.7" stroke-miterlimit="10" d="M94.771,77.197
		c3.29-0.576,3.932,0.462,7.118,1.02c3.493,0.613,10.789-0.458,14.353-0.147c7.305,0.637,14.606,0.33,21.937,0
		c7.849-0.353,10.601,0.046,18.05,1.318c7.396,1.262,13.644,4.68,20.689,7.521c6.131,2.473,12.578,5.768,18.671,8.101"/>
	<path fill="none" stroke="#FFFFFF" stroke-width="0.7" stroke-miterlimit="10" d="M121.681,82.058
		c12.332,0,26.74-0.151,37.862,2.907c5.536,1.522,11.779,3.74,17.374,6.067c4.56,1.896,7.468,2.334,12.603,4.667"/>
	<path fill="none" stroke="#FFFFFF" stroke-width="0.7" stroke-miterlimit="10" d="M138.123,87.567c7.792,0,18.81,1.1,25.959,3.78
		c6.715,2.516,11.871,3.575,18.102,6.302"/>
	<path fill="none" stroke="#FFFFFF" stroke-width="0.7" stroke-miterlimit="10" d="M91.504,76.534
		c2.435-0.389,14.305-1.686,16.381-1.686c2.289,0,4.014-0.458,6.49,0c9.101,1.686,9.964-0.899,16.82-0.619
		c3.786,0.155,7.596,0.735,11.401,0.291c4.531-0.529,9.893,0.328,14.485,0.328c7.914,0,14.359,3.958,21.766,6.382
		c5.688,1.862,9.517,4.946,14.309,8.634c3.826,2.946,2.413,1.672,5.964,4.79"/>
	<path fill="none" stroke="#FFFFFF" stroke-width="0.7" stroke-miterlimit="10" d="M74.935,66.996
		c2.429-0.218,4.14-2.097,5.601-3.617c1.249-1.3,1.538-1.625,3.215-2.263c1.839-0.703,3.671-1.821,5.408-2.69
		c2.745-1.374,5.831-1.757,8.582-3.151c9.013-4.566,17.615-9.196,27.934-7.636"/>
	<path fill="none" stroke="#FFFFFF" stroke-width="0.7" stroke-miterlimit="10" d="M72.169,71.504
		c2.667,0.406,5.112-2.177,7.013-3.518c1.82-1.285,3.68-2.444,5.73-3.377c5.313-2.417,10.057-5.588,15.92-6.768
		c5.303-1.065,10.236-3.449,15.415-5.14c7.205-2.352,12.861-1.633,15.741-1.633"/>
	<path fill="none" stroke="#FFFFFF" stroke-width="0.7" stroke-miterlimit="10" d="M68.167,76.797
		c5.94,0.182,9.608-3.335,14.253-6.534c2.443-1.682,5.048-2.792,7.685-4.031c3.741-1.757,6.664-5.259,10.811-6.418
		c5.29-1.479,11.009-2.493,16.321-3.997c5.054-1.432,10.799-3.721,16.111-3.535"/>
	<path fill="none" stroke="#FFFFFF" stroke-width="0.7" stroke-miterlimit="10" d="M63.845,81.947
		c2.146,0.222,3.423-2.012,5.309-2.299c2.901-0.44,5.672-2.026,8.035-3.101c2.542-1.155,4.619-1.851,7.101-3.136
		c3.838-1.988,7.026-4.457,11.018-6.138c4.163-1.753,8.606-3.007,12.72-4.543c3.194-1.193,7.73-1.663,10.549-3.204"/>
	<path fill="none" stroke="#FFFFFF" stroke-width="0.7" stroke-miterlimit="10" d="M196.721,72.517"/>
	<path fill="none" stroke="#FFFFFF" stroke-width="0.7" stroke-miterlimit="10" d="M107.731,67.243
		c3.672,1.241,9.753,0.546,13.605,0.919c1.947,0.188,4.574,0.718,6.522,0.182c1.945-0.536,2.985-1.557,5.42-1.803
		c4.331-0.438,7.672,0.879,11.902,0.921c4.163,0.042,7.953,0.084,11.941,0.881c3.346,0.668,7.261,0.959,10.655,1.167
		c3.71,0.229,6.409,0.856,9.847,1.745c3.234,0.835,6.043,1.797,8.922,3.15c3.41,1.604,6.489,2.99,9.982,4.195
		c3.064,1.059,5.044,3.909,7.456,5.904c1.391,1.151,3.357,2.195,4.697,3.483c1.178,1.131,2.399,4.508,3.818,5.432"/>
	<path fill="none" stroke="#FFFFFF" stroke-width="0.7" stroke-miterlimit="10" d="M118.576,44.811
		c2.146-1.193,4.074-4.467,6.301-5.354c2.552-1.015,4.821-0.669,7.467-1.658c4.152-1.554,6.208-3.392,10.326-4.819
		c3.857-1.337,8.487-1.462,12.779-1.458c2.595,0.003,5.017,0.011,7.228,1.343c2.188,1.318,3.841,2.999,6.355,4.064
		c9.183,3.894,19.496,5.906,28.651,9.349c5.886,2.212,10.853,6.072,16.519,8.406c4.529,1.868,6.537,3.776,8.982,7.822
		c0.107,0.065,0.162,0.161,0.174,0.288"/>
	<path fill="none" stroke="#FFFFFF" stroke-width="0.7" stroke-miterlimit="10" d="M122.776,46.447
		c5.578-4.656,10.382-3.896,14.924-6.212c4.336-2.211,9.331-4.313,14.258-4.511c2.109-0.085,4.486-0.253,6.483,0.409
		c2.68,0.889,4.44,2.804,7.209,3.552c5.054,1.365,10.225,2.66,14.995,4.618c6.829,2.801,14.427,4.835,21.066,7.648
		c1.931,0.818,3.602,2.024,5.317,3.143c1.858,1.213,4.287,1.804,6.001,3.267c1.305,1.112,4.503,1.535,4.902,3.279
		c0.294,1.279,3.36,2.49,4.492,3.138"/>
	<path fill="none" stroke="#FFFFFF" stroke-width="0.7" stroke-miterlimit="10" d="M125.676,47.638
		c1.865,0.81,4.471-1.833,5.899-2.637c1.812-1.02,3.771-1.297,5.851-1.797c5.04-1.209,9.81-2.564,14.988-2.813
		c1.867-0.09,3.987-0.574,5.83-0.238c2.138,0.389,4.482,1.691,6.533,2.384c2.192,0.74,4.35,1.415,6.546,2.003
		c1.976,0.529,3.562,1.366,5.601,1.685c3.505,0.549,6.206,1.596,9.329,3.579c1.807,1.148,5.131,2.328,7.234,3.378
		c1.958,0.977,4.178,1.423,6.172,2.315c3.923,1.758,7.371,3.671,10.688,6.062c2.952,2.128,7.266,3.47,10.122,5.55"/>
	<path fill="none" stroke="#FFFFFF" stroke-width="0.7" stroke-miterlimit="10" d="M129.543,49.025
		c4.51-1.241,8.156-3.188,12.889-3.916c4.808-0.74,9.628-1.745,14.416-1.918c4.96-0.18,8.129,1.425,12.602,3.041
		c4.395,1.587,9.126,2.646,13.301,4.602c3.252,1.522,5.757,3.574,9.101,4.771c2.912,1.043,5.562,2.075,8.402,3.281
		c3.186,1.352,6.412,2.958,9.464,4.674c2.576,1.447,5.336,4.198,8.008,4.875c0.053,0.621,0.428,0.532,0.73,0.895"/>
	<path fill="none" stroke="#FFFFFF" stroke-width="0.7" stroke-miterlimit="10" d="M131.988,51.069
		c4.445-0.265,10.062-2.963,14.528-3.683c4.295-0.692,8.837-0.689,13.186-0.694c5.005-0.004,9.029,2.631,13.489,4.731
		c4.244,2,9.203,1.821,13.308,3.943c1.873,0.968,4.25,4.198,5.838,5.424"/>
	<path fill="none" stroke="#FFFFFF" stroke-width="0.7" stroke-miterlimit="10" d="M139.112,53.227
		c2.041,1.059,6.21-0.973,8.39-1.348c3.653-0.63,7.508-0.76,11.265-0.752c4.395,0.01,7.188,1.199,11.128,2.98
		c2.228,1.006,5.36,1.765,7.451,3.141"/>
	<path fill="none" stroke="#FFFFFF" stroke-width="0.7" stroke-miterlimit="10" d="M147.613,55.933
		c1.851,0.038,5.19-1.295,7.135-1.307c1.709-0.009,3.417,0.004,5.126,0c1.921-0.004,3.481-0.019,5.103,1.11
		c1.25,0.872,0.927,1.49,2.155,2.29"/>
	<path fill="none" stroke="#FFFFFF" stroke-width="0.7" stroke-miterlimit="10" d="M193.761,38.29
		c-3.575-0.869-7.423-5.312-11.167-6.301"/>
	<path fill="none" stroke="#FFFFFF" stroke-width="0.7" stroke-miterlimit="10" d="M197.807,39.782
		c1.145-2.017-2.341-6.287-3.866-7.154c-1.603-0.914-5.076-1.06-5.822-2.739"/>
	<path fill="none" stroke="#FFFFFF" stroke-width="0.7" stroke-miterlimit="10" d="M202.821,42.958
		c0.002-3.667-0.306-8.002-2.62-10.956c-1.594-2.034-4.304-2.49-6.014-4.214"/>
	<path fill="none" stroke="#FFFFFF" stroke-width="0.7" stroke-miterlimit="10" d="M205.419,44.732
		c2.019-6.901-0.841-12.798-3.764-18.343"/>
	<path fill="none" stroke="#FFFFFF" stroke-width="0.7" stroke-miterlimit="10" d="M209.123,47.625
		c-0.002-4.585,1.62-8.559,1.635-13.173c0.008-3.47-1.592-5.123-3.035-8.063"/>
	<path fill="none" stroke="#FFFFFF" stroke-width="0.7" stroke-miterlimit="10" d="M212.158,48.325
		c-0.242-3.8,2.325-7.163,2.786-10.949c0.325-2.665,0.938-7.763-0.235-10.287"/>
	<path fill="none" stroke="#FFFFFF" stroke-width="0.7" stroke-miterlimit="10" d="M225.927,31.989
		c-0.554,2.468-0.341,5.125-1.1,7.527c-1.447,4.582-5.146,8.124-6.604,12.777"/>
	<path fill="none" stroke="#FFFFFF" stroke-width="0.7" stroke-miterlimit="10" d="M223.125,58.127
		c1.188-3.544,4.902-5.738,7.286-8.403c1.237-1.383,2.358-2.942,3.257-4.421c1.003-1.661,2.706-4.812,2.526-6.779"/>
	<path fill="none" stroke="#FFFFFF" stroke-width="0.7" stroke-miterlimit="10" d="M214.491,49.959
		c-1.435-2.198,3.109-8.177,4.201-10.503c1.185-2.537,2.878-5.7,2.798-8.632"/>
	<path fill="none" stroke="#FFFFFF" stroke-width="0.7" stroke-miterlimit="10" d="M220.558,54.86
		c0.212-3.218,5.621-6.941,7.47-9.609c0.95-1.373,1.688-2.792,2.389-4.135c0.461-0.877,0.909-1.689,1.279-2.572
		c0.334-0.793,0.417-2.768,0.764-2.297"/>
	<path fill="none" stroke="#FFFFFF" stroke-width="0.7" stroke-miterlimit="10" d="M224.059,59.761
		c3.934-2.594,7.812-6.446,11.225-9.795c2.404-2.358,4.15-5.67,6.511-7.941"/>
	<path fill="none" stroke="#FFFFFF" stroke-width="0.7" stroke-miterlimit="10" d="M229.37,61.606
		c3.235-1.49,7.062-6.521,9.443-9.126c2.026-2.216,3.478-5.632,5.55-7.421"/>
	<path fill="none" stroke="#FFFFFF" stroke-width="0.7" stroke-miterlimit="10" d="M236.66,60.944
		c1.031-1.74,3.53-3.161,4.971-4.684c1.08-1.143,1.87-2.426,2.732-3.728c1.148-1.739,2.719-3.254,3.732-5.141"/>
	<path fill="none" stroke="#FFFFFF" stroke-width="0.7" stroke-miterlimit="10" d="M242.729,61.86
		c0.451-2.155,3.717-4.421,5.128-6.055c1.09-1.26,2.713-3.384,3.04-5.146"/>
	<path fill="none" stroke="#FFFFFF" stroke-width="0.7" stroke-miterlimit="10" d="M249.029,61.86c0.7-2.1,4.902-5.196,4.519-8.423"
		/>
	<path fill="none" stroke="#FFFFFF" stroke-width="0.7" stroke-miterlimit="10" d="M249.729,48.092
		c0.64-2.11,4.592-3.821,6.64-4.201"/>
	<path fill="none" stroke="#FFFFFF" stroke-width="0.7" stroke-miterlimit="10" d="M245.51,43.892
		c1.346-0.619,4.384-1.493,6.087-1.31"/>
	<path fill="none" stroke="#FFFFFF" stroke-width="0.7" stroke-miterlimit="10" d="M251.597,50.192
		c2.146,0.446,6.117-1.645,8.632-1.861c2.207-0.19,4.595-0.785,6.771-0.706"/>
	<path fill="none" stroke="#FFFFFF" stroke-width="0.7" stroke-miterlimit="10" d="M253.932,54.626c1.899-0.105,4.4-1.6,6.488-2.035
		c1.965-0.41,3.876-0.892,5.891-0.997c2.679-0.142,5.555,0.375,8.155-0.234"/>
	<path fill="none" stroke="#FFFFFF" stroke-width="0.7" stroke-miterlimit="10" d="M256.031,57.428
		c1.866,0.699,5.107-0.934,7.236-1.167c2.393-0.262,4.853,0.015,7.242-0.221c3.314-0.329,7.999-0.945,11.417-0.945"/>
	<path fill="none" stroke="#FFFFFF" stroke-width="0.7" stroke-miterlimit="10" d="M257.431,60.927
		c2.021,0.146,4.641-0.7,6.756-0.921c2.265-0.236,4.538-0.665,6.828-0.893c4.532-0.454,10.881-0.986,15.496-0.986"/>
	<path fill="none" stroke="#FFFFFF" stroke-width="0.7" stroke-miterlimit="10" d="M263.73,65.127
		c5.701-1.07,11.557,0.033,17.287-1.218c3.272-0.713,7.616-1.927,10.993-1.821"/>
	<path fill="none" stroke="#FFFFFF" stroke-width="0.7" stroke-miterlimit="10" d="M270.5,68.395
		c2.154,0.684,4.054-0.035,6.111-0.472c2.3-0.487,4.808-0.232,7.14-0.456c2.928-0.281,5.973-0.568,8.772-1.185
		c1.461-0.322,4.117-1.297,5.672-1.156"/>
	<path fill="none" stroke="#FFFFFF" stroke-width="0.7" stroke-miterlimit="10" d="M276.335,72.129
		c4.291-0.014,8.993,0.149,13.288-0.228c2.954-0.261,5.808-1.778,8.701-2.11c1.637-0.188,4.933-0.083,6.587-0.083"/>
	<path fill="none" stroke="#FFFFFF" stroke-width="0.7" stroke-miterlimit="10" d="M282.635,76.33
		c3.71,0.934,9.647-0.382,13.306-1.349c1.933-0.508,12.66-1.318,13.377,0.551"/>
	<path fill="none" stroke="#FFFFFF" stroke-width="0.7" stroke-miterlimit="10" d="M286.977,80.2
		c2.769,1.046,9.096-0.836,12.203-0.836c3.437,0,8.258-0.049,11.497,1.153"/>
	<path fill="none" stroke="#FFFFFF" stroke-width="0.7" stroke-miterlimit="10" d="M288.937,83.564
		c3.985,0,7.948-0.017,11.906,0.234c3.249,0.207,8.713,0.368,11.431,2.031"/>
	<path fill="none" stroke="#FFFFFF" stroke-width="0.7" stroke-miterlimit="10" d="M221.671,66.451
		c2.434-0.017,5.403-1.33,7.989-1.324c2.355,0.006,4.71,0,7.064,0c5.641,0,11.548-0.084,16.99,1.354
		c4.434,1.173,9.062,2.78,13.219,4.889c4.378,2.22,8.883,4.804,12.717,7.811c2.171,1.7,3.385,4.523,5.312,6.483
		c1.307,1.329,1.857,2.703,2.79,4.272c1.114,1.873,3.552,3.909,5.094,5.502c2.25,2.318,4.815,4.333,7.519,6.095
		c4.207,2.742,6.863,8.478,9.339,12.982c1.021,1.853,1.28,4.115,1.946,5.687c1.059,2.5,1.818,5.449,2.338,8.167
		c0.17,0.888,1.282,3.97,1.551,4.846c1.167,3.77,1.167,3.77,1.285,4.001l0.873,2.646c0,0,1.014,3.461,0.993,3.743"/>
	<path fill="none" stroke="#FFFFFF" stroke-width="0.7" stroke-miterlimit="10" d="M219.156,68.72
		c2.624,0.089,6.284-0.659,8.836-0.792c2.604-0.135,4.467,0.848,6.947,1.114c5.225,0.561,10.413,0.241,15.551,0.929
		c5.207,0.697,13.026,2.025,17.442,4.877c4.067,2.626,7.797,5.999,10.747,9.41c1.946,2.249,3.741,4.525,5.61,6.989
		c2.414,3.178,5.535,6.989,8.742,9.389c3.378,2.526,7.39,4.312,10.081,7.666c2.429,3.029,3.878,6.341,5.256,9.801
		c1.654,4.152,3.283,9.793,3.283,9.793c0.501,1.207,1.01,4.054,1.555,5.609l0.781,3.112c0,0,1.967,5.855,1.317,4.832"/>
	<path fill="none" stroke="#FFFFFF" stroke-width="0.7" stroke-miterlimit="10" d="M306.906,123.471"/>
	<path fill="none" stroke="#FFFFFF" stroke-width="0.7" stroke-miterlimit="10" d="M308.539,133.506"/>
	<path fill="none" stroke="#FFFFFF" stroke-width="0.7" stroke-miterlimit="10" d="M218.224,70.652
		c2.149,0.018,6.989-0.105,9.101,0.077c2.342,0.202,5.324,0.547,6.303,0.701c3.672,0.576,6.718,1.098,10.736,1.087
		c7.263-0.02,10.831,0.897,13.067,1.362c3.852,0.803,7.791,2.462,11.007,4.852c3.03,2.249,5.526,6.249,8.316,8.91
		c3.216,3.066,6.268,7.337,9.379,10.51c1.202,1.222,2.812,2.316,3.735,3.383c1.308,1.501,3.823,2.774,5.253,4.317
		c1.873,2.023,4.351,2.097,5.873,4.318c0.619,0.902,1.636,3.281,2.413,4.347c2.657,3.654,3.499,7.554,4.735,11.703
		c0.805,2.702,1.026,6.975,2.116,9.619"/>
	<path fill="none" stroke="#FFFFFF" stroke-width="0.7" stroke-miterlimit="10" d="M217.262,73.342
		c3.544,0,8.564-0.476,11.881,0.695c2.102,0.743,3.227,1.829,5.652,2.059c2.235,0.211,4.668,0.445,6.825,0.649
		c5.784,0.548,11.727-0.407,17.434,0.95c6.657,1.581,9.646,7.419,14.639,11.529c3.199,2.635,6.519,4.505,9.305,7.928
		c2.597,3.19,4.509,7.068,8.081,9.341c1.18,0.752,2.872,1.04,3.869,2.042c0.804,0.807,1.062,1.853,1.696,2.754
		c1.398,1.987,3.304,3.096,4.356,5.237c1.031,2.099,2.293,4.532,2.993,6.77c0.795,2.542,1.209,6.172,1.276,8.811"/>
	<path fill="none" stroke="#FFFFFF" stroke-width="0.7" stroke-miterlimit="10" d="M219.156,76.797c3.273,0,7.146-0.71,10.081,0.24
		c3.355,1.083,6.447,2.25,10.035,2.61c3.89,0.392,7.581,1.8,11.401,2.05c7.188,0.471,15.448,1.943,19.357,8.969"/>
	<path fill="none" stroke="#FFFFFF" stroke-width="0.7" stroke-miterlimit="10" d="M281.343,102.701
		c2.256,1.509,4.632,2.782,6.422,4.907c1.479,1.757,3.949,3.075,5.652,4.609c3.283,2.961,6.914,9.308,6.954,13.846"/>
	<path fill="none" stroke="#FFFFFF" stroke-width="0.7" stroke-miterlimit="10" d="M221.671,80.298
		c2.414,0.811,6.428,1.147,8.689,1.864c1.836,0.583,3.912,1.012,5.786,1.455c2.797,0.658,10.036,0.95,11.949,3.293"/>
	<path fill="none" stroke="#FFFFFF" stroke-width="0.7" stroke-miterlimit="10" d="M223.591,84.732
		c5.452,0,10.753,1.475,15.226,3.872"/>
	<path fill="none" stroke="#FFFFFF" stroke-width="0.7" stroke-miterlimit="10" d="M224.526,87.765
		c2.648,0.02,7.353,1.525,9.81,2.031"/>
	<path fill="none" stroke="#FFFFFF" stroke-width="0.7" stroke-miterlimit="10" d="M328.555,117.32
		c-0.158-0.511-1.631-1.594-1.406-2.484c-3.385-1.05-5.91-1.293-7.186-3.232c-1.089-1.657-1.272-2.134-3.257-4.585
		c-0.203-0.661-1.982-2.992-3.032-5.717c-0.917-2.377-2.782-3.831-4.896-5.116c-1.744-1.06-3.771-1.676-5.67-2.509
		c-2.253-0.99-4.443-3.618-6.705-4.406"/>
	<path fill="none" stroke="#FFFFFF" stroke-width="0.7" stroke-miterlimit="10" d="M302.006,88.932
		c4.343,2.626,10.892,4.033,13.949,8.396c2.366,3.379,3.914,12.374,8.686,12.374"/>
	<path fill="none" stroke="#FFFFFF" stroke-width="0.7" stroke-miterlimit="10" d="M311.572,107.368
		c0.904,0.421,4.432,4.434,5.076,5.118c1.606,1.71,2.168,2.406,4.271,3.513c3.192,1.678,5.058,4.317,9.089,4.206"/>
	<path fill="none" stroke="#FFFFFF" stroke-width="0.7" stroke-miterlimit="10" d="M331.644,129.072
		c-2.562-1.721-5.33-2.37-8.013-3.664c-2.5-1.208-4.514-3.649-6.925-5.204"/>
	<path fill="none" stroke="#FFFFFF" stroke-width="0.7" stroke-miterlimit="10" d="M318.495,129.772
		c4.433,2.567,9.53,4.449,13.613,4.668"/>
	<path fill="none" stroke="#FFFFFF" stroke-width="0.7" stroke-miterlimit="10" d="M314.841,114.836
		c2.374,2.238,6.229,5.618,9.332,7.001c2.871,1.279,3.962,1.887,7.004,2.567"/>
	<path fill="none" stroke="#FFFFFF" stroke-width="0.7" stroke-miterlimit="10" d="M317.406,125.104
		c4.551,2.801,9.385,6.161,14.237,6.301"/>
	<path fill="none" stroke="#FFFFFF" stroke-width="0.7" stroke-miterlimit="10" d="M319.34,132.339
		c1.868,1.167,4.831,2.915,6.584,3.5c2.072,0.692,5.596,2.488,7.817,2.282"/>
	<path fill="none" stroke="#FFFFFF" stroke-width="0.7" stroke-miterlimit="10" d="M334.908,145.874
		c-4.9-1.479-10.604-2.926-14.118-6.981"/>
	<path fill="none" stroke="#FFFFFF" stroke-width="0.7" stroke-miterlimit="10" d="M320.09,135.839
		c3.383,1.949,5.225,3.381,7.936,4.512c1.689,0.707,4.275,1.387,6.183,1.22"/>
	<path fill="none" stroke="#FFFFFF" stroke-width="0.7" stroke-miterlimit="10" d="M331.877,127.463
		c1.672,1.511,4.88,5.229,6.06,7.204c1.548,2.585,2.398,5.553,3.801,8.109c2.833,5.169,8.769,9.292,10.208,15.234"/>
	<path fill="none" stroke="#FFFFFF" stroke-width="0.7" stroke-miterlimit="10" d="M332.946,133.973
		c0.895,3.072,2.193,6.329,3.227,9.349c1.157,3.385,4.436,6.843,4.68,10.402"/>
	<path fill="none" stroke="#FFFFFF" stroke-width="0.7" stroke-miterlimit="10" d="M333.258,133.506
		c0.352,1.654,2.976,4.153,3.938,5.478c1.257,1.729,1.914,3.629,2.802,5.554c1.722,3.731,5.492,7.874,6.926,11.675"/>
	<path fill="none" stroke="#FFFFFF" stroke-width="0.7" stroke-miterlimit="10" d="M300.371,96.167
		c1.083,0.208,3.267,0.762,4.252,1.284c1.201,0.636,2.731,1.151,3.949,1.893c1.523,0.929,2.534,2.355,2.881,4.058
		c0.247,1.213,0.235,3.359,0.82,4.496"/>
	<path fill="none" stroke="#FFFFFF" stroke-width="0.7" stroke-miterlimit="10" d="M179.408,131.794
		c1.903-0.33,3.533,1.46,4.902,2.573c2.54,2.065,5.328,3.812,7.33,6.462c1.99,2.633,6.481,5.761,7.525,8.779
		c0.146,0.052,0.381,0.422,0.536,0.388"/>
	<path fill="none" stroke="#FFFFFF" stroke-width="0.7" stroke-miterlimit="10" d="M191.81,128.216
		c1.459,1.111,3.527,2.344,5.098,3.189c2.578,1.388,4.907,4.314,6.768,6.612c1.403,1.732,2.869,3.093,4.203,4.792
		c0.669,0.85,1.262,2.531,1.401,3.564"/>
	<path fill="none" stroke="#FFFFFF" stroke-width="0.7" stroke-miterlimit="10" d="M202.102,124.232
		c2.949,0.234,8,4.452,9.966,6.474c2.599,2.669,4.653,4.718,5.688,6.145c0.695,0.954,1.456,2.149,2.102,3.189
		c0.584,0.943,0.728,2.386,1.789,2.684"/>
	<path fill="none" stroke="#FFFFFF" stroke-width="0.7" stroke-miterlimit="10" d="M185.942,130.706
		c2.717,1.344,6.472,3.567,8.632,5.678c1.151,1.124,3.149,2.602,4.125,3.967c0.672,0.943,1.111,2.555,2.333,3.579
		c1.403,1.905,1.203,2.502,2.178,4.045"/>
	<path fill="none" stroke="#FFFFFF" stroke-width="0.7" stroke-miterlimit="10" d="M196.568,126.386
		c1.294-0.203,6.179,3.58,7.42,4.319c1.59,0.946,3.371,2.523,4.59,3.981c1.396,1.673,2.582,1.935,3.943,3.657
		c1.111,1.4,2.893,4.168,3.17,5.968"/>
	<path fill="none" stroke="#FFFFFF" stroke-width="0.7" stroke-miterlimit="10" d="M208.196,121.815
		c1.744,0.909,4.158,2.352,5.437,3.756c1.74,1.909,4.335,3.951,6.068,5.834c1.131,1.229,2.932,1.288,3.894,2.7
		c0.725,1.064,1.121,2.123,1.708,3.259c0.527,1.017,2.32,3.181,2.53,4.232"/>
	<path fill="none" stroke="#FFFFFF" stroke-width="0.7" stroke-miterlimit="10" d="M225.224,115.614
		c1.907,0.661,2.903,1.512,4.869,2.68c1.406,0.836,3.019,2.113,4.128,3.346c2.271,2.523,4.27,6.812,6.018,9.766
		c1.877,3.171,5.163,5.448,7.594,8.168"/>
	<path fill="none" stroke="#FFFFFF" stroke-width="0.7" stroke-miterlimit="10" d="M212.852,119.988
		c2.805-0.443,6.372,4.105,8.095,5.625c2.382,2.1,5.572,4.317,7.776,6.57c1.532,1.563,1.156,3.615,2.771,5.215
		c0.548,0.542,2.556,2.506,2.991,2.952c1.111,1.143-0.854,0.871,0,1.867"/>
	<path fill="none" stroke="#FFFFFF" stroke-width="0.7" stroke-miterlimit="10" d="M232.926,114.059
		c1.51-0.015,2.293,1.494,3.292,2.333c1.021,0.858,2.216,1.417,3.196,2.287c2.85,2.53,4.736,8.44,7.125,11.326
		c0.855,1.039,1.488,2.024,2.31,3.112c0.733,0.97,1.188,0.712,1.733,1.712c0.729,1.34,1.954,2.024,2.881,3.189"/>
	<path fill="none" stroke="#FFFFFF" stroke-width="0.7" stroke-miterlimit="10" d="M218.883,117.785
		c2.405,1.643,4.139,2.148,6.371,4.079c2.924,2.525,5.458,5.371,7.616,8.451c1.581,2.255,3.792,3.871,5.022,6.31
		c0.725,1.437,0.657,3.397,2.346,4.038"/>
	<path fill="none" stroke="#FFFFFF" stroke-width="0.7" stroke-miterlimit="10" d="M240.086,114.213
		c2.516,0.915,4.646,3.025,6.365,4.955c2.517,2.827,2.945,6.481,5.298,9.438c1.487,1.868,2.868,2.921,3.966,4.872
		c0.497,0.881,2.775,3.073,3.66,3.607"/>
	<path fill="none" stroke="#FFFFFF" stroke-width="0.7" stroke-miterlimit="10" d="M249.729,115.614
		c1.83,1.454,2.665,3.313,4.034,4.977c2.056,2.495,2.591,6.374,4.365,9.103c1.156,1.778,3.628,2.335,4.711,4.111
		c0.607,0.991,1.544,2.144,1.981,3.28"/>
	<path fill="none" stroke="#FFFFFF" stroke-width="0.7" stroke-miterlimit="10" d="M258.828,119.503
		c-0.05,0.799,0.508,1.604,0.756,2.331c0.309,0.898,0.562,1.774,0.798,2.685c0.286,1.103,0.778,1.658,1.562,2.459
		c0.822,0.838,1.521,1.829,2.27,2.735c0.847,1.025,1.579,2.306,2.157,3.479c0.224,0.453,0.449,0.908,0.644,1.327
		c0.253,0.542,0.368,2.047,0.759,2.565"/>
	<path fill="none" stroke="#FFFFFF" stroke-width="0.7" stroke-miterlimit="10" d="M27.562,119.435
		c4.938,1.712,11.354-2.049,14.025-4.685c2.665-2.629,6.429-3.76,9.544-5.836c8.321-5.547,16.842-12.616,26.197-16.543
		c9.108-3.822,19.933-3.949,29.661-4.45c4.679-0.241,10.41-0.764,14.853,0.235c3.121,0.701,7.638,2.032,10.501,3.428
		c6.377,3.109,12.926,4.031,19.674,6.279c4.935,1.643,9.329,4.521,13.698,6.55"/>
	<path fill="none" stroke="#FFFFFF" stroke-width="0.7" stroke-miterlimit="10" d="M50.36,103.613
		c-0.625-0.935-3.958-1.869-7.381-1.869"/>
	<path fill="none" stroke="#FFFFFF" stroke-width="0.7" stroke-miterlimit="10" d="M68.634,83.098
		c4.381,1.374,9.428-0.264,13.069,2.8"/>
	<path fill="none" stroke="#FFFFFF" stroke-width="0.7" stroke-miterlimit="10" d="M47.164,97.566
		c2.856,1.027,5.867-0.231,7.935,2.333"/>
	<path fill="none" stroke="#FFFFFF" stroke-width="0.7" stroke-miterlimit="10" d="M64.702,85.873c4.221,0,8.777-1.099,11.399,2.359
		"/>
	<path fill="none" stroke="#FFFFFF" stroke-width="0.7" stroke-miterlimit="10" d="M51.5,93.833
		c7.465,1.177,4.466-0.471,9.133,2.796"/>
	<path fill="none" stroke="#FFFFFF" stroke-width="0.7" stroke-miterlimit="10" d="M74.702,80.852
		c6.236,0.021,9.622-0.416,13.534,4.58"/>
	<path fill="none" stroke="#FFFFFF" stroke-width="0.7" stroke-miterlimit="10" d="M57.53,90.231
		c3.354,1.146,5.389,1.17,8.771,2.201"/>
	<path fill="none" stroke="#FFFFFF" stroke-width="0.7" stroke-miterlimit="10" d="M81.314,77.837
		c4.03,0.423,8.254,2.501,10.657,5.26"/>
	<path fill="none" stroke="#FFFFFF" stroke-width="0.7" stroke-miterlimit="10" d="M62.099,88.232
		c1.703,0.068,3.469-0.4,4.978,0.233c1.09,0,3.053,0.314,4.045,1.479"/>
	<path fill="none" stroke="#FFFFFF" stroke-width="0.7" stroke-miterlimit="10" d="M48.207,106.006
		c-1.368-0.805-4.86-2.336-6.646-2.155"/>
	<path fill="none" stroke="#FFFFFF" stroke-width="0.7" stroke-miterlimit="10" d="M89.945,76.548
		c2.475,1.162,6.624,2.721,7.16,5.617"/>
	<path fill="none" stroke="#FFFFFF" stroke-width="0.7" stroke-miterlimit="10" d="M23.593,125.572
		c13.4-1.245,19.059-11.241,29.527-15.379c3.466-1.37,9.054-6.396,12.401-7.959c4.989-2.333,7.084-4.382,11.98-6.533
		c6.137-2.698,30.815-5.727,37.337-4.529c18.981,3.484,25.374,5.264,43.577,15.999"/>
	<path fill="none" stroke="#FFFFFF" stroke-width="0.7" stroke-miterlimit="10" d="M308.539,153.922
		c4.84,2.487,4.584,3.893,6.302,5.194c3.206,2.433,6.75,2.818,9.921,5.195"/>
	<path fill="none" stroke="#FFFFFF" stroke-width="0.7" stroke-miterlimit="10" d="M323.009,151.242
		c1.213,0.418,2.467,0.209,3.608,0.708c1.337,0.586,4.867,1.957,6.191,2.714c2.301,1.316,3.592,1.43,6.068,2.324
		c1.727,0.623,4.569,2.284,6.046,3.247"/>
	<path fill="none" stroke="#FFFFFF" stroke-width="0.7" stroke-miterlimit="10" d="M313.322,152.718
		c3.384,3.347,3.59,4.546,7.366,6.616c2.192,1.202,8.857,1.715,10.488,3.578"/>
	<path fill="none" stroke="#FFFFFF" stroke-width="0.7" stroke-miterlimit="10" d="M318.495,151.554
		c2.892-0.306,6.864,2.676,9.343,3.923c2.814,1.417,10.305,3.31,12.556,5.414"/>
	<path fill="none" stroke="#FFFFFF" stroke-width="0.7" stroke-miterlimit="10" d="M316.706,151.921
		c1.521-0.004,2.974,1.811,4.084,3.289c0.807,1.072,1.981,1.909,3.243,2.383c2.725,1.023,10.591,2.831,12.51,4.852"/>
	<path fill="none" stroke="#FFFFFF" stroke-width="0.7" stroke-miterlimit="10" d="M294.691,156.999
		c4.381-0.274,6.361,6.042,10.268,6.482"/>
	<path fill="none" stroke="#FFFFFF" stroke-width="0.7" stroke-miterlimit="10" d="M305.09,154.865
		c1.748-0.551,3.668,3.486,4.646,4.515c0.732,0.767,1.643,1.188,2.512,1.817c0.693,0.502,1.189,1.637,2.204,1.715"/>
	<path fill="none" stroke="#FFFFFF" stroke-width="0.7" stroke-miterlimit="10" d="M292.792,158.01
		c2.624-0.231,4.815,3.153,6.257,4.746"/>
	<path fill="none" stroke="#FFFFFF" stroke-width="0.7" stroke-miterlimit="10" d="M300.59,155.598
		c1.463-0.055,4.192,3.016,5.188,3.844c1.123,0.93,2.751,2.741,3.812,3.469"/>
	<path fill="none" stroke="#FFFFFF" stroke-width="0.7" stroke-miterlimit="10" d="M37.555,107.786c1.845,0,5.371-0.137,6.65,1.09"
		/>
	<path fill="none" stroke="#FFFFFF" stroke-width="0.7" stroke-miterlimit="10" d="M62.644,109.134
		c2.058-0.805,7.533-5.354,10.735-6.081c2.048-0.463,4.184-2.341,6.224-3.154c2.4-0.956,5.428-1.079,7.717-2.333
		c3.531-1.934,5.407-1.26,9.628-1.496c3.765-0.209,7.578-0.829,11.39-0.472c4.374,0.41,5.942-0.883,10.237-0.131
		c4.068,0.712,5.694,2.526,9.778,3.267c2.178,0.395,9.939,1.835,11.996,2.757c2.545,1.143,5.398,2.467,7.164,4.515
		c1.099,1.276,3.79,2.765,4.587,4.125"/>
	<path fill="none" stroke="#FFFFFF" stroke-width="0.7" stroke-miterlimit="10" d="M21.493,130.25
		c1.771,0.233,13.864-3.049,14.573-4.679"/>
	<path fill="none" stroke="#FFFFFF" stroke-width="0.7" stroke-miterlimit="10" d="M18.623,134.44
		c0.883-0.854,5.198-1.271,6.604-1.868c1.843-0.781,3.961-1.391,5.601-2.333"/>
	<path fill="none" stroke="#FFFFFF" stroke-width="0.7" stroke-miterlimit="10" d="M75.402,105.734
		c4.471,1.312,9.198-3.97,13.063-5.541c2.146-0.873,4.941-0.573,7.247-0.772c3.276-0.282,6.49-0.454,9.853-0.454
		c5.155,0,10.193-0.101,14.856,1.731c3.335,1.31,6.69,2.605,9.994,3.915c1.771,0.703,3.643,1.119,5.419,1.758
		c1.936,0.698,2.84,1.87,4.421,3.097c0.966,0.75,3.07,2.395,4.191,2.869"/>
	<path fill="none" stroke="#FFFFFF" stroke-width="0.7" stroke-miterlimit="10" d="M86.371,106.006
		c2.485-0.11,4.796-2.242,7.473-2.371c2.667-0.127,5.498-0.185,8.168-0.456c4.53-0.46,9.788-1.151,14.395-0.495
		c4.729,0.674,10.428,3.139,14.308,5.676c2.111,1.379,5.997,5.183,8.631,4.766"/>
	<path fill="none" stroke="#FFFFFF" stroke-width="0.7" stroke-miterlimit="10" d="M93.549,107.524
		c4.48-1.354,8.46-1.285,11.613-1.285c3.7,0,8.442-1.323,12.012-0.233c4.987,1.521,11.18,4.284,15.169,8.404"/>
	<path fill="none" stroke="#FFFFFF" stroke-width="0.7" stroke-miterlimit="10" d="M102.95,111.17
		c1.703-0.335,2.658-1.608,4.446-1.872c1.396-0.206,3.262-0.144,4.667,0.006c3.204,0.341,5.796,1.257,7.771,3.422"/>
	<path fill="none" stroke="#FFFFFF" stroke-width="0.7" stroke-miterlimit="10" d="M33.784,128.062
		c3.567,1.253,7.954,0.452,11.513,1.555"/>
	<path fill="none" stroke="#FFFFFF" stroke-width="0.7" stroke-miterlimit="10" d="M36.273,124.327
		c4.694,0.012,8.373,2.303,12.758,2.177"/>
	<path fill="none" stroke="#FFFFFF" stroke-width="0.7" stroke-miterlimit="10" d="M64.702,123.147
		c-3.373-0.569-4.403-2.578-7.581-3.798c-3.45-1.326-6.442-1.643-9.728-2.913"/>
	<path fill="none" stroke="#FFFFFF" stroke-width="0.7" stroke-miterlimit="10" d="M15.426,143.307c2.52,0,5.21-0.318,7.468,0.623"
		/>
	<path fill="none" stroke="#FFFFFF" stroke-width="0.7" stroke-miterlimit="10" d="M11.816,146.108
		c2.65,0.985,4.464,0.874,7.032,2.489"/>
	<path fill="none" stroke="#FFFFFF" stroke-width="0.7" stroke-miterlimit="10" d="M42.472,119.691
		c2.337,0.743,3.985,0.415,5.938,0.902c2.642,0.657,4.546,2.41,7.156,3.111"/>
	<path fill="none" stroke="#FFFFFF" stroke-width="0.7" stroke-miterlimit="10" d="M60.933,109.167
		c7.123,3.171,6.904,4.811,8.868,5.916c2.373,1.336,4.398,2.729,6.209,3.954c1.633,1.102,2.743,4.066,4.804,4.363"/>
	<path fill="none" stroke="#FFFFFF" stroke-width="0.7" stroke-miterlimit="10" d="M64.9,107.524
		c1.55,0.616,5.519-1.203,7.157-0.827c1.525,0.35,2.683,2.519,4.044,3.295c2.897,1.649,4.426,1.914,6.766,4.383
		c2.725,2.876,5.474,4.751,9.322,5.957"/>
	<path fill="none" stroke="#FFFFFF" stroke-width="0.7" stroke-miterlimit="10" d="M84.814,106.181
		c2.506,3.812,13.206,6.589,18.047,9.433"/>
	<path fill="none" stroke="#FFFFFF" stroke-width="0.7" stroke-miterlimit="10" d="M64.702,108.329
		c5.524,1.078,4.977,1.82,6.419,2.569c2.303,1.197,4.114,1.729,5.915,3.619c3.267,3.43,6.932,5.028,10.284,7.32"/>
	<path fill="none" stroke="#FFFFFF" stroke-width="0.7" stroke-miterlimit="10" d="M77.036,106.006
		c2.299,0.691,7.77,5.554,10.284,6.765c3.086,1.486,8.073,3.859,11.496,4.482"/>
	<path fill="none" stroke="#FFFFFF" stroke-width="0.7" stroke-miterlimit="10" d="M57.588,112.192
		c1.233,2.157,4.602,2.995,6.603,4.317c2.234,1.477,4.094,4.247,5.91,6.071"/>
	<path fill="none" stroke="#FFFFFF" stroke-width="0.7" stroke-miterlimit="10" d="M135.166,117.785
		c3.821,0.336,7.775-1.33,11.426-2.029c3.979-0.763,8.011-0.668,12.03-1.491c6.711-1.374,13.167-5.175,19.241-8.31
		c6.404-3.305,12.81-5.43,19.592-6.522c7.403-1.192,15.858-0.073,23.233-1.504c6.646-1.29,13.016-3.441,19.569-4.909
		c5.936-1.328,12.669-0.99,18.806-1.055c8.148-0.087,9.829,4.462,15.276,9.439c9.094,8.305,15.446,20.983,23.841,30.35
		c2.729,4.084,4.799,5.13,6.156,8.752"/>
	<path fill="none" stroke="#FFFFFF" stroke-width="0.7" stroke-miterlimit="10" d="M139.346,120.501
		c2.568,0.933,5.521-1.254,8.082-1.793c2.876-0.604,5.905-0.854,9.04-1.295c6.817-0.962,12.742-2.717,18.569-6.161
		c5.491-3.246,12.292-4.455,18.085-6.527c5.315-1.9,9.489-3.113,15.518-3.113c10.188,0,20.155-0.312,29.65-3.361
		c4.599-1.477,8.262-2.651,13.313-2.861c9.938-0.415,15.639,4.867,22.404,11.374c3.306,3.18,7.452,6.867,9.588,11.014
		c1.201,2.337,4.076,5.488,5.342,7.872c1.356,2.554,1.911,3.39,3.855,5.439c2.915,3.075,5.181,7.433,7.036,10.975"/>
	<path fill="none" stroke="#FFFFFF" stroke-width="0.7" stroke-miterlimit="10" d="M166.615,131.537
		c2.072,0.45,6.747-2.375,8.732-3.141c2.645-1.019,5.189-2.187,7.785-3.144c5.142-1.892,10.616-2.415,15.902-4.218
		c10.832-3.696,21.178-9.261,32.646-10.391c10.128-0.999,19.491-0.715,28.082,4.039c4.55,2.517,8.261,4.429,10.73,9.178
		c2.343,4.507,4.056,8.862,5.996,13.847"/>
	<path fill="none" stroke="#FFFFFF" stroke-width="0.7" stroke-miterlimit="10" d="M145.312,123.556
		c5.736,2.063,12.494-3.155,18.102-4.266c5.63-1.115,12.702-5.074,18.171-6.52c5.867-1.55,9.345-4.047,15.135-5.868
		c6.475-2.035,12.633-1.856,19.402-2.158c13.877-0.621,24.909-5.343,38.896-4.531c7.929,0.459,13.508,6.645,18.591,11.917
		c3.618,3.753,7.196,9.926,10.97,13.907c2.953,3.116,4.638,5.771,6.688,9.201c1.523,2.541,3.236,3.296,3.423,6.358"/>
	<path fill="none" stroke="#FFFFFF" stroke-width="0.7" stroke-miterlimit="10" d="M152.854,126.854
		c5.146,1.345,12.87-4.17,17.778-5.881c6.074-2.117,11.941-5.246,18.421-6.845c5.145-1.27,10.114-3.678,15.246-4.427
		c2.942-0.429,5.726-1.326,8.714-1.555c3.377-0.259,7.226-0.925,10.577-1.245c3.396-0.324,7.655-1.494,11.086-2.158
		c4.424-0.857,7.659-0.335,12.235-0.712c3.816-0.315,6.764-0.579,10.037,1.541c1.93,1.25,9.782,3.955,10.824,5.296
		c4.51,3.594,8.529,10.265,12.216,14.001c5.11,5.181,7.44,8.791,8.947,16.259"/>
	<path fill="none" stroke="#FFFFFF" stroke-width="0.7" stroke-miterlimit="10" d="M159.804,128.372
		c5.327-1.138,11.859-3.651,17.1-5.495c5.88-2.069,11.078-3.708,17.066-5.784c4.96-1.718,11.264-1.753,16.395-3.968
		c4.598-1.983,9.717-1.867,14.858-3.423c11.473-3.471,25.179-2.708,36.018,1.859c4.399,1.855,8.63,6.123,11.366,9.903
		c2.051,2.827,4.483,5.818,6.137,8.852c1.656,3.034,1.847,6.568,3.424,9.257"/>
	<path fill="none" stroke="#FFFFFF" stroke-width="0.7" stroke-miterlimit="10" d="M26.316,139.573
		c2.583,0.26,4.845-0.985,7.14-1.573c2.745-0.704,7.088-0.973,9.678-2.215c3.162-1.517,6.11-4.575,9.632-5.858
		c2.671-0.974,4.918-0.776,7.755-0.926c14.383-0.756,29.27,0.61,41.81-7.094c2.359-1.449,3.942-2.174,6.497-2.856
		c2.506-0.669,6.014-0.83,8.346-1.104c2.179-0.255,3.193-0.28,5.316,0.45c7.162,2.466,14.084,4.866,20.661,8.821
		c5.219,3.14,10.955,4.321,16.655,6.357c11.129,3.976,23.317,9.246,28.314,20.31"/>
	<path fill="none" stroke="#FFFFFF" stroke-width="0.7" stroke-miterlimit="10" d="M25.072,142.685
		c3.07,0.334,5.576-1.367,8.41-1.874c3.233-0.578,6.66-0.753,9.877-1.542c6.508-1.594,11.244-7.183,18.126-7.164
		c6.326,0.017,13.037,0.527,19.268-0.296c5.218-0.687,12.53-1.674,17.051-4.449c4.807-2.95,11.025-4.741,16.726-5.212
		c2.65-0.219,6.208,0.672,8.556,1.408c3.515,1.098,5.302,1.28,8.382,3.105c3.629,2.151,7.27,3.851,11.221,5.093
		c5.229,1.644,11.399,3.241,16.5,5.952c4.956,2.633,8.639,6.255,14.22,7.704c4.921,1.278,9.203,4.921,10.665,10.033"/>
	<path fill="none" stroke="#FFFFFF" stroke-width="0.7" stroke-miterlimit="10" d="M40.638,144.864
		c6.856-1.42,11.176-6.485,18.04-7.538c5.613-0.861,11.247-0.864,17.114-0.864c7.1,0,13.923-1.136,20.547-3.647
		c6.701-2.54,11.904-5.668,19.281-5.688c4.028-0.011,6.182,1.62,9.731,3.189c4.146,1.833,8.645,2.711,12.968,4.036
		c3.162,0.969,6.636,1.21,9.711,2.359c1.798,0.672,3.147,1.857,4.903,2.785c2.38,1.257,5.212,2.074,7.255,3.891
		c2.555,2.271,4.235,3.35,7.705,4.588c5.293,1.89,10.165,2.77,12.758,8.713"/>
	<path fill="none" stroke="#FFFFFF" stroke-width="0.7" stroke-miterlimit="10" d="M62.412,142.775
		c3.578-1.645,12.809-2.169,18.289-3.219c7.49-1.436,14.672-3.034,22.076-4.659c3.729-0.819,8.53-3.283,12.376-3.143
		c3.608,0.131,6.875,2.851,10.269,3.59c6.038,1.316,10.237,2.913,15.964,4.788c6.64,2.172,13.825,2.153,18.419,8.067
		c1.114,1.436,4.501,3.089,5.911,4.131c1.683,1.242,3.703,0.711,5.496,1.556c2.854,1.344,3.062,2.707,5.084,4.667"/>
	<path fill="none" stroke="#FFFFFF" stroke-width="0.7" stroke-miterlimit="10" d="M73.058,145.151
		c3.286,1.113,6.726-1.742,9.888-2.466c3.14-0.718,6.196-1.198,9.363-1.867c5.473-1.159,10.64-3.231,16.224-3.75
		c6.234-0.579,13.729,2.362,19.821,3.44c6.495,1.148,13.388,3.25,19.309,5.91c3.995,1.794,7.527,4.423,10.843,6.914
		c3.569,2.682,9.565,4.17,12.707,7.225"/>
	<path fill="none" stroke="#FFFFFF" stroke-width="0.7" stroke-miterlimit="10" d="M81.703,147.975
		c6.602-0.815,13.46-3.219,19.914-4.962c5.696-1.54,11.377-1.572,17.425-1.572c6.281,0,12,2.466,17.806,4.986
		c6.031,2.619,14.477,5.913,19.309,10.503c1.571,1.491,7.137,4.469,8.316,6.292"/>
	<path fill="none" stroke="#FFFFFF" stroke-width="0.7" stroke-miterlimit="10" d="M91.212,152.065
		c5.994-1.27,9.765-4.496,15.92-5.094c5.4-0.525,12.363-2.022,17.744-0.637c3.24,0.834,7.838,2.844,10.968,4.088
		c3.024,1.202,5.996,2.086,8.916,3.464c4.535,2.14,8.768,6.436,12.008,9.957"/>
	<path fill="none" stroke="#FFFFFF" stroke-width="0.7" stroke-miterlimit="10" d="M105.818,156.593
		c2.768,1.217,5.738-2.021,8.401-2.707c2.8-0.72,5.421-1.092,8.408-0.932c6.791,0.364,12.379,5.273,17.263,9.47"/>
	<path fill="none" stroke="#FFFFFF" stroke-width="0.7" stroke-miterlimit="10" d="M96.995,154.492
		c2.729,0.613,7.136-2.716,9.92-3.345c2.233-0.504,8.161-1.659,10.416-1.772c4.422-0.221,6.995,0.697,11.023,1.4
		c7.945,1.385,16.465,7.346,22.116,13.068"/>
	<path fill="none" stroke="#FFFFFF" stroke-width="0.7" stroke-miterlimit="10" d="M28.808,147.663
		c3.792,1.436,8.626-1.011,12.462-1.486c3.517-0.436,6.992-0.683,10.562-0.692c6.978-0.018,13.841,2.184,20.637,3.716
		c7.002,1.58,13.372,5.753,20.04,8.194c5.171,1.894,10.388,3.821,15.713,5.134c10.853,2.674,22.68,1.739,32.93,5.98
		c4.302,1.781,8.554,4.183,12.344,6.933c3.766,2.731,7.232,4.628,10.976,7.692c1.271,1.042,3.262,2.418,4.668,3.112"/>
	<path fill="none" stroke="#FFFFFF" stroke-width="0.7" stroke-miterlimit="10" d="M31.606,147.042
		c13.395-1.907,27.495,1.413,39.711,5.913c7.747,2.853,14.691,5.869,22.444,9.099c5.602,2.333,11.987,4.92,17.813,5.524
		c5.436,0.562,10.571,0.302,15.878,1.617c5.389,1.332,11.976,2.771,17.308,5.228c6.999,3.227,12.366,8.111,15.043,10.426"/>
	<path fill="none" stroke="#FFFFFF" stroke-width="0.7" stroke-miterlimit="10" d="M27.562,148.04
		c4.044-0.133,6.028,1.048,8.712,1.179c2.925,0.142,5.59,1.031,8.402,1.573c5.658,1.091,12.23,1.841,17.735,3.7
		c6.75,2.281,14.625,5.024,20.692,7.173c6.388,2.262,10.948,4.624,16.961,7.159c3.305,1.393,6.604,1.929,10.108,2.469
		c3.546,0.55,9.198,0.729,12.682,1.419c2.568,0.509,6.872,1.329,9.49,1.555c5.026,0.437,14.987,5.263,18.126,9.179"/>
	<path fill="none" stroke="#FFFFFF" stroke-width="0.7" stroke-miterlimit="10" d="M15.116,150.775
		c2.993,1.06,7.232,0.391,10.526,0.857c2.28,0.323,4.78,0.844,6.968,1.253c4.19,0.783,10.052,2.759,13.792,4.658"/>
	<path fill="none" stroke="#FFFFFF" stroke-width="0.7" stroke-miterlimit="10" d="M76.01,166.411
		c3.938,2.023,11.74,1.949,15.645,2.958c4.286,1.105,8.667,2.83,12.984,4.175c3.353,1.045,5.536,2.133,9.668,3.057
		c1.785,0.4,6.806,0.469,8.548,0.935c3.621,0.972,14.546,0.935,17.659,5.91"/>
	<path fill="none" stroke="#FFFFFF" stroke-width="0.7" stroke-miterlimit="10" d="M150.47,168.544
		c2.514,0.919,7.36-3.618,9.334-4.7"/>
	<path fill="none" stroke="#FFFFFF" stroke-width="0.7" stroke-miterlimit="10" d="M154.756,171.6
		c4.593-0.771,8.332-7.392,12.886-9.935"/>
	<path fill="none" stroke="#FFFFFF" stroke-width="0.7" stroke-miterlimit="10" d="M202.102,148.597
		c-7.47,4.044-10.389,7.679-16.939,11.96c-2.134,1.395-4.901,4.191-6.946,5.839c-1.604,1.291-3.049,3.215-4.957,4.319
		c-3.554,2.058-8.053,4.88-11.9,5.577"/>
	<path fill="none" stroke="#FFFFFF" stroke-width="0.7" stroke-miterlimit="10" d="M190.298,169.756
		c6.112-1.386,10.019-9.232,15.326-12.766c3.818-2.543,3.619-3.673,7.228-6.654c2.714-2.245,5.336-5.162,13.659-8.21"/>
	<path fill="none" stroke="#FFFFFF" stroke-width="0.7" stroke-miterlimit="10" d="M158.215,174.655
		c3.429-1.863,6.599-4.307,9.368-6.836c3.324-3.038,8.299-5.757,11.202-9.266"/>
	<path fill="none" stroke="#FFFFFF" stroke-width="0.7" stroke-miterlimit="10" d="M176.182,176.292
		c2.523-3.063,10.913-8.976,13.372-12.178c2.344-3.05,5.515-4.854,8.056-7.427c4.321-4.374,10.388-7.744,15.442-11.573"/>
	<path fill="none" stroke="#FFFFFF" stroke-width="0.7" stroke-miterlimit="10" d="M212.079,163.844
		c4.346-1.327,7.106-3.964,10.347-6.854c3.037-2.712,6.314-5.429,9.496-7.788c6.492-4.811,11.271-7.605,22.164-10.561"/>
	<path fill="none" stroke="#FFFFFF" stroke-width="0.7" stroke-miterlimit="10" d="M250.975,150.152
		c3.111-3.037,10.251-7.655,13.378-9.022c4.493-1.962,7.158-2.257,13.381-2.489"/>
	<path fill="none" stroke="#FFFFFF" stroke-width="0.7" stroke-miterlimit="10" d="M206.168,165.415
		c4.683-4.179,9.084-9.75,13.59-13.775c4.303-3.843,8.93-7.796,17.136-10.2"/>
	<path fill="none" stroke="#FFFFFF" stroke-width="0.7" stroke-miterlimit="10" d="M234.832,156.212
		c2.295-3.104,7.467-7.132,9.296-8.238c2.036-1.229,4.928-3.633,6.847-5.045c3.857-2.841,4.823-4.864,10.578-5.487"/>
	<path fill="none" stroke="#FFFFFF" stroke-width="0.7" stroke-miterlimit="10" d="M263.111,149.842
		c7.447-5.446,11.464-8.514,19.057-10.268"/>
	<path fill="none" stroke="#FFFFFF" stroke-width="0.7" stroke-miterlimit="10" d="M274.622,152.954
		c5.292-3.112,11.718-5.428,16.181-7.157c4.502-1.744,10.622-3.058,15.2-4.356"/>
	<path fill="none" stroke="#FFFFFF" stroke-width="0.7" stroke-miterlimit="10" d="M286.448,156.688
		c10.554-5.899,23.868-10.06,36.092-9.957"/>
	<path fill="none" stroke="#FFFFFF" stroke-width="0.7" stroke-miterlimit="10" d="M271.511,151.086
		c3.111-3.4,8.356-5.406,10.269-6.379c2.904-1.477,5.652-1.955,9.023-2.333"/>
	<path fill="none" stroke="#FFFFFF" stroke-width="0.7" stroke-miterlimit="10" d="M281.779,155.442
		c3.888-2.725,5.344-3.092,8.112-4.433c2.605-1.259,5.427-2.098,8.145-3.276c5.259-2.28,11.309-3.95,16.628-5.608"/>
	<path fill="none" stroke="#FFFFFF" stroke-width="0.7" stroke-miterlimit="10" d="M168.828,182.223
		c5.29-0.907,8.375-2.299,11.371-2.988c4.108-0.946,7.67-3.192,11.667-4.669c6.807-2.513,13.611-4.228,20.536-5.938
		c13.341-3.298,26.591-12.106,40.442-13.489c4.261-0.425,9.287-0.378,13.688,0.304c4.736,0.735,10.875,4.167,15.248,6.242
		c7.39,3.506,16.602,6.367,24.224,6.858"/>
	<path fill="none" stroke="#FFFFFF" stroke-width="0.7" stroke-miterlimit="10" d="M172.026,184.849
		c6.535-0.26,13.882-3.957,18.583-5.789c5.509-2.148,10.7-4.07,16.252-5.794c5.767-1.79,11.886-2.469,17.665-4.512
		c5.994-2.121,11.079-5.813,17.059-7.863c8.162-2.795,19.731-3.604,27.991-0.788c8.548,2.913,19.36,8.687,29.455,11.312"/>
	<path fill="none" stroke="#FFFFFF" stroke-width="0.7" stroke-miterlimit="10" d="M180.029,187.492
		c5.913-1.868,16.855-7.423,20.825-9.021c5.999-2.418,12.416-3.351,18.304-5.376c12.877-4.426,19.841-10.17,33.217-12.051
		c5.69-0.801,16.808,2.736,22.17,4.768c4.59,1.74,11.375,4.794,15.487,7.149"/>
	<path fill="none" stroke="#FFFFFF" stroke-width="0.7" stroke-miterlimit="10" d="M194.575,186.56
		c2.72-1.179,7.672-4.322,10.191-5.761c2.725-1.553,9.335-1.903,12.317-3.366c1.932-0.951,10.11-5.208,19.81-9.388
		c7.414-3.195,10.922-4.114,18.553-4.201c12.002-0.139,29.937,11.159,32.558,10.366"/>
	<path fill="none" stroke="#FFFFFF" stroke-width="0.7" stroke-miterlimit="10" d="M204.352,186.56
		c0.563-1.023,3.132-2.467,4.196-3.018c1.327-0.69,2.673-1.481,4.078-2.102c2.069-0.916,4.309-1.156,6.522-1.544
		c0.867-0.151,1.682-0.446,2.568-0.678c0.709-0.185,1.627-0.043,2.225-0.438"/>
	<path fill="none" stroke="#FFFFFF" stroke-width="0.7" stroke-miterlimit="10" d="M219.975,185.431
		c0.448-1.572,3.318-1.543,4.553-2.503c1.297-1.008,2.324-2.151,3.701-3.097c3.176-2.175,6.163-3.914,9.836-5.223
		c5.656-2.015,11.549-3.525,17.735-3.531c2.301,0,4.23,1.104,6.497,1.395c2.017,0.257,3.795,0.502,5.756,1.063
		c3.429,0.982,6.276,3.68,9.563,5.127"/>
	<path fill="none" stroke="#FFFFFF" stroke-width="0.7" stroke-miterlimit="10" d="M225.685,185.664
		c1.346-1.798,8.353-5.712,9.896-6.626c1.569-0.926,3.382-1.312,4.963-2.209c1.244-0.706,2.706-1.276,4.133-1.634
		c0.958-0.239,1.927-0.273,2.886-0.606c1.16-0.405,2.85-0.1,4.034-0.379c1.623-0.381,2.273-0.397,3.706,0.057
		c1.704,0.543,3.544,0.494,5.304,0.776c2.399,0.385,4.82,0.791,7.146,1.511c1.506,0.467,4.018,0.999,4.613,2.575"/>
	<path fill="none" stroke="#FFFFFF" stroke-width="0.7" stroke-miterlimit="10" d="M230.36,185.431
		c1.076,0.437,2.325-1.005,3.148-1.635c0.728-0.557,1.29-1.292,2.123-1.752c0.902-0.498,1.945-0.768,2.87-1.262
		c0.556-0.296,0.939-0.597,1.417-1.033c1.107-1.015,2.338-1.526,3.757-2.058c1.565-0.584,3.221-1.046,4.866-1.336
		c3.074-0.543,6.624-0.103,9.557,0.938c1.678,0.593,3.39,0.694,5.056,1.344c1.414,0.553,2.877,1.354,4.194,1.893"/>
	<path fill="none" stroke="#FFFFFF" stroke-width="0.7" stroke-miterlimit="10" d="M236.894,184.615
		c1.36,0.2,2.558-1.087,3.506-1.896c1.003-0.856,1.812-1.358,3.053-1.811c2.136-0.778,4.412-1.242,6.626-1.541
		c2.094-0.283,4.97-0.666,7.012-0.004c1.685,0.547,3.227,1.462,4.89,2.102"/>
	<path fill="none" stroke="#FFFFFF" stroke-width="0.7" stroke-miterlimit="10" d="M256.889,186.87
		c6.811,0,12.717-0.225,18.99-2.171c5.578-1.733,11.288-3.58,16.559-5.844c5.189-2.227,11.269-4.333,16.694-5.694
		c2.849-0.715,5.252-1.584,8.044-2.153c3.165-0.647,6.264-1.115,9.428-1.866c3.22-0.764,6.786-0.929,9.95-1.562
		c2.803-0.562,5.843-1.676,8.702-1.558"/>
	<path fill="none" stroke="#FFFFFF" stroke-width="0.7" stroke-miterlimit="10" d="M255.587,189.05
		c6.069,0,12.283-0.966,18.329-1.316c7.347-0.424,13.627-5.288,20.646-7.087c11.525-2.955,21.904-7.578,33.883-8.695
		c3.744-0.35,7.303-0.64,11.211-0.64"/>
	<path fill="none" stroke="#FFFFFF" stroke-width="0.7" stroke-miterlimit="10" d="M277.424,190.983
		c6.211-0.021,8.066-3.726,13.068-5.982c4.305-1.941,9.062-3.172,13.693-4.431c4.383-1.19,8.596-2.602,13.135-3.035
		c4.164-0.396,9.772-1.565,13.856-1.287"/>
	<path fill="none" stroke="#FFFFFF" stroke-width="0.7" stroke-miterlimit="10" d="M39.696,157.543
		c5.604,2.048,1.752,0.964,7.624,3.013c2.626,0.917,3.951,2.324,6.403,3.588c1.201,0.62,2.019,1.752,3.316,2.201
		c1.327,0.462,3.259,0.32,4.683,0.676c11.61,2.915,22.278,9.688,33.69,13.28c0.233,0.073,0.956,0.521,1.228,0.654"/>
	<path fill="none" stroke="#FFFFFF" stroke-width="0.7" stroke-miterlimit="10" d="M31.606,157.691
		c5.712,1.734,10.812,3.145,16.18,6.423c4.844,2.959,9.468,4.67,14.647,6.105c5.523,1.534,12.709,3.548,17.713,6.316
		c5.501,3.041,13.024,5.735,18.827,7.941"/>
	<path fill="none" stroke="#FFFFFF" stroke-width="0.7" stroke-miterlimit="10" d="M27.562,157.691
		c1.556,0.912,7.49,2.993,9.178,3.974c1.523,0.887,1.35,0.918,2.957,1.557c1.319,0.522,3.233,1.445,4.668,1.866
		c1.903,0.562,2.302,2.036,4.044,2.939c2.891,1.503,4.547,1.665,7.463,3.164c3.099,1.594,6.413,2.147,9.853,2.611
		c2.262,0.305,5.04,0.855,6.942,2.192c2.013,1.415,3.704,2.905,5.947,4.063c0.981,0.509,1.893,1.055,2.887,1.562
		c1.732,0.884,3.724,0.935,5.605,1.364c4.356,0.999,9.206,1.904,13.188,3.556"/>
	<path fill="none" stroke="#FFFFFF" stroke-width="0.7" stroke-miterlimit="10" d="M33.162,163.726
		c1.248-0.053,3.51,0.874,4.516,1.557c1.246,0.845,2.252,1.506,3.581,2.173c1.237,0.619,2.229,1.437,3.529,1.996
		c1.289,0.554,2.562,1.052,3.859,1.745c2.947,1.576,5.982,1.938,9.104,2.884c2.904,0.88,5.401,2.304,8.246,3.422
		c2.488,0.979,5.196,1.234,7.345,2.952c2.803,2.241,5.348,3.434,8.746,4.201c2.873,0.649,5.401,2.043,8.325,2.526
		c4.086,0.676,6.981,1.572,11.272,1.572c0.119,0-0.653-0.854-0.536-0.854"/>
	<path fill="none" stroke="#FFFFFF" stroke-width="0.7" stroke-miterlimit="10" d="M42.497,171.625
		c1.658,0.544,3.159,0.868,4.668,1.562c1.542,0.706,2.95,1.685,4.515,2.326c1.571,0.646,3.439,1.022,5.13,1.246
		c1.657,0.221,2.815,0.879,4.353,1.365c2.839,0.902,5.786,2.113,8.526,3.458c3.513,1.724,6.374,4.139,10.183,5.286
		c1.931,0.58,4.116,0.507,6.001,1.287c1.387,0.573,2.503,1.175,3.917,1.513c1.798,0.429,3.596,0.81,5.457,0.938
		c0.94,0.063,1.828,0.285,2.745,0.313c1.146,0.036,4.867,0.547,5.914,1.084"/>
	<path fill="none" stroke="#FFFFFF" stroke-width="0.7" stroke-miterlimit="10" d="M49.166,178.004
		c1.405,0.297,3.495,1.344,4.989,1.746c1.789,0.481,3.499,0.965,5.304,1.399c3.081,0.744,5.727,2.285,8.553,3.739
		c3.019,1.55,5.935,3.469,8.994,4.782c2.831,1.217,6.016,0.461,8.86,1.597c3.694,1.473,6.843,4.09,11.084,4.109"/>
	<path fill="none" stroke="#FFFFFF" stroke-width="0.7" stroke-miterlimit="10" d="M56.093,183.761
		c2.784,0.748,6.126,2.044,8.656,3.31c2.261,1.13,4.654,1.807,7.005,2.757c2.396,0.969,4.409,1.988,6.985,2.633
		c2.248,0.562,4.765,2.032,6.386,3.59"/>
	<path fill="none" stroke="#FFFFFF" stroke-width="0.7" stroke-miterlimit="10" d="M61.249,188.582
		c2.33,0.172,2.292,1.884,3.633,2.445c1.709,0.713,3.556,0.675,5.312,1.13c1.369,0.354,2.75,0.9,4.033,1.403
		c1.374,0.54,2.335,1.64,3.586,2.334"/>
	<path fill="none" stroke="#FFFFFF" stroke-width="0.7" stroke-miterlimit="10" d="M44.233,174.657
		c-0.116,1.749,1.522,2.965,2.685,3.855c1.254,0.963,1.944,2.161,3.042,3.345c1.821,1.963,4.226,4.205,5.918,6.414
		c1.769,2.311,2.404,3.874,4.696,5.52c1.111,0.798,1.947,1.625,3.254,2.178c1.341,0.569,2.784,1.011,4.058,1.558
		c1.805,0.771,3.895,1.532,5.573,2.567c2.333,1.439,4.231,1.338,6.811,2.087c-0.301,0.722,2.178,1.192,3.487,2.659"/>
	<path fill="none" stroke="#FFFFFF" stroke-width="0.7" stroke-miterlimit="10" d="M40.708,170.165
		c1.456,3.752,3.869,7.794,5.801,11.072c1.763,2.994,3.62,6.031,5.938,8.591c1.672,1.846,3.539,3.731,5.604,5.254
		c2.438,1.797,4.924,2.74,7.636,3.766c0.373,0.141,1.108,0.656,1.404,0.828c1.234,0.719,2.08,0.77,2.79,1.334
		c0.389,0.312,1.445,0.602,2.1,0.873c2.068,0.857,2.28,1.117,4.434,1.789c2.077,0.647,4.244,0.389,6.432,0.389"/>
	<path fill="none" stroke="#FFFFFF" stroke-width="0.7" stroke-miterlimit="10" d="M34.873,164.622
		c-0.43,3.189,3.239,6.191,4.326,8.867c0.561,1.379,0.679,2.79,1.423,4.071c0.77,1.329,1.735,2.629,2.528,4.02
		c1.657,2.908,3.986,5.595,6.03,8.087c2.014,2.457,3.123,4.743,5.713,6.572c1.165,0.822,1.865,1.864,3.075,2.375"/>
	<path fill="none" stroke="#FFFFFF" stroke-width="0.7" stroke-miterlimit="10" d="M70.594,204.111
		c2.164,0.569,5.073,1.262,7.216,1.888c1.798,0.522,5.593,1.095,7.316,0.318"/>
	<path fill="none" stroke="#FFFFFF" stroke-width="0.7" stroke-miterlimit="10" d="M29.895,162.598
		c1.114,3.153,3.748,5.766,5.096,8.857c0.748,1.719,0.748,3.004,1.871,4.559c0.933,1.29,1.615,2.788,2.325,4.202
		c0.681,1.352,1.023,2.625,1.945,3.846c1.125,1.491,2.057,2.757,2.963,4.376c0.729,1.304,1.875,2.103,2.641,3.361
		c0.305,0.5,0.717,1.202,0.925,1.706c0.339,0.817,0.057,2.432,0.978,2.938c-0.158,0.347,0.252,0.229-0.158,0.347"/>
	<path fill="none" stroke="#FFFFFF" stroke-width="0.7" stroke-miterlimit="10" d="M75.325,208.028c2.484,0,4.53,0.642,6.88,0.779
		c2.126,0.124,5.396,0.461,7.121-0.622"/>
	<path fill="none" stroke="#FFFFFF" stroke-width="0.7" stroke-miterlimit="10" d="M21.493,160.254
		c5.981,4.396,9.828,12.102,12.758,18.682c1.284,2.883,2.688,5.897,4.71,8.288c0.796,0.941,1.516,2.045,2.237,2.941
		c0.659,0.817,1.877,1.014,2.495,1.816c0.59,0.765,0.754,2.342,1.138,3.29"/>
	<path fill="none" stroke="#FFFFFF" stroke-width="0.7" stroke-miterlimit="10" d="M77.658,210.362c1.408,0,2.619-0.093,3.856,0.433
		c1.165,0.494,1.992,1.132,3.336,1.278c2.583,0.285,8.468-1.666,10.315-3.578"/>
	<path fill="none" stroke="#FFFFFF" stroke-width="0.7" stroke-miterlimit="10" d="M15.426,159.014
		c1.312,0.668,2.15,2.676,3.267,3.711c1.284,1.188,2.543,2.184,3.54,3.574c1.904,2.655,3.738,6.115,4.707,9.219"/>
	<path fill="none" stroke="#FFFFFF" stroke-width="0.7" stroke-miterlimit="10" d="M84.271,214.654c2.806,0,6.421,0.382,8.98-0.827
		c1.512-0.713,3.177-1.772,4.542-2.683c0.711-0.476,2.608-2.023,2.89-2.649"/>
	<path fill="none" stroke="#FFFFFF" stroke-width="0.7" stroke-miterlimit="10" d="M10.447,158.554
		c1.769,0.364,3.463,4.525,4.979,5.562"/>
	<path fill="none" stroke="#FFFFFF" stroke-width="0.7" stroke-miterlimit="10" d="M90.104,216.431
		c2.891,0.9,6.989-1.72,9.488-2.962c1.444-0.719,2.817-1.638,4.056-2.609c0.748-0.588,1.97-2.497,2.945-2.676"/>
	<path fill="none" stroke="#FFFFFF" stroke-width="0.7" stroke-miterlimit="10" d="M103.172,217.521
		c5.175,0.24,8.465-6.423,13.07-7.937"/>
	<path fill="none" stroke="#FFFFFF" stroke-width="0.7" stroke-miterlimit="10" d="M97.262,217.95
		c1.802,0.999,6.81-3.948,8.132-5.094c1.881-1.634,3.706-2.928,5.871-3.895"/>
	<path fill="none" stroke="#FFFFFF" stroke-width="0.7" stroke-miterlimit="10" d="M112.197,215.808
		c1.105,0.104,2.382-1.769,3.187-2.61c1.008-1.056,2.167-2.1,3.503-2.835"/>
	<path fill="none" stroke="#FFFFFF" stroke-width="0.7" stroke-miterlimit="10" d="M116.398,215.652
		c1.987-0.402,2.884-2.854,4.978-3.423"/>
	<path fill="none" stroke="#FFFFFF" stroke-width="0.7" stroke-miterlimit="10" d="M13.559,152.331c2.333,0,4.352,0.666,6.452,1.426
		c2.024,0.733,4.389,1.959,6.305,2.897"/>
	<path fill="none" stroke="#FFFFFF" stroke-width="0.7" stroke-miterlimit="10" d="M18.848,140.375
		c1.921-0.29,4.287,0.768,5.757,1.533"/>
	<path fill="none" stroke="#FFFFFF" stroke-width="0.7" stroke-miterlimit="10" d="M13.582,144.864
		c1.873,0.576,5.485,0.876,7.291,1.244"/>
	<path fill="none" stroke="#FFFFFF" stroke-width="0.7" stroke-miterlimit="10" d="M9.65,148.775
		c1.753,0.447,3.648,0.768,4.997,2.156"/>
	<path fill="none" stroke="#FFFFFF" stroke-width="0.7" stroke-miterlimit="10" d="M40.474,121.215
		c3.15-0.546,6.755,2.309,9.024,4.045"/>
	<path fill="none" stroke="#FFFFFF" stroke-width="0.7" stroke-miterlimit="10" d="M52.609,114.369
		c1.525-0.337,4.91,1.613,6.378,2.373c2.063,1.069,3.163,3.182,5.112,4.188c0,0,1.929,1.881,2.094,2.169"/>
	<path fill="none" stroke="#FFFFFF" stroke-width="0.7" stroke-miterlimit="10" d="M100.683,195.116
		c2.57,1.085,4.664,3.141,7.346,4.319c2.761,1.212,5.691,2.308,8.682,2.962c6.994,1.528,14.351,0.187,21.467,0.187"/>
	<path fill="none" stroke="#FFFFFF" stroke-width="0.7" stroke-miterlimit="10" d="M97.104,195.894
		c1.29,0.128,2.623,1.841,3.853,2.452c1.748,0.867,3.603,1.532,5.319,2.343c2.982,1.406,5.853,3.008,9.199,3.727
		c3.762,0.81,7.829,0.851,11.72,0.814c3.059-0.029,5.822-0.652,8.792-1.282c1.271-0.271,3.046-1.083,4.37-1.053"/>
	<path fill="none" stroke="#FFFFFF" stroke-width="0.7" stroke-miterlimit="10" d="M94.148,196.205
		c4.703,4.608,10.735,7.317,16.994,9.378c6.631,2.184,14.733,2.887,21.75,1.198c3.129-0.753,7.188-1.112,10.109-2.33"/>
	<path fill="none" stroke="#FFFFFF" stroke-width="0.7" stroke-miterlimit="10" d="M89.947,196.484
		c2.646,3.314,3.53,3.605,5.604,4.826c1.815,1.066,3.245,2.755,5.21,3.65c2.025,0.922,4.479,1.018,6.622,1.638
		c1.703,0.493,3.184,1.476,4.968,1.896"/>
	<path fill="none" stroke="#FFFFFF" stroke-width="0.7" stroke-miterlimit="10" d="M124.175,210.768
		c1.607,0.631,4.473,0.034,6.067-0.405c1.78-0.49,3.796-1.16,5.601-1.555c3.55-0.774,8.265-2.863,11.669-4.044"/>
	<path fill="none" stroke="#FFFFFF" stroke-width="0.7" stroke-miterlimit="10" d="M85.125,196.05c1.77,0.45,2.44,2.794,3.644,3.892
		c1.387,1.267,3.171,1.837,4.563,3.144c1.141,1.071,2.624,1.871,3.963,2.581c1.172,0.621,3.135,2.377,4.403,2.518"/>
	<path fill="none" stroke="#FFFFFF" stroke-width="0.7" stroke-miterlimit="10" d="M150.47,206.439
		c-2.511,0.182-6.426,2.096-8.076,2.835c-2.453,1.1-5.463,2.943-8.147,2.959"/>
	<path fill="none" stroke="#FFFFFF" stroke-width="0.7" stroke-miterlimit="10" d="M84.271,195.894
		c0.389,3.229,3.286,5.107,4.746,7.233c0.945,1.381,2.207,1.545,3.578,2.213c0.946,0.46,2.606,2.57,3.736,2.688"/>
	<path fill="none" stroke="#FFFFFF" stroke-width="0.7" stroke-miterlimit="10" d="M79.991,196.205
		c0.283,2.593,2.654,4.813,4.158,6.83c1.457,1.954,3.103,2.771,4.866,4.373"/>
	<path fill="none" stroke="#FFFFFF" stroke-width="0.7" stroke-miterlimit="10" d="M153.706,206.885
		c-1.545,0.816-6.104,4.845-7.791,4.259"/>
	<path fill="none" stroke="#FFFFFF" stroke-width="0.7" stroke-miterlimit="10" d="M97.866,182.223
		c4.103,2.891,9.938,2.811,14.884,3.722c5.571,1.025,4.396,1.859,10.357,1.859c5.849,0,15.973-0.431,21.653,0.097
		c5.719,0.532,12.32,1.908,17.836,2.946c9.038,1.698,18.645-0.134,27.701,1.124c13.694,1.899,18.816,1.414,28.334,0.5
		c6.174-0.593,12.464-0.776,18.716-1.631c3.32-0.457,6.581-1.291,9.893-1.862c3.051-0.527,7.078-0.522,9.648-1.797"/>
	<path fill="none" stroke="#FFFFFF" stroke-width="0.7" stroke-miterlimit="10" d="M101.149,187.9
		c3.456,0.389,6.603,0.014,10.115,0.854c2.657,0.634,5.233,2.616,9.958,2.2c13.691-1.204,33.746,2.042,45.396,3.072
		c8.135,0.719,23.679-0.468,31.459,1.665c8.19,2.243,9.306,1.095,17.828,0.202c5.477-0.575,11.433-1.123,17.014-1.857
		c6.097-0.804,10.943-0.686,17.124-0.686"/>
	<path fill="none" stroke="#FFFFFF" stroke-width="0.7" stroke-miterlimit="10" d="M103.172,191.01
		c2.729-0.022,4.491-0.234,7.171,0.358c2.479,0.547,7.366,2.502,10.099,2.502c5.422,0,8.019-1.196,12.983-0.713
		c6.667,0.651,12.989,1.978,19.867,2.248c7.661,0.301,15.951,2.025,23.612,2.045c7.084,0.017,13.253,0.34,20.141,1.61
		c7.307,1.35,14.606,0.658,21.878-0.544c7.846-1.296,15.796-1.849,24.427-1.068"/>
	<path fill="none" stroke="#FFFFFF" stroke-width="0.7" stroke-miterlimit="10" d="M250.975,193.715
		c2.301,2.409,14.832,0.623,18.443,0.623c5.676,0,11.354,0.054,17.03,0c7.361-0.07,12.575-6.448,19.374-8.167
		c3.07-0.776,6.457-0.99,9.382-1.721c3.926-0.982,7.823-1.438,8.665-1.371"/>
	<path fill="none" stroke="#FFFFFF" stroke-width="0.7" stroke-miterlimit="10" d="M105.818,194.962
		c2.485-0.567,5.52,0.085,8.56,0.777c3.267,0.746,3.999,0.477,6.998,0.603c6.812,0.283,8.062-0.626,13.538-0.292
		c5.72,0.35,13.429,1.602,19.136,3.073c7.31,1.887,14.274,1.553,20.5,2.06c5.533,0.451,10.998-0.712,16.554,0.044
		c5.443,0.741,10.737,2.437,16.287,2.136c6.947-0.376,15.193-1.441,22.113-2.128"/>
	<path fill="none" stroke="#FFFFFF" stroke-width="0.7" stroke-miterlimit="10" d="M246.62,197.448
		c5.683-0.263,14.345,0.624,20.229,0.624c6.081,0,11.842-0.616,17.723-1.175c3.074-0.293,6.093,0.008,8.999-1.004
		c3.062-1.067,6.124-2.942,9.055-4.427c3.477-1.758,4.946-3.877,9.022-4.304c3.865-0.402,7.688-2.444,11.515-2.314"/>
	<path fill="none" stroke="#FFFFFF" stroke-width="0.7" stroke-miterlimit="10" d="M115.053,199.004
		c5.066,1.779,13.805-1.145,19.166-0.637c5.288,0.499,10.771,2.153,15.931,3.205c8.475,1.725,17.115,2.399,25.749,2.626
		c4.087,0.106,8.07-0.333,11.981,0.822c4.279,1.264,8.49,2.737,12.982,3.016c3.436,0.213,7.897,0.432,11.237-0.242
		c2.833-0.569,4.44-0.505,7.323-0.796"/>
	<path fill="none" stroke="#FFFFFF" stroke-width="0.7" stroke-miterlimit="10" d="M296.254,198.104
		c-1.75-0.64-3.583,0.642-3.583,0.642c-5.519,3.348-11.091,1.817-17.478,1.817c-5.891,0-14.223,1.436-19.552-0.933
		c0,0-1.547-0.954-2.634-0.171"/>
	<path fill="none" stroke="#FFFFFF" stroke-width="0.7" stroke-miterlimit="10" d="M143.78,203.517
		c9.676,2.74,22.517,3.295,32.828,3.267c5.689-0.015,9.79,3.201,15.253,4.375c6.193,1.327,13.498,0.294,19.906,0.294"/>
	<path fill="none" stroke="#FFFFFF" stroke-width="0.7" stroke-miterlimit="10" d="M299.031,197.41
		c5.44-3.073,12.62-6.992,19.473-7.429"/>
	<path fill="none" stroke="#FFFFFF" stroke-width="0.7" stroke-miterlimit="10" d="M160.134,209.043
		c2.936,1.01,8.741,0.571,11.875,1.162c2.743,0.516,7.178,0.577,9.111,1.248c5.757,1.995,11.903,4.027,17.693,4.047"/>
	<path fill="none" stroke="#FFFFFF" stroke-width="0.7" stroke-miterlimit="10" d="M251.287,228.875
		c5.069,0,8.021-0.942,12.602-2.722c2.352-0.916,4.437-1.567,6.364-2.87c2.527-1.708,4.068-3.009,7.173-3.751
		c4.615-1.103,9.472-1.16,13.934-2.79c3.768-1.378,7.158-5.315,10.307-7.002"/>
	<path fill="none" stroke="#FFFFFF" stroke-width="0.7" stroke-miterlimit="10" d="M100.375,223.587
		c4.126,1.554,9.166-0.243,13.068-1.245c4.383-1.124,9.184-1.852,13.069-4.047"/>
	<path fill="none" stroke="#FFFFFF" stroke-width="0.7" stroke-miterlimit="10" d="M250.044,230.827
		c7.752,2.883,15.799-1.716,22.092-5.529c6.192-3.755,13.92-6.381,21.468-6.377"/>
	<path fill="none" stroke="#FFFFFF" stroke-width="0.7" stroke-miterlimit="10" d="M110.228,225.596
		c1.881,0.797,7.74-1.184,9.703-1.881c2.439-0.861,6.271-1.373,9.288-3.225"/>
	<path fill="none" stroke="#FFFFFF" stroke-width="0.7" stroke-miterlimit="10" d="M248.087,233.271
		c3.937,1.526,13.09,0.975,16.805-0.731c4.925-2.259,13.366-8.446,19.023-8.331"/>
	<path fill="none" stroke="#FFFFFF" stroke-width="0.7" stroke-miterlimit="10" d="M115.938,227.241
		c1.814,0.567,7.358-1.395,9.331-2.099c2.193-0.783,3.204-1.709,5.443-2.801"/>
	<path fill="none" stroke="#FFFFFF" stroke-width="0.7" stroke-miterlimit="10" d="M246.62,235.722c5.601,0,13.326,1.2,18.669-0.471
		c2.381-0.742,4.166-3.227,6.376-4.423c3.913-2.119,7.93-2.558,8.834-2.692"/>
	<path fill="none" stroke="#FFFFFF" stroke-width="0.7" stroke-miterlimit="10" d="M120.559,229.222
		c5.289-0.984,10.154-1.359,12.488-4.703"/>
	<path fill="none" stroke="#FFFFFF" stroke-width="0.7" stroke-miterlimit="10" d="M245.067,236.967
		c2.688,1.511,5.096,1.959,8.088,2.488"/>
	<path fill="none" stroke="#FFFFFF" stroke-width="0.7" stroke-miterlimit="10" d="M125.448,231.64
		c2.282,1.016,8.597-2.765,11.644-4.941"/>
	<path fill="none" stroke="#FFFFFF" stroke-width="0.7" stroke-miterlimit="10" d="M96.33,222.342
		c6.562,0,18.724-4.047,22.377-6.725"/>
	<path fill="none" stroke="#FFFFFF" stroke-width="0.7" stroke-miterlimit="10" d="M128.006,233.076
		c2.24,1.75,9.085-2.189,12.075-5.214"/>
	<path fill="none" stroke="#FFFFFF" stroke-width="0.7" stroke-miterlimit="10" d="M140.826,236.967
		c3.007,0.351,7.487-3.857,9.646-5.602"/>
	<path fill="none" stroke="#FFFFFF" stroke-width="0.7" stroke-miterlimit="10" d="M133.047,234.477
		c1.293,0.683,1.867,0.362,4.823-0.9c2.154-1.385,4.512-2.351,4.823-4.077"/>
	<path fill="none" stroke="#FFFFFF" stroke-width="0.7" stroke-miterlimit="10" d="M158.326,210.646
		c2.406,0.838,2.79,2.072,5.217,3.045c2.345,0.938,5.065,1.758,7.465,2.419c2.634,0.729,5.163,2.01,7.849,2.498
		c2.597,0.471,5.302,0.045,8.019,0.312c5.945,0.584,10.279,1.534,16.302-0.243c6.35-1.873,11.238-3.901,16.993-7.226
		c3.633-2.096,6.107-4.52,9.639-6.579c2.627-1.535,4.24-4.852,7.164-5.868"/>
	<path fill="none" stroke="#FFFFFF" stroke-width="0.7" stroke-miterlimit="10" d="M137.58,235.834
		c2.272-0.229,7.803-4.318,8.847-5.707"/>
	<path fill="none" stroke="#FFFFFF" stroke-width="0.7" stroke-miterlimit="10" d="M150.472,211.451
		c2.744,0.602,5.335,2.383,7.856,3.347c2.865,1.095,5.916,1.745,8.713,2.798c2.393,0.904,4.472,2.277,7.01,2.955
		c2.525,0.675,5.489,0.522,8.158,0.788c12.84,1.279,25.361,0.948,36.415-6.138c4.277-2.742,8.551-5.681,13.243-8.037
		c2.865-1.438,6.338-4.643,6.974-8.16"/>
	<path fill="none" stroke="#FFFFFF" stroke-width="0.7" stroke-miterlimit="10" d="M92.854,221.744
		c2.892,1.065,9.558-1.621,11.408-3.449"/>
	<path fill="none" stroke="#FFFFFF" stroke-width="0.7" stroke-miterlimit="10" d="M146.426,211.14
		c2.063,1.396,2.906,3.526,5.3,4.893c2.491,1.423,5.069,2.086,7.684,2.965c5.272,1.77,10.523,2.795,15.798,4.193
		c10.537,2.793,23.305,1.858,33.504-1.472c9.935-3.243,20.416-8.011,28.321-14.858c3.235-2.805,6.333-4.916,7.098-9.412"/>
	<path fill="none" stroke="#FFFFFF" stroke-width="0.7" stroke-miterlimit="10" d="M86.752,220.141
		c1.852-0.005,8.597-1.012,9.888-2.147"/>
	<path fill="none" stroke="#FFFFFF" stroke-width="0.7" stroke-miterlimit="10" d="M142.382,211.144
		c2.421,3.14,2.196,3.108,4.044,4.668c3.927,3.31,8.186,6.551,12.759,7.256c3.861,0.593,10.239,0.33,13.94,1.515
		c3.644,1.167,8.235,2.323,11.98,2.717c2.966,0.308,5.892-0.352,8.852-0.275c2.275,0.061,4.465,1.013,6.701,0.85
		c4.172-0.301,7.655-3.855,11.428-5.314c4.128-1.596,8.032-3.209,12.045-4.955c4.631-2.015,7.501-5.287,12.012-7.726
		c5.156-2.786,8.925-3.928,11.1-10.874"/>
	<path fill="none" stroke="#FFFFFF" stroke-width="0.7" stroke-miterlimit="10" d="M82.221,218.084
		c1.839,1.073,6.578-0.59,7.884-1.653"/>
	<path fill="none" stroke="#FFFFFF" stroke-width="0.7" stroke-miterlimit="10" d="M138.177,212.073
		c1.737,1.485,2.478,4.073,4.436,5.287c1.522,0.942,0.464,1.353,2.148,2.18c3.268,1.609,7.298,3.85,10.828,5.221
		c3.865,1.503,7.214,1.062,11.377,1.314c2.248,0.136,10.623,1.701,11.509,3.423"/>
	<path fill="none" stroke="#FFFFFF" stroke-width="0.7" stroke-miterlimit="10" d="M79.315,217.258
		c1.621-0.204,4.509-0.527,5.811-1.446"/>
	<path fill="none" stroke="#FFFFFF" stroke-width="0.7" stroke-miterlimit="10" d="M134.603,212.073
		c-0.229,0.268-0.325,0.565-0.288,0.895c2.465,1.403,3.447,5.968,5.865,7.843c2.345,1.817,6.601,2.18,9.342,3.477
		c3.5,1.656,5.552,3.95,9.593,4.284c3.164,0.262,4.798,1.86,9.404,1.238c0,0,2.023-0.184,2.798,0.143"/>
	<path fill="none" stroke="#FFFFFF" stroke-width="0.7" stroke-miterlimit="10" d="M75.794,215.185
		c2.406,0.593,3.77-0.602,5.049-2.024"/>
	<path fill="none" stroke="#FFFFFF" stroke-width="0.7" stroke-miterlimit="10" d="M129.936,212.385
		c2.889,4.359,4.682,8.393,9.25,10.97c3.927,2.213,9.639,4.128,12.841,7.077"/>
	<path fill="none" stroke="#FFFFFF" stroke-width="0.7" stroke-miterlimit="10" d="M73.926,213.628c1.868,0,4.023-0.376,4.813-1.792
		"/>
	<path fill="none" stroke="#FFFFFF" stroke-width="0.7" stroke-miterlimit="10" d="M127.134,211.451
		c0.509,3.042,2.05,4.584,3.493,7.157c1.28,2.283,1.689,4.673,3.664,6.534"/>
	<path fill="none" stroke="#FFFFFF" stroke-width="0.7" stroke-miterlimit="10" d="M71.404,210.918
		c1.216-0.388,4.62,0.122,4.605-1.177"/>
	<path fill="none" stroke="#FFFFFF" stroke-width="0.7" stroke-miterlimit="10" d="M216.127,225.143
		c3.315-0.422,6.371-4.06,9.342-5.541c3.521-1.753,6.137-3.945,9.08-6.518c3.015-2.637,7.106-2.903,10.213-5.05
		c2.26-1.562,5.406-6.352,5.93-9.208"/>
	<path fill="none" stroke="#FFFFFF" stroke-width="0.7" stroke-miterlimit="10" d="M68.637,208.961
		c1.641-0.055,4.506-0.234,5.535-1.555"/>
	<path fill="none" stroke="#FFFFFF" stroke-width="0.7" stroke-miterlimit="10" d="M247.864,209.354
		c2.18-3.928,6.158-4.223,5.603-9.104"/>
	<path fill="none" stroke="#FFFFFF" stroke-width="0.7" stroke-miterlimit="10" d="M68.168,206.439
		c3.033,1.28,3.235-0.837,3.266-1.394"/>
	<path fill="none" stroke="#FFFFFF" stroke-width="0.7" stroke-miterlimit="10" d="M253.008,207.194
		c2-0.389,3.124-3.564,2.947-6.013"/>
	<path fill="none" stroke="#FFFFFF" stroke-width="0.7" stroke-miterlimit="10" d="M328.766,177.533
		c2.423,0.849,6.374,0,7.468,1.866"/>
	<path fill="none" stroke="#FFFFFF" stroke-width="0.7" stroke-miterlimit="10" d="M295.781,205.227
		c0.836,1.099,3.626,0.623,5.289,0.623"/>
	<path fill="none" stroke="#FFFFFF" stroke-width="0.7" stroke-miterlimit="10" d="M327.165,180.287
		c1.702-0.195,5.335-0.298,7.043,0.671"/>
	<path fill="none" stroke="#FFFFFF" stroke-width="0.7" stroke-miterlimit="10" d="M297.18,203.829
		c1.779,0.642,4.442-0.197,6.237,0.413"/>
	<path fill="none" stroke="#FFFFFF" stroke-width="0.7" stroke-miterlimit="10" d="M325.342,183.292
		c1.044,0.342,2.335-0.363,3.413-0.469c1.117-0.112,2.307,0.004,3.429,0.004"/>
	<path fill="none" stroke="#FFFFFF" stroke-width="0.7" stroke-miterlimit="10" d="M299.047,201.808c1.597,0,3.28-0.127,4.828,0.119
		c1.056,0.169,3.649,0.44,4.664,0.406"/>
	<path fill="none" stroke="#FFFFFF" stroke-width="0.7" stroke-miterlimit="10" d="M321.916,187.337
		c1.954-1.016,4.184-1.172,5.249-1.498c1.263-0.391,2.498,0.065,3.628-0.368"/>
	<path fill="none" stroke="#FFFFFF" stroke-width="0.7" stroke-miterlimit="10" d="M300.76,199.161
		c4.096-0.123,7.075-0.015,10.741,1.711"/>
	<path fill="none" stroke="#FFFFFF" stroke-width="0.7" stroke-miterlimit="10" d="M320.434,188.994
		c4.328-1.094,6.439-0.126,8.336-0.341c1.069-0.12-1.98,0.143-0.941,0.24"/>
	<path fill="none" stroke="#FFFFFF" stroke-width="0.7" stroke-miterlimit="10" d="M305.737,196.674
		c1.851,0.706,4.208-0.053,6.186,0.617c1.21,0.409,2.793,1.892,3.964,2.242"/>
	<path fill="none" stroke="#FFFFFF" stroke-width="0.7" stroke-miterlimit="10" d="M316.629,193.095
		c3.051,0,5.245-0.354,7.622,0.311"/>
	<path fill="none" stroke="#FFFFFF" stroke-width="0.7" stroke-miterlimit="10" d="M312.894,194.961
		c3.812,0.416,3.812,0.416,7.157,1.713"/>
	<path fill="none" stroke="#FFFFFF" stroke-width="0.7" stroke-miterlimit="10" d="M331.887,176.145
		c1.193,0,4.906-0.459,5.589,0.925"/>
	<path fill="none" stroke="#FFFFFF" stroke-width="0.7" stroke-miterlimit="10" d="M318.962,190.604c2.463,0,5.8,0,7.391,1.479"/>
	<path fill="none" stroke="#FFFFFF" stroke-width="0.7" stroke-miterlimit="10" d="M101.697,227.892
		c2.967-3.696,9.919,2.345,12.989,3.473c4.691,1.724,9.81,4.166,14.055,6.311c7.939,4.009,21.191,6.258,28.573-0.397"/>
	<path fill="none" stroke="#FFFFFF" stroke-width="0.7" stroke-miterlimit="10" d="M238.528,241.321
		c0.783,0.063,1.45-0.146,1.997-0.63c0.107-1.624,2.162-3.377,2.987-4.979c1.17-2.268,1.042-4.337,1.86-6.524"/>
	<path fill="none" stroke="#FFFFFF" stroke-width="0.7" stroke-miterlimit="10" d="M107.519,231.365
		c2.151,0.628,3.878,2.256,5.906,3.129c2.064,0.89,4.627,0.487,6.793,1.305c4.479,1.689,7.959,5.126,12.515,6.541
		c9.535,2.962,18.83,1.622,26.934-4.097"/>
	<path fill="none" stroke="#FFFFFF" stroke-width="0.7" stroke-miterlimit="10" d="M236.66,242.853
		c0.477-1.697,2.322-3.89,3.111-5.501c0.984-2.005,2.412-5.6,2.802-7.776"/>
	<path fill="none" stroke="#FFFFFF" stroke-width="0.7" stroke-miterlimit="10" d="M116.241,238.522
		c4.004-0.429,8.044,2.489,11.582,4.045c3.952,1.737,7.31,3.618,11.755,4.053c5.016,0.489,18.748-3.875,22.153-7.296"/>
	<path fill="none" stroke="#FFFFFF" stroke-width="0.7" stroke-miterlimit="10" d="M228.679,247.968
		c1.251-2.787,4.77-5.524,5.959-8.513c1.239-3.102,3.443-6.639,3.891-9.956"/>
	<path fill="none" stroke="#FFFFFF" stroke-width="0.7" stroke-miterlimit="10" d="M122.776,245.366
		c6.775-0.199,12.885,3.425,19.897,3.425c7.506,0,17.091-3.255,21.539-8.264"/>
	<path fill="none" stroke="#FFFFFF" stroke-width="0.7" stroke-miterlimit="10" d="M220.832,251.559
		c6.136-2.113,11.013-15.706,11.645-21.607"/>
	<path fill="none" stroke="#FFFFFF" stroke-width="0.7" stroke-miterlimit="10" d="M142.067,252.213
		c5.445,0.675,12.025-0.569,17.114-3.422c5.03-2.745,8.057-7.286,8.057-7.286"/>
	<path fill="none" stroke="#FFFFFF" stroke-width="0.7" stroke-miterlimit="10" d="M215.315,253.614
		c4.933-0.101,11.514-15.365,12.955-22.207"/>
	<path fill="none" stroke="#FFFFFF" stroke-width="0.7" stroke-miterlimit="10" d="M156.382,253.15
		c3.732,0.312,6.535-2.973,9.18-5.736c1.838-1.922,4.128-2.768,5.134-5.312"/>
	<path fill="none" stroke="#FFFFFF" stroke-width="0.7" stroke-miterlimit="10" d="M173.414,252.946
		c1.185,0.491,1.912-1.432,2.768-2.29c0.928-0.93,1.902-2.318,2.82-3.242c1.083-1.088,1.381-1.967,2.428-3.109
		c0.73-0.796,4.399-3.359,4.402-4.445"/>
	<path fill="none" stroke="#FFFFFF" stroke-width="0.7" stroke-miterlimit="10" d="M180.807,253.147
		c1.269,0.083,3.117-1.671,4.012-2.474c1.436-1.288,2.933-2.865,3.917-4.48c0.798-1.309,3.095-2.289,3.797-3.624
		c0.541-1.03,1.06-2.278,1.639-3.245"/>
	<path fill="none" stroke="#FFFFFF" stroke-width="0.7" stroke-miterlimit="10" d="M164.938,253.002
		c1.614-1.375,3.407-4.37,5.129-5.479c1.361-0.877,2.133-1.692,3.195-2.862c0.771-0.852,2.446-2.239,2.919-3.328"/>
	<path fill="none" stroke="#FFFFFF" stroke-width="0.7" stroke-miterlimit="10" d="M177.775,252.737
		c2.252,0.556,4.666-4.659,5.755-6.124c1.225-1.646,5.134-5.795,6.613-7.158"/>
	<path fill="none" stroke="#FFFFFF" stroke-width="0.7" stroke-miterlimit="10" d="M167.271,252.526
		c0.943,0.161,2.856,0.53,3.424-0.134c0.958-1.121,1.551-2.603,2.567-3.602c1.747-1.723,6.451-6.273,7.544-8.396"/>
	<path fill="none" stroke="#FFFFFF" stroke-width="0.7" stroke-miterlimit="10" d="M186.253,253.464
		c1.631,0.646,5.53-5.178,6.54-6.376c1.551-1.841,6.289-5.433,6.009-8.098"/>
	<path fill="none" stroke="#FFFFFF" stroke-width="0.7" stroke-miterlimit="10" d="M210.839,254.431
		c2.778-1.31,5.648-4.79,6.996-7.344c0.787-1.487,2.572-3.454,3.268-4.985c0.705-1.55,2.334-5.919,2.956-8.709"/>
	<path fill="none" stroke="#FFFFFF" stroke-width="0.7" stroke-miterlimit="10" d="M190.143,253.614
		c2.514-0.873,5.378-4.469,7.195-6.414c1.963-2.103,6.167-5.431,6.496-8.21"/>
	<path fill="none" stroke="#FFFFFF" stroke-width="0.7" stroke-miterlimit="10" d="M203.834,254.703
		c0.948,0.003,4.188-3.473,5.133-4.047c2.031-1.233,3.522-2.911,4.98-4.742c1.869-2.35,5.07-7.663,5.047-10.655"/>
	<path fill="none" stroke="#FFFFFF" stroke-width="0.7" stroke-miterlimit="10" d="M194.343,254.431
		c1.263-0.292,2.791-2.679,3.735-3.774c0.949-1.101,2.794-2.017,3.576-3.33c0.832-1.394,2.993-2.406,3.734-3.823
		c0.618-1.183,3.086-4.073,3.578-5.291"/>
	<path fill="none" stroke="#FFFFFF" stroke-width="0.7" stroke-miterlimit="10" d="M197.61,254.703
		c3.051-1.798,6.488-3.906,8.711-6.918c1.247-1.684,3.093-1.771,3.581-3.746c0.323-1.317,3.266-5.049,3.266-6.763"/>
	<path fill="none" stroke="#FFFFFF" stroke-width="0.7" stroke-miterlimit="10" d="M248.421,209.74
		c4.916,0,11.031,0.99,15.865,0.154c5.393-0.936,10.141-5.435,15.628-6.535"/>
	<path fill="none" stroke="#FFFFFF" stroke-width="0.7" stroke-miterlimit="10" d="M239.15,213.628
		c3.164,1.312,9.267,0.38,12.765,0.554c3.699,0.183,7.906,0.436,11.508-0.249c3.879-0.737,8.534-2.294,11.823-4.374
		c3.537-2.236,5.21-4.985,8.608-7.032"/>
	<path fill="none" stroke="#FFFFFF" stroke-width="0.7" stroke-miterlimit="10" d="M234.484,217.674
		c11.072,0,24.889,2.169,35.135-1.937c5.394-2.16,9.568-5.312,14.112-8.582c3.96-2.851,11.031-4.12,15.226-5.921"/>
	<path fill="none" stroke="#FFFFFF" stroke-width="0.7" stroke-miterlimit="10" d="M227.947,221.097
		c8.946,0.825,20.913,2.238,34.585,0.58"/>
	<path fill="none" stroke="#FFFFFF" stroke-width="0.7" stroke-miterlimit="10" d="M277.733,215.663
		c2.211,1.047,8.202-5.434,9.956-7.029c2.55-2.318,4.271-3.817,8.092-3.406"/>
	<path fill="none" stroke="#FFFFFF" stroke-width="0.7" stroke-miterlimit="10" d="M219.235,224.209
		c5.584,0,6.719,1.596,12.29,1.864c7.501,0.363,17.56,0.037,20.116,0.312"/>
	<path fill="none" stroke="#FFFFFF" stroke-width="0.7" stroke-miterlimit="10" d="M156.382,230.744
		c4.37,3.641,8.687,4.527,14.228,5.046c5.354,0.501,10.263,4.053,15.643,4.069"/>
	<path fill="none" stroke="#FFFFFF" stroke-width="0.7" stroke-miterlimit="10" d="M213.014,226.697
		c3.741,1.29,5.43,2.993,9.412,2.802c3.747-0.182,3.16,0.503,14.985-0.261"/>
	<path fill="none" stroke="#FFFFFF" stroke-width="0.7" stroke-miterlimit="10" d="M169.45,230.119
		c2.641,0.88,1.986,0.732,4.667,2.044c2.422,1.186,7.001,2.823,9.328,4.163c3.279,1.888,8.23,0.985,10.897,3.129"/>
	<path fill="none" stroke="#FFFFFF" stroke-width="0.7" stroke-miterlimit="10" d="M207.744,228.954
		c4.59,1.562,5.02,3.399,9.705,4.122c3.33,0.514,6.393,0,9.566-1.398"/>
	<path fill="none" stroke="#FFFFFF" stroke-width="0.7" stroke-miterlimit="10" d="M182.208,229.498
		c1.867,2.665,5.876,2.691,8.333,4.6c7.07,5.492,10.34,4.781,9.883,4.739"/>
	<path fill="none" stroke="#FFFFFF" stroke-width="0.7" stroke-miterlimit="10" d="M195.899,227.321
		c3.877,0.413,6.371,4.239,10.338,4.992c2.155,0.411,4.461,2.161,6.465,2.785c1.781,0.557,3.152-0.626,4.979,0"/>
	<path fill="none" stroke="#FFFFFF" stroke-width="0.7" stroke-miterlimit="10" d="M160.134,238.479
		c1.104,1.539,7.129-0.175,9.316,0.043c2.436,0.243,5.182,1.263,7.157,2.178"/>
	<path fill="none" stroke="#FFFFFF" stroke-width="0.7" stroke-miterlimit="10" d="M191.853,228.564
		c2.164,1.972,4.322,4.099,6.96,5.734c2.65,1.643,6.179,2.113,8.909,3.289"/>
	<path fill="none" stroke="#FFFFFF" stroke-width="0.7" stroke-miterlimit="10" d="M257.663,205.852
		c2.075,0.462,3.602,1.559,6.052,1.165c2.519-0.404,3.571-1.949,5.385-3.266"/>
</g>
</svg>
