<?xml version="1.0" encoding="utf-8"?>
<!-- Generator: Adobe Illustrator 16.0.0, SVG Export Plug-In . SVG Version: 6.00 Build 0)  -->
<!DOCTYPE svg PUBLIC "-//W3C//DTD SVG 1.1//EN" "http://www.w3.org/Graphics/SVG/1.1/DTD/svg11.dtd">
<svg version="1.1" xmlns="http://www.w3.org/2000/svg" xmlns:xlink="http://www.w3.org/1999/xlink" x="0px" y="0px" width="235px"
	 height="483.754px" viewBox="0 0 235 483.754" enable-background="new 0 0 235 483.754" xml:space="preserve">
<g id="Layer_2" display="none">
	<rect y="-0.888" display="inline" width="235" height="484.393"/>
</g>
<g id="Layer_1">
	<g>
		<polyline fill="none" stroke="#FFFFFF" stroke-width="2" stroke-miterlimit="10" points="71.045,69.355 90.24,105.932 
			51.571,122.424 		"/>
		<path fill="none" stroke="#FFFFFF" stroke-width="2" stroke-linecap="round" stroke-linejoin="round" stroke-miterlimit="10" d="
			M139.488,4.533c13.4,0,10.766,1.339,15.936,13.399c6.518,15.211,55.406,105.382,56.852,108.279c0,0-2.529,53.958-3.614,56.855
			c0,0,21,22.452,22.448,24.262c0,0-19.918,94.516-20.278,97.415c-0.362,2.895,4.706,8.689,5.067,10.863
			c0.365,2.172-17.741,36.938-19.914,60.836c-2.174,23.9-49.977,98.863-84.376,102.848c0,0-37.663-76.41-38.75-82.568
			c0,0-42.368,0.727-43.817-3.98c-1.45-4.709-6.518-114.798-1.812-123.127c0,0-22.452-13.035-21.365-16.296
			c1.085-3.259,7.241-31.506,7.241-31.506l24.987-22.451l4.348-72.064l16.296-8.692l12.31-49.25c0,0,49.576-17.759,66.272-63.734
			C138.375,2.712,139.488,4.533,139.488,4.533z"/>
		<path fill="none" stroke="#FFFFFF" stroke-width="2" stroke-linejoin="round" stroke-miterlimit="10" d="M125.438,27.966
			c0,0-6.627,47.184-6.971,48.27c-0.345,1.088,61.25-10.898,61.25-10.898c0,0.001-27.167,42.462-52.285,83.036
			c-16.863,27.243-32.392,54.403-37.191,69.095l56.129,24.159l6.882-8.225l-25.819-85.029"/>
		<path fill="none" stroke="#FFFFFF" stroke-width="2" stroke-linejoin="round" stroke-miterlimit="10" d="M71.045,69.355
			c0,0,28.25,3.079,32.864-4.797L70.905,202.802l36.264-82.023l11.298-44.543l27.656,42.169l-38.954,2.374"/>
		<path fill="none" stroke="#FFFFFF" stroke-width="2" stroke-miterlimit="10" d="M179.717,65.337l-19.857,88.848l14.123,34.765
			l11.139-6.518c0,0,0-13.308,2.443-21.727s8.147-27.975,7.605-31.777c-0.546-3.803,4.405-26.4,4.405-26.4"/>
		<line fill="none" stroke="#FFFFFF" stroke-width="2" stroke-miterlimit="10" x1="103.909" y1="64.558" x2="120.123" y2="65.337"/>
		<path fill="none" stroke="#FFFFFF" stroke-width="2" stroke-miterlimit="10" d="M146.123,118.405c0,0,6.04,1.341,22.386-2.917"/>
		<path fill="none" stroke="#FFFFFF" stroke-width="2" stroke-linejoin="round" stroke-miterlimit="10" d="M145.277,119.746
			l7.974,113.657l17.474,11.498c0,0-41.556,75.232-27.703,131.453l-41.283-21.457c0,0-21.186-137.429-19.556-140.144l-10.049,9.778
			c0,0-23.902,96.145-4.075,142.315l32.047-11.949c0,0,8.422,106.197,14.126,111.359c0,0,32.318-37.211,47.8-95.877
			c0,0,41.284-46.174,44.543-108.641l-4.892-9.232l-8.689,0.271l-18.197-63.827l-21.546,44.453"/>
		<path fill="none" stroke="#FFFFFF" stroke-width="2" stroke-linejoin="round" stroke-miterlimit="10" d="M170.725,244.9
			l12.943-3.272l9.326,11.148c0,0-42.188,54.41-30.962,117.604l-19.011,5.975"/>
		<path fill="none" stroke="#FFFFFF" stroke-width="2" stroke-linejoin="round" stroke-miterlimit="10" d="M211.734,300.077
			c0,0-30.599,76.828-48.435,68.812l10.707,54.842"/>
		<path fill="none" stroke="#FFFFFF" stroke-width="2" stroke-linejoin="round" stroke-miterlimit="10" d="M114.232,466.256
			l-4.439,9.352c0,0,36.576-16.045,42.428-23.613"/>
		<polyline fill="none" stroke="#FFFFFF" stroke-width="2" stroke-miterlimit="10" points="72.856,396.721 64.889,370.657 
			28.335,386.188 		"/>
		<line fill="none" stroke="#FFFFFF" stroke-width="2" stroke-miterlimit="10" x1="64.889" y1="370.657" x2="68.059" y2="366.846"/>
		<path fill="none" stroke="#FFFFFF" stroke-width="2" stroke-miterlimit="10" d="M68.059,365.586c0,0,6.175-119.379,15.718-133.747
			"/>
		
			<line fill="none" stroke="#FFFFFF" stroke-width="2" stroke-linejoin="round" stroke-miterlimit="10" x1="90.24" y1="217.469" x2="82.182" y2="214.752"/>
		<polyline fill="none" stroke="#FFFFFF" stroke-width="2" stroke-miterlimit="10" points="70.905,202.802 60.193,216.111 
			72.133,224.531 		"/>
		<path fill="none" stroke="#FFFFFF" stroke-width="2" stroke-miterlimit="10" d="M38.091,199.361l9.778,9.055
			c0,0-15.392,14.666-13.578,24.263l-7.063,36.935"/>
		
			<polyline fill="none" stroke="#FFFFFF" stroke-width="2" stroke-linecap="round" stroke-linejoin="round" stroke-miterlimit="10" points="
			17.206,218.125 34.143,231.049 5.863,253.317 		"/>
		<line fill="none" stroke="#FFFFFF" stroke-width="2" stroke-miterlimit="10" x1="60.193" y1="216.111" x2="47.87" y2="208.416"/>
		
			<line fill="none" stroke="#FFFFFF" stroke-width="2" stroke-linecap="round" stroke-linejoin="round" stroke-miterlimit="10" x1="185.12" y1="182.432" x2="201.686" y2="252.506"/>
		
			<line fill="none" stroke="#FFFFFF" stroke-width="2" stroke-linecap="round" stroke-linejoin="round" stroke-miterlimit="10" x1="208.66" y1="183.066" x2="192.994" y2="215.746"/>
	</g>
</g>
</svg>
