<?xml version="1.0" encoding="utf-8"?>
<!-- Generator: Adobe Illustrator 16.0.0, SVG Export Plug-In . SVG Version: 6.00 Build 0)  -->
<!DOCTYPE svg PUBLIC "-//W3C//DTD SVG 1.1//EN" "http://www.w3.org/Graphics/SVG/1.1/DTD/svg11.dtd">
<svg version="1.1" id="Layer_1" xmlns="http://www.w3.org/2000/svg" xmlns:xlink="http://www.w3.org/1999/xlink" x="0px" y="0px"
	 width="235px" height="481.509px" viewBox="0 0 235 481.509" enable-background="new 0 0 235 481.509" xml:space="preserve">
<g>
	<polyline fill="none" stroke="#FFFFFF" stroke-miterlimit="10" points="71.045,69.355 90.24,105.932 51.571,122.424 	"/>
	<path fill="none" stroke="#FFFFFF" stroke-linecap="round" stroke-linejoin="round" stroke-miterlimit="10" d="M139.489,4.533
		c13.4,0,10.765,1.339,15.935,13.399c6.518,15.211,55.406,105.382,56.852,108.279c0,0-2.53,53.958-3.615,56.855
		c0,0,21,22.452,22.449,24.262c0,0-19.918,94.516-20.279,97.414c-0.362,2.896,4.706,8.69,5.068,10.863
		c0.365,2.173-17.742,36.938-19.915,60.836c-2.173,23.901-49.976,98.864-84.376,102.848c0,0-37.663-76.409-38.75-82.567
		c0,0-42.368,0.726-43.817-3.981c-1.45-4.709-6.518-114.798-1.812-123.127c0,0-22.452-13.035-21.365-16.296
		c1.085-3.259,7.241-31.506,7.241-31.506l24.987-22.451l4.348-72.064l16.296-8.692l12.31-49.25c0,0,49.576-17.759,66.272-63.734
		C138.375,2.712,139.489,4.533,139.489,4.533z"/>
	<path fill="none" stroke="#FFFFFF" stroke-linejoin="round" stroke-miterlimit="10" d="M125.437,27.966
		c0,0-6.627,47.184-6.97,48.27c-0.345,1.088,61.25-10.898,61.25-10.898c0,0.001-27.167,42.462-52.285,83.036
		c-16.863,27.243-32.392,54.403-37.192,69.095l56.129,24.159l6.882-8.225l-25.819-85.029"/>
	<path fill="none" stroke="#FFFFFF" stroke-linejoin="round" stroke-miterlimit="10" d="M71.045,69.355
		c0,0,28.25,3.079,32.864-4.797L70.905,202.802l36.264-82.023l11.298-44.543l27.656,42.169l-38.954,2.374"/>
	<path fill="none" stroke="#FFFFFF" stroke-miterlimit="10" d="M179.717,65.337l-19.857,88.848l14.123,34.765l11.138-6.518
		c0,0,0-13.308,2.444-21.727c2.443-8.419,8.147-27.975,7.605-31.777c-0.546-3.803,4.405-26.4,4.405-26.4"/>
	<line fill="none" stroke="#FFFFFF" stroke-miterlimit="10" x1="103.909" y1="64.558" x2="120.123" y2="65.337"/>
	<path fill="none" stroke="#FFFFFF" stroke-miterlimit="10" d="M146.123,118.405c0,0,6.04,1.341,22.386-2.917"/>
	<path fill="none" stroke="#FFFFFF" stroke-linejoin="round" stroke-miterlimit="10" d="M145.278,119.746l7.973,113.657
		l17.474,11.498c0,0-41.556,75.233-27.703,131.453l-41.283-21.458c0,0-21.186-137.428-19.556-140.143l-10.049,9.778
		c0,0-23.902,96.146-4.075,142.316l32.047-11.951c0,0,8.422,106.198,14.126,111.36c0,0,32.318-37.211,47.8-95.877
		c0,0,41.285-46.174,44.543-108.64l-4.891-9.233l-8.69,0.271l-18.197-63.827l-21.546,44.453"/>
	<path fill="none" stroke="#FFFFFF" stroke-linejoin="round" stroke-miterlimit="10" d="M170.725,244.9l12.943-3.272l9.326,11.148
		c0,0-42.187,54.41-30.962,117.603l-19.011,5.975"/>
	<path fill="none" stroke="#FFFFFF" stroke-linejoin="round" stroke-miterlimit="10" d="M211.734,300.076
		c0,0-30.598,76.829-48.434,68.814l10.707,54.84"/>
	<path fill="none" stroke="#FFFFFF" stroke-linejoin="round" stroke-miterlimit="10" d="M114.232,466.256l-4.439,9.351
		c0,0,36.576-16.044,42.428-23.613"/>
	<polyline fill="none" stroke="#FFFFFF" stroke-miterlimit="10" points="72.856,396.722 64.889,370.657 28.335,386.187 	"/>
	<line fill="none" stroke="#FFFFFF" stroke-miterlimit="10" x1="64.889" y1="370.657" x2="68.059" y2="366.847"/>
	<path fill="none" stroke="#FFFFFF" stroke-miterlimit="10" d="M68.059,365.587c0,0,6.175-119.38,15.718-133.747"/>
	
		<line fill="none" stroke="#FFFFFF" stroke-linejoin="round" stroke-miterlimit="10" x1="90.24" y1="217.469" x2="82.182" y2="214.752"/>
	<polyline fill="none" stroke="#FFFFFF" stroke-miterlimit="10" points="70.905,202.802 60.193,216.111 72.133,224.531 	"/>
	<path fill="none" stroke="#FFFFFF" stroke-miterlimit="10" d="M38.091,199.361l9.778,9.055c0,0-15.392,14.666-13.578,24.263
		l-7.063,36.935"/>
	<polyline fill="none" stroke="#FFFFFF" stroke-linecap="round" stroke-linejoin="round" stroke-miterlimit="10" points="
		17.206,218.125 34.143,231.049 5.863,253.317 	"/>
	<line fill="none" stroke="#FFFFFF" stroke-miterlimit="10" x1="60.193" y1="216.111" x2="47.87" y2="208.416"/>
	
		<line fill="none" stroke="#FFFFFF" stroke-linecap="round" stroke-linejoin="round" stroke-miterlimit="10" x1="185.12" y1="182.432" x2="201.685" y2="252.506"/>
	
		<line fill="none" stroke="#FFFFFF" stroke-linecap="round" stroke-linejoin="round" stroke-miterlimit="10" x1="208.66" y1="183.066" x2="192.994" y2="215.746"/>
</g>
</svg>
