<?xml version="1.0" encoding="utf-8"?>
<!-- Generator: Adobe Illustrator 16.0.0, SVG Export Plug-In . SVG Version: 6.00 Build 0)  -->
<!DOCTYPE svg PUBLIC "-//W3C//DTD SVG 1.1//EN" "http://www.w3.org/Graphics/SVG/1.1/DTD/svg11.dtd">
<svg version="1.1" id="Layer_1" xmlns="http://www.w3.org/2000/svg" xmlns:xlink="http://www.w3.org/1999/xlink" x="0px" y="0px"
	 width="232px" height="478.404px" viewBox="0 0 232 478.404" enable-background="new 0 0 232 478.404" xml:space="preserve">
<g>
	<path fill="none" stroke="#FFFFFF" stroke-width="2" stroke-miterlimit="10" d="M41.153,305.157
		c3.986,2.594,44.272,10.134,77.504,9.745c30.74-0.365,63.494-5.969,74.253-11.888"/>
	<path fill="none" stroke="#FFFFFF" stroke-width="2" stroke-miterlimit="10" d="M46.306,314.915
		c2.538,3.155,42.982,7.37,70.833,6.584c27.843-0.786,65.656-4.922,72.63-11.214"/>
	<path fill="none" stroke="#FFFFFF" stroke-width="2" stroke-linejoin="round" stroke-miterlimit="10" d="M48.886,327.785
		c12.413,16.305,66.667,82.981,131.671,85.396"/>
	<path fill="none" stroke="#FFFFFF" stroke-width="2" stroke-miterlimit="10" d="M61.257,392.664
		c20.471,22.931,67.237,58.175,115.358,56.072"/>
	<path fill="none" stroke="#FFFFFF" stroke-width="2" stroke-miterlimit="10" d="M91.538,321.097
		c11.01,12.383,54.011,50.634,93.015,49.387"/>
	<path fill="none" stroke="#FFFFFF" stroke-width="2" stroke-miterlimit="10" d="M148.88,319.43
		c7.888,6.191,19.069,15.673,38.818,15.254"/>
	<path fill="none" stroke="#FFFFFF" stroke-width="2" stroke-miterlimit="10" d="M70.144,439.691
		c4.904,7.725,40.658,37.534,57.942,36.577"/>
	<path fill="none" stroke="#FFFFFF" stroke-width="2" stroke-miterlimit="10" d="M51.081,339.188
		c18.074,0.97,55.104-6.885,66.058-17.689"/>
	<path fill="none" stroke="#FFFFFF" stroke-width="2" stroke-miterlimit="10" d="M57.665,373.722
		c28.382-2.524,87.57-18.045,110.624-56.84"/>
	<path fill="none" stroke="#FFFFFF" stroke-width="2" stroke-miterlimit="10" d="M64.564,410.145
		c22.269-0.053,94.071-19.995,121.424-55.793"/>
	<path fill="none" stroke="#FFFFFF" stroke-width="2" stroke-miterlimit="10" d="M71.227,445.431
		c21.5,2.771,91.864-16.087,109.33-37.694"/>
	<path fill="none" stroke="#FFFFFF" stroke-width="2" stroke-miterlimit="10" d="M124.828,476.123
		c25.895-9.996,41.434-21.225,53.166-38.528"/>
	<path fill="none" stroke="#FFFFFF" stroke-width="2" stroke-miterlimit="10" d="M8.748,239.191
		c19.938,12.963,63.548,21.608,107.552,20.821c44.005-0.784,99.112-16.229,111.719-27.949"/>
	<path fill="none" stroke="#FFFFFF" stroke-width="2" stroke-linecap="round" stroke-linejoin="round" stroke-miterlimit="10" d="
		M222.46,207.798c0.493-0.163,1.659,0.254,2.079,0.733c1.373,1.57,6.284,3.729,5.301,11.784c-0.98,8.056,0,13.359-6.48,15.52
		c-6.481,2.159-8.842,7.465-8.055,14.929c0.787,7.468-5.5,45.771-22.395,52.251c0,0-0.982,6.682-3.142,7.271
		c0,0-11.828,142.521-14.536,145.363c-21.478,22.524-77.267,33.265-102.673-3.142c0,0-25.467-135.235-26.254-137.592
		c0,0-2.818-6.2-1.51-7.773c0,0-29.398-12.804-25.534-47.539c0.39-3.534,0-10.607-7.858-17.285
		c-7.856-6.679-9.04-27.108-4.324-32.609l1.195-1.549c-3.23,6.441-7.193,22.029,34.166,31.032
		c24.537,5.342,81.383,12.313,119.959,1.834c59.715-16.225,61.028-21.739,62.14-32.494"/>
	<path fill="none" stroke="#FFFFFF" stroke-width="2" stroke-linecap="round" stroke-linejoin="round" stroke-miterlimit="10" d="
		M43.27,238.793c24.54,5.341,81.389,12.312,119.961,1.834"/>
	<path fill="none" stroke="#FFFFFF" stroke-width="2" stroke-linecap="round" stroke-linejoin="round" stroke-miterlimit="10" d="
		M163.23,240.627c40.98-11.134,52.907-15.965,57.689-22.165l0.667-0.806c0,0,1.676-8.915,0.397-17.165
		c-1.222-7.894-7.171-14.062-9.626-14.946c-4.911-1.767-3.534-3.339-3.534-3.339c5.894-14.93-8.642-24.751-12.571-27.579
		c-3.933-2.829-6.879-5.425-6.879-5.425c7.664-23.963-17.481-38.893-17.481-38.893c8.643-19.843-6.678-29.664-5.5-35.95
		c1.177-6.284,2.16-11.587-1.377-20.625c-3.534-9.036-15.717-17.681-31.037-33.002c-15.321-15.32-5.893-15.714-9.821-18.072
		c-3.928-2.359-7.857,3.654-7.857,3.654c-25.142,21.096-5.498,25.42-31.82,48.206c-30.965,26.803-21.611,45.574-21.611,45.574
		c-36.537,14.929-31.033,52.251-31.033,52.251C10.617,168.455,7.34,183.924,9.983,198.152c0,0-1.75,9.455-1.709,10.006
		c0.474,6.673,1.23,15.419,4.309,18.661c4.502,4.733,18.299,9.274,30.687,11.974"/>
	<path fill="none" stroke="#FFFFFF" stroke-width="2" stroke-linecap="round" stroke-linejoin="round" stroke-miterlimit="10" d="
		M31.835,152.347c1.7,8.005,6.676,20.84,14.27,24.77"/>
	<path fill="none" stroke="#FFFFFF" stroke-width="2" stroke-linecap="round" stroke-linejoin="round" stroke-miterlimit="10" d="
		M40.608,198.332c6.377-4.178,9.426,3.928,13.357,7.071c3.924,3.143,24.617,19.381,47.666,4.714c0,0,4.809-1.833,1.619,8.382
		c-3.188,10.212-41.952,12.833-53.738-4.191C37.728,197.285,37.005,200.688,40.608,198.332z"/>
	<path fill="none" stroke="#FFFFFF" stroke-width="2" stroke-linecap="round" stroke-linejoin="round" stroke-miterlimit="10" d="
		M103.685,210.534c-4.084-5.426-12.727-7.185-22.939-13.374c-10.371-6.282-33.197-27.509-33.002-39.688"/>
	<path fill="none" stroke="#FFFFFF" stroke-width="2" stroke-miterlimit="10" d="M192.863,232.063
		c-9.994,0.405-53.823-6.124-66.741-12.909c-1.406-0.739-5.108-0.785-2.487,2.096c0.953,1.047,10.384,16.623,40.223,19.378
		L192.863,232.063z"/>
	<path fill="none" stroke="#FFFFFF" stroke-width="2" stroke-linecap="round" stroke-linejoin="round" stroke-miterlimit="10" d="
		M45.252,122.113c-0.571,3.433,3.847,18.474,21.349,22.59c35.983,8.464,32.019,14.704,32.019,25.145
		c0,3.305-2.748,18.401,37.589,32.282c11.873,4.086,33.918,2.292,33.918,2.292c-43.022,12.572-87.025-10.509-84.079-29.467
		c1.42-9.108,0.047-15.256-15.714-18.582c-4.059-0.856-19.317-9.856-22.59-18.741c-5.289-14.345-1.639-29.663,6.07-32.892"/>
	<path fill="none" stroke="#FFFFFF" stroke-width="2" stroke-miterlimit="10" d="M207.418,165.684
		c6.881,11.511-100.868,9.067-85.225-8.212c2.488-2.749,2.488-8.642-9.691-13.486c-12.179-4.846-54.364-47.656-8.817-61.289
		c20.997-6.287,13.466-17.948,10.259-30.775c-2.881-11.524-1.575-33.396,4.846-34.703c6.42-1.311-2.396,30.058,17.677,51.989
		c7.072,7.726-20.166,18.042-20.166,31.563c0,7.726,29.729,10.081,30.386,17.415c0.65,7.334-8.769,23.637,29.854,17.811
		c5.307-0.801,11.121-2.743,9.817-11.128"/>
	<path fill="none" stroke="#FFFFFF" stroke-width="2" stroke-miterlimit="10" d="M96.394,130.937
		c18.975,4.713,35.312,4.55,46.896,23.78c4.617,7.661,33.931,16.401,46.896,17.449"/>
	<path fill="none" stroke="#FFFFFF" stroke-width="2" stroke-linecap="round" stroke-linejoin="round" stroke-miterlimit="10" d="
		M61.896,88.341c-0.336,3.421,0.482,19.528,12.271,26.698"/>
</g>
</svg>
