<?xml version="1.0" encoding="utf-8"?>
<!-- Generator: Adobe Illustrator 16.0.0, SVG Export Plug-In . SVG Version: 6.00 Build 0)  -->
<!DOCTYPE svg PUBLIC "-//W3C//DTD SVG 1.1//EN" "http://www.w3.org/Graphics/SVG/1.1/DTD/svg11.dtd">
<svg version="1.1" xmlns="http://www.w3.org/2000/svg" xmlns:xlink="http://www.w3.org/1999/xlink" x="0px" y="0px"
	 width="404.667px" height="478.404px" viewBox="0 0 404.667 478.404" enable-background="new 0 0 404.667 478.404"
	 xml:space="preserve">
<g id="Layer_2" display="none">
	<rect x="-0.333" y="-2.105" display="inline" width="405" height="481"/>
</g>
<g id="Layer_1">
	<g>
		<path fill="none" stroke="#FFFFFF" stroke-width="2" stroke-miterlimit="10" d="M67.072,73.356
			c-4.645,23.215-3.315,81.589-13.933,112.102c-10.611,30.513-2.651,98.173,27.86,165.83
			c30.515,67.66,25.388,120.62,127.356,107.459c41.128-5.302,36.484-7.296,67.664-5.302c31.178,1.986,89.546-3.322,93.528-78.94
			c3.979-75.616,37.808-110.772,29.849-218.896c-1.597-21.669-22.552-81.588-25.87-101.487s-25.868-40.463-71.639-35.819
			c-45.769,4.642-18.905,7.9-81.922,9.89c-47.794,1.51-85.234-16.524-128.352-4.557C72.812,28.856,67.072,73.356,67.072,73.356z"/>
		<path fill="none" stroke="#FFFFFF" stroke-width="2" stroke-miterlimit="10" d="M294.376,138.361c0,0,28.737-13.267,42.005-5.968
			c13.264,7.295,25.202,12.602,36.481,16.58"/>
		<path fill="none" stroke="#FFFFFF" stroke-width="2" stroke-miterlimit="10" d="M197.743,144.995
			c-16.582-9.285-31.175-22.553-51.072-18.573c-19.903,3.98-45.772,23.88-57.711,22.551"/>
		<path fill="none" stroke="#FFFFFF" stroke-width="2" stroke-miterlimit="10" d="M243.515,157.598
			c24.517-1.291,50.375,19.02,50.861,133.106c0.107,25.857-10.908,7.977-21.52,11.958c-10.612,3.981-12.191,4.509-34.907-3.87
			c-8.959-3.305-32.901,14.258-34.229-4.994C202.393,274.551,218.306,158.925,243.515,157.598z"/>
		<path fill="none" stroke="#FFFFFF" stroke-width="2" stroke-miterlimit="10" d="M91.76,181.836
			c36.246-22.519,50.527-36.248,76.337-9.887c25.816,26.362,8.237,24.714,0,25.813c-2.002,0.268-37.537,11.267-46.683,6.042
			C106.037,195.018,91.76,181.836,91.76,181.836z"/>
		<path fill="none" stroke="#FFFFFF" stroke-width="2" stroke-miterlimit="10" d="M303.549,176.009
			c35.186-18.699,43.306-13.104,63.606,0c20.301,13.103,20.301,15.811,4.06,26.637c-16.24,10.828-43.982,8.838-50.753,2.728
			C313.698,199.263,303.549,176.009,303.549,176.009z"/>
		<polygon fill="none" stroke="#FFFFFF" stroke-width="2" stroke-miterlimit="10" points="277.042,347.932 259.534,357.056 
			242.378,347.932 213.792,357.056 181.625,369.987 196.87,385.958 232.374,389.759 266.68,389.759 298.125,383.679 
			323.022,378.353 304.558,359.341 		"/>
		<path fill="none" stroke="#FFFFFF" stroke-width="2" stroke-miterlimit="10" d="M77.933,245.693
			c-3.754-0.299-5.479,2.537-5.919,4.531c-7.294,45.769-2.299,167.155-47.396,166.07c-36.484-0.877-15.94-70.331-2.653-95.521
			c11.798-22.355,33.586-45.523,33.325-46.749l2.514,10.761c-23.192,23.711-59.719,98.345-33.186,119.569
			c26.534,21.228,33.31-129.473,39.945-158.661c0.219-3.965,3.22-7.585,8.831-6.492"/>
		<polyline fill="none" stroke="#FFFFFF" stroke-width="2" stroke-miterlimit="10" points="181.625,369.987 234.519,368.847 
			252.329,371.577 277.042,368.847 319.095,374.31 		"/>
		<path fill="none" stroke="#FFFFFF" stroke-width="2" stroke-miterlimit="10" d="M63.662,251.081
			c-4.425-4.863-3.89-15.877,4.734-13.899c8.621,1.978,10.475,8.25,9.151,12.229c-1.328,3.983-6.247,5.062-7.16,5.033"/>
	</g>
</g>
</svg>
